<svg xmlns="http://www.w3.org/2000/svg" xmlns:xlink="http://www.w3.org/1999/xlink" width="500" zoomAndPan="magnify" viewBox="0 0 375 374.999991" height="500" preserveAspectRatio="xMidYMid meet" version="1.0"><path fill="#37c2cc" d="M 346.449219 149.132812 C 343.421875 149.132812 340.964844 146.675781 340.964844 143.652344 C 340.964844 83.203125 291.789062 34.027344 231.34375 34.027344 C 228.316406 34.027344 225.863281 31.570312 225.863281 28.546875 C 225.863281 25.519531 228.316406 23.066406 231.34375 23.066406 C 297.835938 23.066406 351.929688 77.160156 351.929688 143.652344 C 351.929688 146.675781 349.480469 149.132812 346.449219 149.132812 Z M 346.449219 149.132812 " fill-opacity="1" fill-rule="nonzero"/><path fill="#37c2cc" d="M 313.5625 149.132812 C 310.535156 149.132812 308.078125 146.675781 308.078125 143.652344 C 308.078125 101.335938 273.65625 66.914062 231.34375 66.914062 C 228.316406 66.914062 225.863281 64.460938 225.863281 61.433594 C 225.863281 58.40625 228.316406 55.953125 231.34375 55.953125 C 279.703125 55.953125 319.042969 95.296875 319.042969 143.652344 C 319.042969 146.675781 316.589844 149.132812 313.5625 149.132812 Z M 313.5625 149.132812 " fill-opacity="1" fill-rule="nonzero"/><path fill="#37c2cc" d="M 280.671875 149.132812 C 277.648438 149.132812 275.191406 146.675781 275.191406 143.652344 C 275.191406 119.472656 255.519531 99.800781 231.34375 99.800781 C 228.316406 99.800781 225.863281 97.347656 225.863281 94.320312 C 225.863281 91.292969 228.316406 88.839844 231.34375 88.839844 C 261.566406 88.839844 286.15625 113.425781 286.15625 143.652344 C 286.15625 146.675781 283.703125 149.132812 280.671875 149.132812 Z M 280.671875 149.132812 " fill-opacity="1" fill-rule="nonzero"/><path fill="#37c2cc" d="M 314.519531 351.933594 C 313.378906 351.933594 312.246094 351.886719 311.117188 351.785156 C 261.222656 346.375 212.695312 329.148438 170.679688 301.953125 C 131.679688 277.21875 97.933594 243.539062 73.125 204.578125 C 45.800781 162.484375 28.535156 113.828125 23.222656 63.90625 C 22.316406 53.871094 25.351562 44.167969 31.757812 36.5 C 38.167969 28.835938 47.183594 24.117188 57.140625 23.21875 C 58.25 23.121094 59.367188 23.066406 60.484375 23.066406 L 108.441406 23.066406 C 127.179688 22.996094 143.210938 36.703125 145.835938 55.21875 C 147.8125 70.152344 151.476562 84.828125 156.734375 98.890625 C 161.859375 112.5 158.546875 127.984375 148.296875 138.328125 L 130.960938 155.628906 C 152.429688 191.882812 182.78125 222.171875 219.109375 243.59375 L 236.433594 226.304688 C 246.816406 216.0625 262.316406 212.761719 275.960938 217.875 C 290.046875 223.121094 304.753906 226.78125 319.667969 228.746094 C 338.523438 231.398438 352.355469 247.675781 351.921875 266.625 L 351.921875 314.414062 C 352.003906 335.007812 335.277344 351.847656 314.625 351.933594 C 314.585938 351.933594 314.550781 351.933594 314.519531 351.933594 Z M 108.753906 34.027344 C 108.664062 34.027344 108.578125 34.027344 108.488281 34.027344 L 60.484375 34.027344 C 59.695312 34.027344 58.914062 34.066406 58.128906 34.136719 C 51.078125 34.773438 44.703125 38.109375 40.171875 43.53125 C 35.640625 48.953125 33.496094 55.804688 34.132812 62.832031 C 39.257812 110.960938 55.929688 157.957031 82.34375 198.648438 C 106.320312 236.304688 138.898438 268.816406 176.585938 292.722656 C 217.21875 319.019531 264.09375 335.660156 312.183594 340.878906 C 312.910156 340.945312 313.730469 340.945312 314.585938 340.976562 C 329.183594 340.917969 341.015625 329.011719 340.960938 314.441406 L 340.960938 266.566406 C 340.960938 266.519531 340.960938 266.472656 340.960938 266.429688 C 341.296875 253.011719 331.5 241.484375 318.179688 239.609375 C 302.5 237.546875 286.984375 233.683594 272.117188 228.148438 C 262.460938 224.53125 251.480469 226.859375 244.152344 234.089844 L 223.871094 254.324219 C 222.128906 256.0625 219.445312 256.4375 217.296875 255.214844 C 176.445312 232.035156 142.566406 198.226562 119.335938 157.445312 C 118.113281 155.296875 118.476562 152.601562 120.230469 150.851562 L 140.53125 130.59375 C 147.75 123.308594 150.089844 112.371094 146.46875 102.746094 C 140.914062 87.894531 137.050781 72.40625 134.972656 56.703125 C 133.136719 43.757812 121.886719 34.027344 108.753906 34.027344 Z M 108.753906 34.027344 " fill-opacity="1" fill-rule="nonzero"/><path fill="#37c2cc" d="M 61.429688 121.726562 C 59.066406 121.726562 56.890625 120.1875 56.175781 117.8125 C 50.84375 99.945312 47.09375 81.027344 45.023438 61.585938 C 44.53125 56.0625 47.347656 52.039062 48.582031 50.5625 C 50.113281 48.726562 53.53125 45.558594 59.113281 45.054688 C 59.570312 45.011719 60.023438 44.988281 60.484375 44.988281 L 105.28125 44.988281 C 108.308594 44.988281 110.765625 47.449219 110.757812 50.476562 C 110.757812 53.503906 108.304688 55.953125 105.277344 55.953125 C 105.277344 55.953125 105.277344 55.953125 105.273438 55.953125 L 60.484375 55.953125 C 58.445312 56.121094 57.441406 57.046875 56.992188 57.585938 C 56.714844 57.925781 55.808594 59.125 55.9375 60.519531 C 57.925781 79.203125 61.542969 97.457031 66.683594 114.675781 C 67.550781 117.578125 65.902344 120.628906 63 121.496094 C 62.476562 121.65625 61.949219 121.726562 61.429688 121.726562 Z M 61.429688 121.726562 " fill-opacity="1" fill-rule="nonzero"/><path fill="#37c2cc" d="M 314.53125 330.007812 C 314.398438 330.007812 313.484375 329.988281 313.035156 329.945312 C 293.542969 327.828125 274.78125 324.089844 257.179688 318.816406 C 254.28125 317.945312 252.632812 314.890625 253.503906 311.992188 C 254.375 309.09375 257.4375 307.445312 260.328125 308.316406 C 277.292969 313.394531 295.390625 317.003906 314.121094 319.035156 L 314.625 319.046875 C 315.710938 319.042969 316.847656 318.566406 317.710938 317.699219 C 318.570312 316.832031 319.042969 315.671875 319.035156 314.4375 L 319.042969 269.71875 C 319.042969 266.691406 321.496094 264.234375 324.523438 264.234375 C 327.546875 264.234375 330.003906 266.691406 330.003906 269.71875 L 330 314.414062 C 330.015625 318.558594 328.414062 322.472656 325.492188 325.421875 C 322.570312 328.363281 318.679688 329.992188 314.53125 330.007812 Z M 314.53125 330.007812 " fill-opacity="1" fill-rule="nonzero"/></svg>