<svg xmlns="http://www.w3.org/2000/svg" xmlns:xlink="http://www.w3.org/1999/xlink" width="500" zoomAndPan="magnify" viewBox="0 0 375 374.999991" height="500" preserveAspectRatio="xMidYMid meet" version="1.0"><defs><clipPath id="a4979c2daf"><path d="M 53 38.4375 L 337.5 38.4375 L 337.5 336.9375 L 53 336.9375 Z M 53 38.4375 " clip-rule="nonzero"/></clipPath></defs><g clip-path="url(#a4979c2daf)"><path fill="#37c2cc" d="M 334.738281 297.835938 L 245.84375 203.050781 C 244.1875 201.210938 241.609375 200.476562 239.21875 200.84375 L 174.433594 131.824219 C 173.511719 130.90625 172.222656 130.535156 170.9375 130.722656 C 169.648438 130.90625 168.726562 131.824219 168.175781 133.113281 C 168.175781 133.296875 167.4375 135.136719 166.703125 138.265625 C 163.207031 154.832031 168.175781 172.132812 179.953125 184.648438 L 196.703125 202.5 C 200.015625 205.996094 204.0625 208.207031 208.664062 209.125 L 216.765625 210.597656 L 227.621094 222.191406 C 226.703125 224.769531 227.4375 227.53125 229.09375 229.371094 L 312.285156 318.265625 C 314.125 320.105469 316.519531 321.394531 319.277344 321.394531 C 319.464844 321.394531 319.464844 321.394531 319.648438 321.394531 C 322.222656 321.394531 324.617188 320.476562 326.457031 318.636719 L 333.820312 311.640625 C 335.660156 309.800781 336.949219 307.40625 336.949219 304.648438 C 337.5 302.253906 336.578125 299.863281 334.738281 297.835938 Z M 219.707031 203.605469 L 210.507812 201.765625 C 207.378906 201.210938 204.617188 199.738281 202.40625 197.347656 L 185.660156 179.492188 C 176.089844 169.1875 171.671875 155.199219 173.878906 141.765625 L 233.878906 205.8125 L 230.9375 214.464844 L 221.734375 204.707031 C 221.179688 204.15625 220.445312 203.789062 219.707031 203.605469 Z M 329.21875 306.488281 L 321.855469 313.480469 C 321.304688 314.035156 320.75 314.21875 320.015625 314.21875 C 319.277344 314.21875 318.726562 313.851562 318.175781 313.480469 L 234.984375 224.769531 L 240.691406 208.390625 L 329.402344 302.992188 C 329.953125 303.542969 330.136719 304.09375 330.136719 304.832031 C 329.953125 305.382812 329.769531 306.121094 329.21875 306.488281 Z M 252.835938 187.777344 C 253.574219 189.617188 252.652344 191.824219 250.628906 192.5625 C 250.261719 192.746094 249.707031 192.746094 249.339844 192.746094 C 247.867188 192.746094 246.394531 191.824219 245.84375 190.351562 C 239.21875 172.683594 228.726562 160.167969 221.179688 152.621094 C 219.707031 151.148438 219.707031 148.941406 221.179688 147.46875 C 222.652344 145.996094 224.863281 145.996094 226.335938 147.46875 C 234.433594 155.382812 245.660156 168.820312 252.835938 187.777344 Z M 248.421875 259.921875 C 246.578125 259.1875 244.371094 260.105469 243.636719 261.949219 C 243.265625 263.050781 242.714844 263.972656 242.347656 265.078125 C 241.058594 268.019531 239.585938 270.78125 238.664062 272.808594 C 225.230469 299.492188 206.089844 312.929688 197.808594 318.636719 C 184.371094 328.019531 177.746094 328.574219 175.167969 328.757812 C 164.125 329.679688 150.875 321.949219 141.671875 315.507812 C 115.90625 297.101562 102.285156 273.542969 96.578125 261.027344 C 91.792969 250.535156 80.382812 226.242188 84.25 205.261719 C 85.90625 195.875 91.980469 180.414062 97.316406 171.210938 L 98.050781 170.105469 C 102.285156 163.113281 107.070312 156.671875 112.59375 150.78125 C 121.792969 140.84375 132.835938 132.929688 144.433594 127.59375 C 151.792969 124.277344 165.78125 119.308594 177.746094 123.359375 C 186.210938 126.121094 193.574219 132.746094 197.808594 141.578125 C 198.359375 142.5 199.09375 143.789062 200.9375 144.707031 C 202.40625 145.445312 204.25 145.8125 206.273438 145.8125 C 209.21875 145.8125 212.53125 145.261719 216.027344 143.972656 C 223.757812 141.210938 230.566406 135.875 228.542969 130.167969 C 228.542969 129.984375 228.359375 129.800781 228.359375 129.617188 C 228.359375 129.617188 228.359375 129.433594 228.359375 129.433594 C 228.359375 129.433594 228.359375 129.25 228.359375 129.25 C 228.359375 129.0625 228.175781 129.0625 227.992188 128.878906 L 227.621094 128.511719 C 227.621094 128.511719 227.4375 128.328125 227.4375 128.328125 L 224.492188 124.832031 C 223.574219 123.726562 223.941406 122.808594 224.125 122.253906 C 224.308594 121.886719 224.863281 120.964844 226.335938 120.964844 L 256.519531 120.78125 C 256.519531 120.78125 256.519531 120.78125 256.703125 120.78125 C 261.855469 120.597656 265.167969 114.523438 265.167969 105.691406 C 265.167969 97.960938 262.40625 89.863281 256.519531 89.679688 L 142.777344 89.679688 C 137.4375 89.679688 132.652344 87.285156 130.996094 83.605469 C 130.8125 83.234375 130.628906 82.867188 130.628906 82.316406 C 129.894531 79.371094 130.996094 77.164062 132.101562 75.691406 C 134.492188 72.746094 138.542969 70.90625 142.960938 70.90625 L 151.792969 70.90625 C 151.980469 70.90625 152.164062 70.90625 152.347656 70.90625 C 152.714844 70.90625 152.898438 70.90625 153.265625 70.90625 C 159.339844 70.90625 163.757812 64.09375 163.757812 54.894531 C 163.757812 45.875 159.15625 38.878906 153.265625 38.878906 C 152.898438 38.878906 152.714844 38.878906 152.347656 38.878906 C 152.164062 38.878906 151.980469 38.878906 151.792969 38.878906 L 120.507812 38.878906 C 118.480469 38.878906 116.824219 40.535156 116.824219 42.5625 C 116.824219 44.585938 118.480469 46.242188 120.507812 46.242188 L 144.433594 46.242188 C 143.511719 48.636719 142.777344 51.578125 142.777344 54.894531 C 142.777344 58.019531 143.328125 60.964844 144.433594 63.542969 L 142.960938 63.542969 C 136.335938 63.542969 130.078125 66.304688 126.394531 71.089844 C 123.449219 74.953125 122.347656 79.554688 123.449219 83.972656 C 123.636719 84.894531 124.003906 85.628906 124.371094 86.550781 C 127.316406 92.808594 134.492188 96.855469 142.777344 96.855469 L 249.15625 96.855469 C 248.421875 99.433594 247.867188 102.5625 247.867188 105.507812 C 247.867188 108.449219 248.234375 111.210938 248.972656 113.421875 L 226.335938 113.605469 C 222.46875 113.605469 219.15625 115.8125 217.5 119.308594 C 216.578125 121.335938 216.394531 123.726562 216.949219 125.75 C 214.554688 126.121094 212.347656 126.671875 210.136719 127.40625 C 206.640625 128.695312 203.328125 130.351562 201.121094 132.5625 C 195.78125 124.832031 188.421875 119.125 180.136719 116.550781 C 166.519531 112.132812 151.609375 116.550781 141.488281 121.148438 C 128.972656 126.855469 117.007812 135.320312 107.070312 145.8125 C 101.179688 152.070312 96.027344 158.878906 91.609375 166.425781 L 90.875 167.714844 C 86.457031 175.445312 81.671875 186.855469 78.910156 196.242188 C 69.339844 182.253906 50.015625 147.835938 69.894531 120.964844 C 72.46875 117.285156 75.78125 114.15625 79.277344 111.578125 C 80.015625 111.210938 80.566406 110.660156 81.121094 110.292969 C 88.851562 105.136719 98.234375 102.191406 108.175781 102.191406 C 110.199219 102.191406 111.855469 100.535156 111.855469 98.511719 C 111.855469 96.488281 110.199219 94.832031 108.175781 94.832031 C 103.019531 94.832031 97.867188 95.566406 93.082031 96.855469 C 100.996094 84.523438 105.597656 67.960938 105.046875 52.132812 C 105.046875 50.105469 103.207031 48.449219 101.179688 48.636719 C 99.15625 48.636719 97.5 50.476562 97.683594 52.5 C 98.421875 72.5625 89.769531 94.277344 77.070312 104.21875 C 76.886719 104.21875 76.886719 104.402344 76.703125 104.402344 C 75.964844 104.769531 75.414062 105.320312 74.679688 105.691406 C 74.492188 105.875 74.308594 105.875 74.125 106.058594 C 70.078125 109.003906 66.578125 112.5 63.636719 116.550781 C 37.5 152.4375 70.078125 197.347656 76.703125 205.628906 C 73.207031 228.449219 84.800781 253.296875 89.953125 264.15625 C 96.027344 277.222656 110.382812 302.070312 137.4375 321.394531 C 151.058594 331.148438 163.207031 336.121094 173.328125 336.121094 C 174.25 336.121094 174.984375 336.121094 175.90625 335.9375 C 181.058594 335.566406 188.605469 333.910156 202.039062 324.523438 C 210.691406 318.449219 231.121094 304.277344 245.292969 275.9375 C 246.394531 273.726562 247.683594 271.148438 249.15625 267.835938 C 249.707031 266.734375 250.078125 265.628906 250.628906 264.523438 C 251.179688 262.867188 250.261719 260.660156 248.421875 259.921875 Z M 153.449219 63.542969 C 152.714844 63.542969 150.320312 60.414062 150.320312 54.894531 C 150.320312 49.371094 152.714844 46.242188 153.449219 46.242188 C 154.1875 46.242188 156.578125 49.371094 156.578125 54.894531 C 156.578125 60.597656 154.1875 63.542969 153.449219 63.542969 Z M 256.703125 112.683594 C 256.148438 111.578125 255.414062 109.1875 255.414062 105.507812 C 255.414062 102.007812 256.148438 99.433594 256.703125 97.960938 C 257.253906 99.433594 257.992188 102.007812 257.992188 105.507812 C 257.992188 109.003906 257.253906 111.394531 256.703125 112.683594 Z M 212.714844 134.21875 C 216.210938 132.929688 219.15625 132.746094 220.8125 132.746094 C 219.523438 133.851562 217.132812 135.507812 213.820312 136.792969 C 210.320312 138.082031 207.378906 138.265625 205.722656 138.265625 C 207.007812 137.164062 209.402344 135.507812 212.714844 134.21875 Z M 168.726562 195.320312 L 168.726562 186.304688 C 168.726562 184.277344 170.382812 182.621094 172.40625 182.621094 C 174.433594 182.621094 176.089844 184.277344 176.089844 186.304688 L 176.089844 195.320312 C 176.089844 197.347656 174.433594 199.003906 172.40625 199.003906 C 170.382812 199.003906 168.726562 197.347656 168.726562 195.320312 Z M 168.726562 209.679688 C 168.726562 207.652344 170.382812 205.996094 172.40625 205.996094 C 174.433594 205.996094 176.089844 207.652344 176.089844 209.679688 L 176.089844 218.695312 C 176.089844 220.722656 174.433594 222.378906 172.40625 222.378906 C 170.382812 222.378906 168.726562 220.722656 168.726562 218.695312 Z M 168.726562 233.234375 C 168.726562 231.210938 170.382812 229.554688 172.40625 229.554688 C 174.433594 229.554688 176.089844 231.210938 176.089844 233.234375 L 176.089844 242.253906 C 176.089844 244.277344 174.433594 245.9375 172.40625 245.9375 C 170.382812 245.9375 168.726562 244.277344 168.726562 242.253906 Z M 168.726562 256.609375 C 168.726562 254.585938 170.382812 252.929688 172.40625 252.929688 C 174.433594 252.929688 176.089844 254.585938 176.089844 256.609375 L 176.089844 265.628906 C 176.089844 267.652344 174.433594 269.308594 172.40625 269.308594 C 170.382812 269.308594 168.726562 267.652344 168.726562 265.628906 Z M 168.726562 280.167969 C 168.726562 278.144531 170.382812 276.488281 172.40625 276.488281 C 174.433594 276.488281 176.089844 278.144531 176.089844 280.167969 L 176.089844 289.1875 C 176.089844 291.210938 174.433594 292.867188 172.40625 292.867188 C 170.382812 292.867188 168.726562 291.210938 168.726562 289.1875 Z M 168.726562 303.726562 C 168.726562 301.703125 170.382812 300.046875 172.40625 300.046875 C 174.433594 300.046875 176.089844 301.703125 176.089844 303.726562 L 176.089844 312.746094 C 176.089844 314.769531 174.433594 316.425781 172.40625 316.425781 C 170.382812 316.425781 168.726562 314.769531 168.726562 312.746094 Z M 168.726562 303.726562 " fill-opacity="1" fill-rule="nonzero"/></g></svg>