<svg xmlns="http://www.w3.org/2000/svg" xmlns:xlink="http://www.w3.org/1999/xlink" width="500" zoomAndPan="magnify" viewBox="0 0 375 374.999991" height="500" preserveAspectRatio="xMidYMid meet" version="1.0"><defs><clipPath id="e5a8020bbf"><path d="M 20.632812 20.632812 L 354.382812 20.632812 L 354.382812 354.382812 L 20.632812 354.382812 Z M 20.632812 20.632812 " clip-rule="nonzero"/></clipPath></defs><g clip-path="url(#e5a8020bbf)"><path fill="#37c2cc" d="M 187.496094 341.066406 C 102.820312 341.066406 33.929688 272.175781 33.929688 187.496094 C 33.929688 102.820312 102.820312 33.929688 187.496094 33.929688 C 272.175781 33.929688 341.0625 102.820312 341.0625 187.496094 C 341.0625 272.175781 272.175781 341.066406 187.496094 341.066406 Z M 341.246094 122.546875 C 332.839844 102.671875 320.808594 84.828125 305.488281 69.507812 C 290.164062 54.183594 272.320312 42.152344 252.449219 33.75 C 231.875 25.046875 210.019531 20.632812 187.496094 20.632812 C 164.972656 20.632812 143.121094 25.046875 122.546875 33.75 C 102.671875 42.152344 84.828125 54.183594 69.507812 69.507812 C 54.183594 84.828125 42.152344 102.671875 33.75 122.546875 C 25.046875 143.117188 20.632812 164.972656 20.632812 187.496094 C 20.632812 210.019531 25.046875 231.875 33.75 252.449219 C 42.152344 272.320312 54.183594 290.164062 69.507812 305.488281 C 84.828125 320.808594 102.671875 332.839844 122.546875 341.246094 C 143.121094 349.949219 164.972656 354.359375 187.496094 354.359375 C 210.019531 354.359375 231.875 349.949219 252.449219 341.246094 C 272.320312 332.839844 290.164062 320.808594 305.488281 305.488281 C 320.808594 290.164062 332.839844 272.320312 341.246094 252.449219 C 349.949219 231.875 354.359375 210.019531 354.359375 187.496094 C 354.359375 164.972656 349.949219 143.117188 341.246094 122.546875 " fill-opacity="1" fill-rule="nonzero"/></g><path fill="#37c2cc" d="M 267.472656 243.828125 L 194.144531 184.328125 L 194.144531 105.414062 C 194.144531 101.742188 191.167969 98.765625 187.496094 98.765625 C 183.824219 98.765625 180.847656 101.742188 180.847656 105.414062 L 180.847656 187.496094 C 180.847656 189.5 181.753906 191.398438 183.308594 192.660156 L 259.09375 254.152344 C 260.328125 255.152344 261.808594 255.640625 263.277344 255.640625 C 265.214844 255.640625 267.132812 254.796875 268.445312 253.179688 C 270.757812 250.328125 270.324219 246.140625 267.472656 243.828125 " fill-opacity="1" fill-rule="nonzero"/></svg>