<svg xmlns="http://www.w3.org/2000/svg" xmlns:xlink="http://www.w3.org/1999/xlink" width="500" zoomAndPan="magnify" viewBox="0 0 375 374.999991" height="500" preserveAspectRatio="xMidYMid meet" version="1.0"><defs><clipPath id="4cc7242338"><path d="M 167 177 L 308 177 L 308 348.390625 L 167 348.390625 Z M 167 177 " clip-rule="nonzero"/></clipPath><clipPath id="a77f61b8f3"><path d="M 264 92 L 339.238281 92 L 339.238281 268 L 264 268 Z M 264 92 " clip-rule="nonzero"/></clipPath><clipPath id="aa238c8d2a"><path d="M 301 26.640625 L 332 26.640625 L 332 58 L 301 58 Z M 301 26.640625 " clip-rule="nonzero"/></clipPath></defs><path fill="#37c2cc" d="M 95.941406 202.550781 C 102.964844 202.550781 108.484375 197.03125 108.484375 190.007812 C 108.484375 182.984375 102.964844 177.464844 95.941406 177.464844 C 88.917969 177.464844 83.398438 182.984375 83.398438 190.007812 C 83.398438 197.03125 88.917969 202.550781 95.941406 202.550781 Z M 95.941406 182.480469 C 100.207031 182.480469 103.464844 185.742188 103.464844 190.007812 C 103.464844 194.273438 100.207031 197.53125 95.941406 197.53125 C 91.675781 197.53125 88.417969 194.273438 88.417969 190.007812 C 88.417969 185.742188 91.675781 182.480469 95.941406 182.480469 Z M 95.941406 182.480469 " fill-opacity="1" fill-rule="nonzero"/><path fill="#37c2cc" d="M 143.601562 184.992188 C 149.121094 184.992188 153.636719 180.476562 153.636719 174.957031 C 153.636719 169.4375 149.121094 164.921875 143.601562 164.921875 C 138.082031 164.921875 133.566406 169.4375 133.566406 174.957031 C 133.566406 180.476562 138.082031 184.992188 143.601562 184.992188 Z M 143.601562 169.941406 C 146.359375 169.941406 148.617188 172.199219 148.617188 174.957031 C 148.617188 177.714844 146.359375 179.972656 143.601562 179.972656 C 140.84375 179.972656 138.585938 177.714844 138.585938 174.957031 C 138.585938 172.199219 140.84375 169.941406 143.601562 169.941406 Z M 143.601562 169.941406 " fill-opacity="1" fill-rule="nonzero"/><g clip-path="url(#4cc7242338)"><path fill="#37c2cc" d="M 256.480469 233.152344 L 256.480469 182.480469 L 262.25 182.480469 C 263.753906 182.480469 264.757812 181.480469 264.757812 179.972656 C 264.757812 178.46875 263.753906 177.464844 262.25 177.464844 L 213.335938 177.464844 C 211.828125 177.464844 210.828125 178.46875 210.828125 179.972656 C 210.828125 181.480469 211.828125 182.480469 213.335938 182.480469 L 218.855469 182.480469 L 218.855469 233.152344 L 169.4375 323.957031 C 166.679688 329.222656 166.679688 335.496094 169.6875 340.761719 C 172.449219 345.277344 177.214844 348.039062 182.230469 348.039062 L 292.851562 348.039062 C 297.867188 348.039062 302.632812 345.277344 305.394531 340.761719 C 308.402344 335.746094 308.65625 329.222656 305.644531 323.957031 Z M 223.621094 234.90625 C 223.871094 234.40625 223.871094 233.90625 223.871094 233.402344 L 223.871094 182.480469 L 251.464844 182.480469 L 251.464844 192.515625 L 238.921875 192.515625 C 237.414062 192.515625 236.414062 193.519531 236.414062 195.023438 C 236.414062 196.527344 237.414062 197.53125 238.921875 197.53125 L 251.464844 197.53125 L 251.464844 202.550781 L 242.683594 202.550781 C 241.179688 202.550781 240.175781 203.550781 240.175781 205.058594 C 240.175781 206.5625 241.179688 207.566406 242.683594 207.566406 L 251.464844 207.566406 L 251.464844 212.582031 L 238.921875 212.582031 C 237.414062 212.582031 236.414062 213.585938 236.414062 215.089844 C 236.414062 216.597656 237.414062 217.601562 238.921875 217.601562 L 251.464844 217.601562 L 251.464844 233.652344 C 251.464844 234.15625 251.464844 234.40625 251.714844 234.90625 L 275.042969 277.800781 L 200.292969 277.800781 Z M 301.128906 338.253906 C 299.375 341.265625 296.363281 343.019531 292.851562 343.019531 L 182.230469 343.019531 C 178.96875 343.019531 175.960938 341.265625 173.953125 338.003906 C 171.695312 334.492188 171.695312 329.976562 173.703125 326.214844 L 197.28125 282.566406 L 277.550781 282.566406 L 301.128906 326.214844 C 303.386719 329.976562 303.386719 334.492188 301.128906 338.253906 Z M 301.128906 338.253906 " fill-opacity="1" fill-rule="nonzero"/></g><g clip-path="url(#a77f61b8f3)"><path fill="#37c2cc" d="M 336.75 92.179688 L 266.511719 92.179688 C 265.007812 92.179688 264.003906 93.183594 264.003906 94.6875 C 264.003906 96.191406 265.007812 97.195312 266.511719 97.195312 L 276.546875 97.195312 L 276.546875 242.683594 C 276.546875 256.480469 287.835938 267.769531 301.632812 267.769531 L 301.882812 267.769531 C 315.679688 267.769531 326.964844 256.480469 326.964844 242.683594 L 326.964844 97.195312 L 337 97.195312 C 338.503906 97.195312 339.507812 96.191406 339.507812 94.6875 C 339.507812 93.183594 338.253906 92.179688 336.75 92.179688 Z M 321.699219 112.246094 L 304.140625 112.246094 C 302.632812 112.246094 301.632812 113.25 301.632812 114.753906 C 301.632812 116.261719 302.632812 117.261719 304.140625 117.261719 L 321.699219 117.261719 L 321.699219 127.296875 L 311.664062 127.296875 C 310.160156 127.296875 309.15625 128.300781 309.15625 129.804688 C 309.15625 131.308594 310.160156 132.3125 311.664062 132.3125 L 321.699219 132.3125 L 321.699219 142.347656 L 304.140625 142.347656 C 302.632812 142.347656 301.632812 143.351562 301.632812 144.855469 C 301.632812 146.359375 302.632812 147.363281 304.140625 147.363281 L 321.699219 147.363281 L 321.699219 157.398438 L 313.167969 157.398438 C 311.664062 157.398438 310.660156 158.402344 310.660156 159.90625 C 310.660156 161.410156 311.664062 162.414062 313.167969 162.414062 L 321.699219 162.414062 L 321.699219 172.449219 L 304.140625 172.449219 C 302.632812 172.449219 301.632812 173.453125 301.632812 174.957031 C 301.632812 176.460938 302.632812 177.464844 304.140625 177.464844 L 321.699219 177.464844 L 321.699219 187.5 L 314.171875 187.5 C 312.667969 187.5 311.664062 188.503906 311.664062 190.007812 C 311.664062 191.511719 312.667969 192.515625 314.171875 192.515625 L 321.699219 192.515625 L 321.699219 202.550781 L 304.140625 202.550781 C 302.632812 202.550781 301.632812 203.550781 301.632812 205.058594 C 301.632812 206.5625 302.632812 207.566406 304.140625 207.566406 L 321.699219 207.566406 L 321.699219 217.601562 L 314.171875 217.601562 C 312.667969 217.601562 311.664062 218.601562 311.664062 220.109375 C 311.664062 221.613281 312.667969 222.617188 314.171875 222.617188 L 321.699219 222.617188 L 321.699219 232.648438 L 304.140625 232.648438 C 302.632812 232.648438 301.632812 233.652344 301.632812 235.160156 C 301.632812 236.664062 302.632812 237.667969 304.140625 237.667969 L 321.699219 237.667969 L 321.699219 242.683594 C 321.699219 253.722656 312.667969 262.75 301.632812 262.75 C 290.59375 262.75 281.5625 253.722656 281.5625 242.683594 L 281.5625 97.195312 L 321.699219 97.195312 Z M 321.699219 112.246094 " fill-opacity="1" fill-rule="nonzero"/></g><g clip-path="url(#aa238c8d2a)"><path fill="#37c2cc" d="M 301.632812 42.011719 C 301.632812 50.289062 308.402344 57.0625 316.683594 57.0625 C 324.960938 57.0625 331.730469 50.289062 331.730469 42.011719 C 331.730469 33.734375 324.960938 26.960938 316.683594 26.960938 C 308.402344 26.960938 301.632812 33.734375 301.632812 42.011719 Z M 326.714844 42.011719 C 326.714844 47.53125 322.199219 52.042969 316.683594 52.042969 C 311.164062 52.042969 306.648438 47.53125 306.648438 42.011719 C 306.648438 36.492188 311.164062 31.976562 316.683594 31.976562 C 322.199219 31.976562 326.714844 36.492188 326.714844 42.011719 Z M 326.714844 42.011719 " fill-opacity="1" fill-rule="nonzero"/></g><path fill="#37c2cc" d="M 269.023438 59.570312 C 269.023438 66.59375 274.539062 72.113281 281.5625 72.113281 C 288.585938 72.113281 294.105469 66.59375 294.105469 59.570312 C 294.105469 52.546875 288.585938 47.027344 281.5625 47.027344 C 274.539062 47.027344 269.023438 52.546875 269.023438 59.570312 Z M 289.089844 59.570312 C 289.089844 63.835938 285.828125 67.09375 281.5625 67.09375 C 277.300781 67.09375 274.039062 63.835938 274.039062 59.570312 C 274.039062 55.304688 277.300781 52.042969 281.5625 52.042969 C 285.828125 52.042969 289.089844 55.304688 289.089844 59.570312 Z M 289.089844 59.570312 " fill-opacity="1" fill-rule="nonzero"/><path fill="#37c2cc" d="M 203.804688 220.109375 C 203.804688 183.988281 180.726562 152.128906 146.109375 141.09375 C 143.097656 140.089844 141.09375 137.332031 141.09375 134.070312 L 141.09375 79.636719 L 156.144531 79.636719 C 157.648438 79.636719 158.652344 78.632812 158.652344 77.128906 C 158.652344 75.625 157.648438 74.621094 156.144531 74.621094 L 85.90625 74.621094 C 84.402344 74.621094 83.398438 75.625 83.398438 77.128906 C 83.398438 78.632812 84.402344 79.636719 85.90625 79.636719 L 100.957031 79.636719 L 100.957031 134.070312 C 100.957031 137.332031 98.953125 140.339844 95.941406 141.09375 C 59.066406 152.882812 35.488281 188.25 38.5 226.882812 C 41.757812 267.265625 74.621094 299.875 115.257812 302.636719 C 117.261719 302.886719 119.269531 302.886719 121.027344 302.886719 C 142.097656 302.886719 161.914062 295.109375 177.464844 280.5625 C 194.269531 265.007812 203.804688 242.933594 203.804688 220.109375 Z M 97.445312 146.109375 C 102.464844 144.355469 105.976562 139.589844 105.976562 134.320312 L 105.976562 79.636719 L 136.074219 79.636719 L 136.074219 134.070312 C 136.074219 139.589844 139.585938 144.355469 144.605469 145.859375 C 174.707031 155.390625 195.523438 181.730469 198.285156 212.582031 C 190.007812 213.085938 185.492188 215.59375 180.726562 217.851562 C 175.960938 220.359375 171.195312 222.617188 161.660156 222.617188 C 152.128906 222.617188 147.613281 220.359375 142.597656 217.851562 C 137.332031 215.34375 132.0625 212.582031 121.527344 212.582031 C 110.992188 212.582031 105.472656 215.34375 100.457031 217.851562 C 95.691406 220.359375 90.925781 222.617188 81.394531 222.617188 C 71.859375 222.617188 67.34375 220.359375 62.328125 217.851562 C 57.5625 215.34375 52.546875 213.085938 43.265625 212.582031 C 46.527344 181.980469 67.34375 155.640625 97.445312 146.109375 Z M 174.203125 277.050781 C 158.402344 291.847656 137.582031 299.375 115.757812 297.867188 C 77.628906 295.359375 46.777344 264.757812 43.765625 226.628906 C 43.265625 223.621094 43.265625 220.609375 43.265625 217.601562 C 51.542969 217.851562 55.808594 220.109375 60.574219 222.367188 C 65.839844 224.875 71.109375 227.632812 81.644531 227.632812 C 92.179688 227.632812 97.699219 224.875 102.714844 222.367188 C 107.480469 219.855469 112.246094 217.601562 121.777344 217.601562 C 131.308594 217.601562 135.824219 219.855469 140.84375 222.367188 C 146.109375 224.875 151.378906 227.632812 161.914062 227.632812 C 172.449219 227.632812 177.964844 224.875 182.984375 222.367188 C 187.246094 220.359375 191.261719 218.101562 198.535156 217.851562 C 198.535156 218.601562 198.535156 219.355469 198.535156 220.359375 C 198.785156 241.679688 189.757812 262.25 174.203125 277.050781 Z M 174.203125 277.050781 " fill-opacity="1" fill-rule="nonzero"/></svg>