<svg xmlns="http://www.w3.org/2000/svg" xmlns:xlink="http://www.w3.org/1999/xlink" width="500" zoomAndPan="magnify" viewBox="0 0 375 374.999991" height="500" preserveAspectRatio="xMidYMid meet" version="1.0"><defs><clipPath id="eb283746a4"><path d="M 15.648438 75 L 359.148438 75 L 359.148438 300 L 15.648438 300 Z M 15.648438 75 " clip-rule="nonzero"/></clipPath></defs><g clip-path="url(#eb283746a4)"><path fill="#37c2cc" d="M 339.65625 75.285156 L 35.046875 75.285156 C 34.40625 75.285156 33.769531 75.316406 33.132812 75.382812 C 32.496094 75.445312 31.867188 75.539062 31.238281 75.664062 C 30.613281 75.789062 29.992188 75.945312 29.382812 76.128906 C 28.769531 76.316406 28.167969 76.53125 27.578125 76.777344 C 26.988281 77.023438 26.410156 77.296875 25.847656 77.597656 C 25.285156 77.898438 24.734375 78.226562 24.203125 78.582031 C 23.671875 78.9375 23.160156 79.316406 22.667969 79.722656 C 22.171875 80.128906 21.699219 80.558594 21.246094 81.007812 C 20.796875 81.460938 20.367188 81.933594 19.960938 82.429688 C 19.554688 82.921875 19.175781 83.4375 18.820312 83.96875 C 18.464844 84.5 18.136719 85.046875 17.835938 85.609375 C 17.53125 86.171875 17.257812 86.75 17.015625 87.339844 C 16.769531 87.929688 16.554688 88.53125 16.367188 89.144531 C 16.183594 89.753906 16.027344 90.375 15.902344 91 C 15.777344 91.628906 15.683594 92.261719 15.617188 92.894531 C 15.554688 93.53125 15.523438 94.167969 15.523438 94.808594 L 15.523438 280.46875 C 15.523438 281.109375 15.554688 281.746094 15.617188 282.382812 C 15.683594 283.019531 15.777344 283.652344 15.902344 284.277344 C 16.027344 284.90625 16.183594 285.523438 16.367188 286.136719 C 16.554688 286.746094 16.769531 287.347656 17.015625 287.9375 C 17.257812 288.527344 17.53125 289.105469 17.835938 289.667969 C 18.136719 290.234375 18.464844 290.78125 18.820312 291.3125 C 19.175781 291.84375 19.554688 292.355469 19.960938 292.851562 C 20.367188 293.34375 20.796875 293.816406 21.246094 294.269531 C 21.699219 294.722656 22.171875 295.148438 22.667969 295.554688 C 23.160156 295.960938 23.671875 296.34375 24.203125 296.695312 C 24.734375 297.050781 25.285156 297.378906 25.847656 297.683594 C 26.410156 297.984375 26.988281 298.257812 27.578125 298.503906 C 28.167969 298.746094 28.769531 298.960938 29.382812 299.148438 C 29.992188 299.335938 30.613281 299.488281 31.238281 299.613281 C 31.867188 299.742188 32.496094 299.835938 33.132812 299.898438 C 33.769531 299.960938 34.40625 299.992188 35.046875 299.992188 L 339.65625 299.992188 C 340.292969 299.992188 340.933594 299.960938 341.570312 299.898438 C 342.203125 299.835938 342.835938 299.742188 343.464844 299.617188 C 344.089844 299.492188 344.710938 299.335938 345.320312 299.148438 C 345.933594 298.964844 346.535156 298.746094 347.125 298.503906 C 347.714844 298.257812 348.292969 297.984375 348.855469 297.683594 C 349.417969 297.382812 349.96875 297.054688 350.5 296.699219 C 351.03125 296.34375 351.542969 295.960938 352.035156 295.558594 C 352.53125 295.152344 353.003906 294.722656 353.457031 294.269531 C 353.910156 293.820312 354.335938 293.34375 354.742188 292.851562 C 355.148438 292.355469 355.527344 291.84375 355.882812 291.3125 C 356.238281 290.78125 356.566406 290.234375 356.871094 289.671875 C 357.171875 289.105469 357.445312 288.53125 357.691406 287.9375 C 357.933594 287.347656 358.148438 286.746094 358.335938 286.136719 C 358.523438 285.523438 358.679688 284.90625 358.804688 284.277344 C 358.929688 283.652344 359.023438 283.019531 359.085938 282.382812 C 359.148438 281.746094 359.179688 281.109375 359.183594 280.46875 L 359.183594 94.808594 C 359.179688 94.167969 359.148438 93.53125 359.085938 92.894531 C 359.023438 92.257812 358.929688 91.628906 358.804688 91 C 358.679688 90.375 358.523438 89.753906 358.335938 89.144531 C 358.148438 88.53125 357.933594 87.929688 357.691406 87.339844 C 357.445312 86.75 357.171875 86.171875 356.871094 85.609375 C 356.570312 85.046875 356.238281 84.496094 355.882812 83.964844 C 355.527344 83.433594 355.148438 82.921875 354.742188 82.429688 C 354.335938 81.933594 353.910156 81.460938 353.457031 81.007812 C 353.003906 80.558594 352.53125 80.128906 352.035156 79.722656 C 351.542969 79.316406 351.03125 78.9375 350.5 78.582031 C 349.96875 78.226562 349.417969 77.898438 348.855469 77.597656 C 348.292969 77.292969 347.714844 77.019531 347.125 76.777344 C 346.535156 76.53125 345.933594 76.316406 345.320312 76.128906 C 344.710938 75.945312 344.089844 75.789062 343.464844 75.664062 C 342.835938 75.539062 342.203125 75.445312 341.570312 75.382812 C 340.933594 75.316406 340.292969 75.285156 339.65625 75.285156 Z M 241.363281 187.640625 L 348.605469 92.042969 C 348.902344 92.941406 349.054688 93.863281 349.066406 94.808594 L 349.066406 280.46875 C 349.054688 281.417969 348.902344 282.339844 348.605469 283.238281 Z M 339.644531 85.402344 C 340.003906 85.417969 340.359375 85.453125 340.714844 85.511719 L 193.578125 216.660156 C 193.152344 217.039062 192.695312 217.378906 192.207031 217.675781 C 191.71875 217.972656 191.207031 218.222656 190.671875 218.425781 C 190.136719 218.632812 189.589844 218.785156 189.027344 218.886719 C 188.464844 218.992188 187.898438 219.042969 187.328125 219.042969 C 186.753906 219.042969 186.1875 218.992188 185.625 218.886719 C 185.0625 218.785156 184.515625 218.632812 183.980469 218.425781 C 183.445312 218.222656 182.933594 217.972656 182.445312 217.675781 C 181.957031 217.378906 181.5 217.039062 181.074219 216.660156 L 33.980469 85.511719 C 34.332031 85.453125 34.6875 85.417969 35.046875 85.402344 Z M 26.101562 283.238281 C 25.804688 282.339844 25.652344 281.417969 25.640625 280.46875 L 25.640625 94.808594 C 25.652344 93.863281 25.804688 92.941406 26.101562 92.042969 L 133.34375 187.640625 Z M 35.046875 289.886719 C 34.6875 289.871094 34.332031 289.835938 33.980469 289.777344 L 140.933594 194.425781 L 174.371094 224.210938 C 175.257812 225.003906 176.207031 225.707031 177.21875 226.324219 C 178.234375 226.9375 179.296875 227.457031 180.40625 227.882812 C 181.515625 228.304688 182.652344 228.625 183.820312 228.839844 C 184.988281 229.054688 186.164062 229.160156 187.351562 229.160156 C 188.539062 229.160156 189.714844 229.054688 190.882812 228.839844 C 192.050781 228.625 193.191406 228.304688 194.296875 227.882812 C 195.40625 227.457031 196.46875 226.9375 197.484375 226.324219 C 198.5 225.707031 199.449219 225.003906 200.335938 224.210938 L 233.761719 194.414062 L 340.714844 289.769531 C 340.363281 289.824219 340.003906 289.863281 339.648438 289.875 Z M 35.046875 289.886719 " fill-opacity="1" fill-rule="nonzero"/></g></svg>