<svg xmlns="http://www.w3.org/2000/svg" xmlns:xlink="http://www.w3.org/1999/xlink" width="500" zoomAndPan="magnify" viewBox="0 0 375 374.999991" height="500" preserveAspectRatio="xMidYMid meet" version="1.0"><defs><clipPath id="e7c23f6e8f"><path d="M 75 254 L 300 254 L 300 352.179688 L 75 352.179688 Z M 75 254 " clip-rule="nonzero"/></clipPath></defs><path fill="#37c2cc" d="M 187.457031 178.738281 C 185.921875 178.738281 184.386719 178.660156 182.859375 178.511719 C 181.328125 178.359375 179.808594 178.136719 178.300781 177.835938 C 176.792969 177.535156 175.304688 177.164062 173.832031 176.714844 C 172.363281 176.269531 170.914062 175.753906 169.496094 175.164062 C 168.074219 174.578125 166.6875 173.921875 165.332031 173.195312 C 163.976562 172.472656 162.65625 171.683594 161.378906 170.828125 C 160.101562 169.976562 158.867188 169.0625 157.679688 168.085938 C 156.488281 167.113281 155.351562 166.082031 154.265625 164.996094 C 153.175781 163.910156 152.144531 162.769531 151.167969 161.582031 C 150.195312 160.394531 149.277344 159.164062 148.425781 157.882812 C 147.570312 156.605469 146.777344 155.289062 146.054688 153.933594 C 145.328125 152.578125 144.671875 151.191406 144.082031 149.773438 C 143.492188 148.351562 142.976562 146.90625 142.527344 145.4375 C 142.082031 143.964844 141.707031 142.476562 141.40625 140.96875 C 141.105469 139.460938 140.878906 137.941406 140.726562 136.414062 C 140.574219 134.882812 140.496094 133.347656 140.496094 131.8125 C 140.496094 130.273438 140.570312 128.742188 140.71875 127.210938 C 140.867188 125.679688 141.09375 124.160156 141.390625 122.652344 C 141.691406 121.144531 142.0625 119.65625 142.507812 118.183594 C 142.953125 116.714844 143.46875 115.265625 144.054688 113.847656 C 144.640625 112.425781 145.296875 111.035156 146.019531 109.679688 C 146.742188 108.324219 147.53125 107.003906 148.382812 105.726562 C 149.234375 104.449219 150.148438 103.214844 151.125 102.023438 C 152.097656 100.835938 153.128906 99.695312 154.210938 98.605469 C 155.296875 97.519531 156.433594 96.488281 157.621094 95.507812 C 158.808594 94.53125 160.042969 93.617188 161.320312 92.761719 C 162.597656 91.90625 163.910156 91.113281 165.265625 90.386719 C 166.621094 89.660156 168.007812 89.003906 169.429688 88.414062 C 170.847656 87.824219 172.292969 87.304688 173.761719 86.855469 C 175.234375 86.40625 176.722656 86.03125 178.230469 85.730469 C 179.738281 85.425781 181.253906 85.199219 182.785156 85.046875 C 184.316406 84.894531 185.847656 84.816406 187.386719 84.8125 C 188.921875 84.8125 190.457031 84.882812 191.988281 85.03125 C 193.515625 85.179688 195.035156 85.402344 196.542969 85.699219 C 198.050781 86 199.542969 86.367188 201.015625 86.8125 C 202.484375 87.257812 203.933594 87.769531 205.355469 88.355469 C 206.773438 88.941406 208.164062 89.597656 209.523438 90.320312 C 210.878906 91.042969 212.195312 91.828125 213.476562 92.679688 C 214.757812 93.53125 215.992188 94.445312 217.183594 95.417969 C 218.371094 96.390625 219.511719 97.417969 220.601562 98.503906 C 221.691406 99.589844 222.722656 100.722656 223.699219 101.910156 C 224.679688 103.097656 225.59375 104.328125 226.453125 105.605469 C 227.308594 106.882812 228.101562 108.195312 228.828125 109.550781 C 229.554688 110.90625 230.214844 112.292969 230.808594 113.710938 C 231.398438 115.128906 231.917969 116.574219 232.367188 118.046875 C 232.816406 119.515625 233.195312 121.003906 233.496094 122.511719 C 233.800781 124.019531 234.027344 125.535156 234.183594 127.066406 C 234.335938 128.59375 234.417969 130.128906 234.417969 131.664062 C 234.421875 133.207031 234.347656 134.742188 234.195312 136.273438 C 234.046875 137.804688 233.824219 139.328125 233.523438 140.839844 C 233.226562 142.347656 232.851562 143.839844 232.40625 145.3125 C 231.960938 146.789062 231.445312 148.238281 230.855469 149.660156 C 230.269531 151.082031 229.613281 152.472656 228.890625 153.832031 C 228.164062 155.191406 227.375 156.511719 226.519531 157.792969 C 225.667969 159.074219 224.753906 160.308594 223.777344 161.5 C 222.800781 162.691406 221.769531 163.832031 220.683594 164.921875 C 219.59375 166.011719 218.457031 167.046875 217.269531 168.023438 C 216.078125 169.003906 214.84375 169.921875 213.566406 170.777344 C 212.285156 171.632812 210.96875 172.425781 209.613281 173.152344 C 208.253906 173.882812 206.867188 174.542969 205.445312 175.132812 C 204.023438 175.722656 202.574219 176.242188 201.101562 176.691406 C 199.628906 177.140625 198.136719 177.515625 196.628906 177.820312 C 195.117188 178.121094 193.597656 178.351562 192.066406 178.503906 C 190.535156 178.65625 188.996094 178.734375 187.457031 178.738281 Z M 187.457031 95.761719 C 186.277344 95.761719 185.101562 95.816406 183.929688 95.933594 C 182.753906 96.050781 181.589844 96.222656 180.433594 96.453125 C 179.273438 96.683594 178.132812 96.96875 177.003906 97.3125 C 175.875 97.652344 174.765625 98.050781 173.675781 98.5 C 172.585938 98.953125 171.519531 99.457031 170.480469 100.011719 C 169.441406 100.570312 168.429688 101.175781 167.449219 101.828125 C 166.46875 102.484375 165.523438 103.1875 164.609375 103.933594 C 163.699219 104.683594 162.824219 105.476562 161.992188 106.308594 C 161.15625 107.144531 160.367188 108.015625 159.617188 108.929688 C 158.871094 109.839844 158.167969 110.785156 157.511719 111.765625 C 156.859375 112.746094 156.253906 113.757812 155.695312 114.796875 C 155.140625 115.839844 154.636719 116.902344 154.183594 117.992188 C 153.734375 119.082031 153.335938 120.191406 152.996094 121.320312 C 152.652344 122.449219 152.367188 123.59375 152.136719 124.75 C 151.90625 125.90625 151.734375 127.070312 151.617188 128.246094 C 151.5 129.417969 151.445312 130.597656 151.445312 131.773438 C 151.445312 132.953125 151.5 134.132812 151.617188 135.304688 C 151.734375 136.480469 151.90625 137.644531 152.136719 138.800781 C 152.367188 139.957031 152.652344 141.101562 152.996094 142.230469 C 153.335938 143.359375 153.734375 144.46875 154.183594 145.558594 C 154.636719 146.648438 155.140625 147.710938 155.695312 148.753906 C 156.253906 149.792969 156.859375 150.804688 157.511719 151.785156 C 158.167969 152.765625 158.871094 153.710938 159.617188 154.621094 C 160.367188 155.535156 161.15625 156.40625 161.992188 157.242188 C 162.824219 158.074219 163.699219 158.867188 164.609375 159.613281 C 165.523438 160.363281 166.46875 161.066406 167.449219 161.71875 C 168.429688 162.375 169.441406 162.980469 170.480469 163.539062 C 171.519531 164.09375 172.585938 164.597656 173.675781 165.046875 C 174.765625 165.5 175.875 165.898438 177.003906 166.238281 C 178.132812 166.582031 179.273438 166.867188 180.433594 167.097656 C 181.589844 167.328125 182.753906 167.5 183.929688 167.617188 C 185.101562 167.730469 186.277344 167.789062 187.457031 167.789062 C 188.636719 167.789062 189.816406 167.730469 190.988281 167.617188 C 192.164062 167.5 193.328125 167.328125 194.484375 167.097656 C 195.640625 166.867188 196.785156 166.582031 197.914062 166.238281 C 199.042969 165.898438 200.152344 165.5 201.242188 165.046875 C 202.332031 164.597656 203.394531 164.09375 204.4375 163.539062 C 205.476562 162.980469 206.484375 162.375 207.46875 161.71875 C 208.449219 161.066406 209.394531 160.363281 210.304688 159.613281 C 211.21875 158.867188 212.089844 158.074219 212.925781 157.242188 C 213.757812 156.40625 214.550781 155.535156 215.296875 154.621094 C 216.046875 153.710938 216.75 152.765625 217.402344 151.785156 C 218.058594 150.804688 218.664062 149.792969 219.21875 148.753906 C 219.777344 147.710938 220.28125 146.648438 220.730469 145.558594 C 221.183594 144.46875 221.578125 143.359375 221.921875 142.230469 C 222.265625 141.101562 222.550781 139.957031 222.78125 138.800781 C 223.011719 137.644531 223.183594 136.480469 223.300781 135.304688 C 223.414062 134.132812 223.472656 132.953125 223.472656 131.773438 C 223.472656 130.59375 223.417969 129.414062 223.304688 128.238281 C 223.1875 127.066406 223.015625 125.898438 222.789062 124.738281 C 222.558594 123.578125 222.273438 122.433594 221.933594 121.304688 C 221.589844 120.175781 221.195312 119.0625 220.742188 117.972656 C 220.292969 116.878906 219.789062 115.8125 219.234375 114.769531 C 218.679688 113.726562 218.074219 112.714844 217.417969 111.730469 C 216.765625 110.75 216.0625 109.800781 215.316406 108.886719 C 214.566406 107.972656 213.777344 107.097656 212.941406 106.257812 C 212.109375 105.421875 211.234375 104.628906 210.324219 103.878906 C 209.410156 103.128906 208.464844 102.421875 207.484375 101.765625 C 206.503906 101.109375 205.492188 100.5 204.453125 99.941406 C 203.410156 99.382812 202.34375 98.875 201.253906 98.421875 C 200.164062 97.96875 199.054688 97.570312 197.925781 97.222656 C 196.792969 96.878906 195.652344 96.589844 194.492188 96.359375 C 193.335938 96.125 192.167969 95.949219 190.992188 95.832031 C 189.816406 95.714844 188.640625 95.652344 187.457031 95.652344 Z M 187.457031 95.761719 " fill-opacity="1" fill-rule="nonzero"/><path fill="#37c2cc" d="M 187.421875 296.925781 C 186.679688 296.925781 185.964844 296.777344 185.28125 296.488281 C 184.597656 296.195312 183.996094 295.78125 183.480469 295.246094 C 179.394531 291.015625 82.953125 190.265625 82.953125 134.039062 C 82.921875 132.308594 82.929688 130.578125 82.984375 128.847656 C 83.039062 127.121094 83.136719 125.394531 83.273438 123.667969 C 83.414062 121.945312 83.597656 120.222656 83.820312 118.507812 C 84.046875 116.792969 84.3125 115.085938 84.621094 113.382812 C 84.933594 111.679688 85.285156 109.988281 85.679688 108.300781 C 86.070312 106.617188 86.507812 104.945312 86.984375 103.28125 C 87.460938 101.617188 87.980469 99.96875 88.539062 98.332031 C 89.097656 96.695312 89.695312 95.070312 90.335938 93.464844 C 90.976562 91.855469 91.65625 90.265625 92.375 88.691406 C 93.09375 87.117188 93.847656 85.5625 94.644531 84.027344 C 95.441406 82.492188 96.273438 80.976562 97.144531 79.480469 C 98.015625 77.984375 98.925781 76.515625 99.867188 75.0625 C 100.8125 73.613281 101.792969 72.1875 102.808594 70.789062 C 103.824219 69.386719 104.871094 68.011719 105.957031 66.664062 C 107.039062 65.316406 108.15625 63.992188 109.304688 62.699219 C 110.453125 61.40625 111.632812 60.144531 112.847656 58.910156 C 114.058594 57.671875 115.300781 56.46875 116.570312 55.296875 C 117.84375 54.125 119.144531 52.984375 120.472656 51.875 C 121.800781 50.765625 123.15625 49.691406 124.535156 48.648438 C 125.917969 47.609375 127.324219 46.601562 128.757812 45.632812 C 130.1875 44.660156 131.644531 43.726562 133.121094 42.828125 C 134.597656 41.925781 136.097656 41.066406 137.621094 40.242188 C 139.140625 39.417969 140.679688 38.628906 142.242188 37.882812 C 143.800781 37.136719 145.378906 36.425781 146.972656 35.757812 C 148.570312 35.085938 150.179688 34.457031 151.808594 33.867188 C 153.433594 33.277344 155.074219 32.730469 156.726562 32.222656 C 158.382812 31.714844 160.046875 31.246094 161.722656 30.820312 C 163.402344 30.398438 165.085938 30.011719 166.785156 29.671875 C 168.480469 29.332031 170.183594 29.03125 171.894531 28.773438 C 173.605469 28.515625 175.320312 28.304688 177.042969 28.132812 C 178.765625 27.960938 180.488281 27.832031 182.214844 27.746094 C 183.945312 27.660156 185.671875 27.617188 187.402344 27.617188 C 189.132812 27.617188 190.863281 27.660156 192.589844 27.746094 C 194.320312 27.832031 196.042969 27.960938 197.765625 28.132812 C 199.484375 28.304688 201.203125 28.515625 202.914062 28.773438 C 204.625 29.03125 206.328125 29.332031 208.023438 29.671875 C 209.71875 30.011719 211.40625 30.398438 213.082031 30.820312 C 214.761719 31.246094 216.425781 31.714844 218.078125 32.222656 C 219.734375 32.730469 221.375 33.277344 223 33.867188 C 224.625 34.457031 226.238281 35.085938 227.832031 35.757812 C 229.425781 36.425781 231.003906 37.136719 232.566406 37.882812 C 234.125 38.628906 235.664062 39.417969 237.1875 40.242188 C 238.707031 41.066406 240.207031 41.925781 241.6875 42.828125 C 243.164062 43.726562 244.617188 44.660156 246.050781 45.632812 C 247.480469 46.601562 248.890625 47.609375 250.269531 48.648438 C 251.652344 49.691406 253.007812 50.765625 254.335938 51.875 C 255.664062 52.984375 256.964844 54.125 258.234375 55.296875 C 259.507812 56.46875 260.75 57.671875 261.960938 58.910156 C 263.171875 60.144531 264.351562 61.40625 265.503906 62.699219 C 266.652344 63.992188 267.769531 65.316406 268.851562 66.664062 C 269.933594 68.011719 270.984375 69.386719 272 70.789062 C 273.015625 72.1875 273.992188 73.613281 274.9375 75.0625 C 275.882812 76.515625 276.789062 77.984375 277.660156 79.480469 C 278.53125 80.976562 279.367188 82.492188 280.160156 84.027344 C 280.957031 85.5625 281.714844 87.117188 282.433594 88.691406 C 283.152344 90.265625 283.832031 91.855469 284.472656 93.464844 C 285.109375 95.070312 285.710938 96.695312 286.269531 98.332031 C 286.828125 99.96875 287.347656 101.617188 287.824219 103.28125 C 288.300781 104.945312 288.734375 106.617188 289.128906 108.300781 C 289.523438 109.988281 289.875 111.679688 290.183594 113.382812 C 290.496094 115.085938 290.761719 116.792969 290.984375 118.507812 C 291.210938 120.222656 291.394531 121.945312 291.53125 123.667969 C 291.671875 125.394531 291.769531 127.121094 291.820312 128.847656 C 291.875 130.578125 291.886719 132.308594 291.855469 134.039062 C 291.855469 190.265625 195.449219 290.941406 191.324219 295.246094 C 190.820312 295.785156 190.226562 296.199219 189.546875 296.488281 C 188.867188 296.78125 188.160156 296.925781 187.421875 296.925781 Z M 187.421875 40.515625 C 185.890625 40.515625 184.363281 40.554688 182.832031 40.632812 C 181.304688 40.707031 179.78125 40.820312 178.257812 40.972656 C 176.734375 41.125 175.214844 41.3125 173.703125 41.539062 C 172.1875 41.761719 170.683594 42.027344 169.179688 42.324219 C 167.679688 42.625 166.1875 42.960938 164.703125 43.332031 C 163.21875 43.707031 161.746094 44.113281 160.28125 44.558594 C 158.816406 45.003906 157.367188 45.484375 155.925781 46 C 154.484375 46.515625 153.058594 47.066406 151.644531 47.652344 C 150.230469 48.242188 148.832031 48.859375 147.449219 49.515625 C 146.066406 50.171875 144.699219 50.859375 143.351562 51.582031 C 142 52.300781 140.671875 53.054688 139.359375 53.84375 C 138.046875 54.628906 136.753906 55.449219 135.480469 56.300781 C 134.207031 57.148438 132.957031 58.03125 131.730469 58.941406 C 130.5 59.855469 129.292969 60.796875 128.113281 61.765625 C 126.929688 62.738281 125.769531 63.738281 124.636719 64.765625 C 123.503906 65.792969 122.394531 66.847656 121.3125 67.929688 C 120.230469 69.011719 119.175781 70.117188 118.148438 71.253906 C 117.121094 72.386719 116.121094 73.542969 115.152344 74.726562 C 114.179688 75.910156 113.238281 77.117188 112.328125 78.34375 C 111.414062 79.574219 110.535156 80.824219 109.683594 82.097656 C 108.832031 83.367188 108.015625 84.660156 107.226562 85.972656 C 106.441406 87.285156 105.6875 88.617188 104.964844 89.964844 C 104.242188 91.316406 103.554688 92.683594 102.898438 94.066406 C 102.246094 95.449219 101.625 96.847656 101.039062 98.257812 C 100.453125 99.671875 99.902344 101.101562 99.386719 102.539062 C 98.867188 103.980469 98.386719 105.433594 97.941406 106.898438 C 97.5 108.363281 97.089844 109.835938 96.71875 111.320312 C 96.34375 112.804688 96.007812 114.296875 95.707031 115.796875 C 95.410156 117.296875 95.148438 118.804688 94.921875 120.320312 C 94.695312 121.832031 94.507812 123.351562 94.355469 124.875 C 94.207031 126.394531 94.09375 127.921875 94.015625 129.449219 C 93.941406 130.976562 93.902344 132.507812 93.898438 134.039062 C 93.898438 179.832031 169.140625 263.792969 187.386719 283.644531 C 205.628906 263.976562 280.90625 180.015625 280.90625 134.21875 C 280.910156 132.6875 280.871094 131.15625 280.796875 129.628906 C 280.722656 128.097656 280.613281 126.570312 280.464844 125.046875 C 280.316406 123.523438 280.128906 122.003906 279.90625 120.488281 C 279.683594 118.972656 279.421875 117.464844 279.125 115.960938 C 278.828125 114.457031 278.492188 112.964844 278.121094 111.476562 C 277.75 109.992188 277.34375 108.515625 276.902344 107.050781 C 276.457031 105.585938 275.976562 104.128906 275.464844 102.6875 C 274.949219 101.246094 274.398438 99.816406 273.816406 98.398438 C 273.230469 96.984375 272.609375 95.585938 271.957031 94.199219 C 271.304688 92.8125 270.617188 91.445312 269.898438 90.09375 C 269.175781 88.742188 268.421875 87.410156 267.636719 86.09375 C 266.851562 84.78125 266.03125 83.484375 265.183594 82.210938 C 264.332031 80.9375 263.453125 79.683594 262.542969 78.453125 C 261.632812 77.222656 260.691406 76.015625 259.71875 74.828125 C 258.75 73.644531 257.75 72.484375 256.722656 71.347656 C 255.695312 70.210938 254.640625 69.101562 253.5625 68.015625 C 252.480469 66.933594 251.371094 65.875 250.238281 64.847656 C 249.105469 63.816406 247.945312 62.816406 246.761719 61.839844 C 245.582031 60.867188 244.375 59.925781 243.144531 59.011719 C 241.917969 58.097656 240.664062 57.214844 239.394531 56.363281 C 238.121094 55.507812 236.828125 54.6875 235.515625 53.898438 C 234.203125 53.109375 232.871094 52.351562 231.523438 51.628906 C 230.171875 50.90625 228.804688 50.214844 227.421875 49.558594 C 226.039062 48.902344 224.640625 48.28125 223.226562 47.691406 C 221.8125 47.105469 220.382812 46.550781 218.941406 46.03125 C 217.5 45.515625 216.046875 45.03125 214.582031 44.585938 C 213.117188 44.140625 211.640625 43.730469 210.15625 43.355469 C 208.671875 42.980469 207.179688 42.640625 205.675781 42.339844 C 204.175781 42.039062 202.667969 41.777344 201.152344 41.550781 C 199.636719 41.324219 198.117188 41.132812 196.59375 40.980469 C 195.070312 40.828125 193.542969 40.714844 192.011719 40.636719 C 190.484375 40.558594 188.953125 40.519531 187.421875 40.515625 Z M 187.421875 40.515625 " fill-opacity="1" fill-rule="nonzero"/><g clip-path="url(#e7c23f6e8f)"><path fill="#37c2cc" d="M 187.421875 352.097656 C 124.550781 352.097656 75.289062 328.34375 75.289062 298.3125 C 75.289062 280.613281 92.003906 264.667969 121.121094 254.523438 C 121.460938 254.40625 121.808594 254.320312 122.167969 254.269531 C 122.523438 254.21875 122.882812 254.203125 123.242188 254.222656 C 123.601562 254.242188 123.957031 254.296875 124.304688 254.386719 C 124.65625 254.476562 124.992188 254.597656 125.316406 254.753906 C 125.644531 254.910156 125.949219 255.097656 126.238281 255.3125 C 126.527344 255.527344 126.792969 255.769531 127.03125 256.039062 C 127.273438 256.308594 127.484375 256.597656 127.667969 256.90625 C 127.851562 257.21875 128.003906 257.542969 128.125 257.882812 C 128.242188 258.222656 128.328125 258.570312 128.378906 258.929688 C 128.433594 259.285156 128.449219 259.644531 128.429688 260.003906 C 128.410156 260.363281 128.355469 260.71875 128.265625 261.066406 C 128.175781 261.417969 128.054688 261.753906 127.898438 262.078125 C 127.742188 262.40625 127.554688 262.710938 127.339844 263 C 127.125 263.289062 126.882812 263.554688 126.613281 263.796875 C 126.34375 264.035156 126.054688 264.25 125.746094 264.433594 C 125.433594 264.617188 125.109375 264.769531 124.769531 264.886719 C 100.6875 273.171875 86.308594 285.652344 86.308594 298.203125 C 86.308594 318.890625 126.960938 341.039062 187.496094 341.039062 C 248.03125 341.039062 288.714844 318.890625 288.714844 298.203125 C 288.714844 285.722656 274.484375 273.316406 250.65625 265.035156 C 250.316406 264.914062 249.992188 264.761719 249.683594 264.578125 C 249.371094 264.394531 249.082031 264.183594 248.8125 263.941406 C 248.546875 263.699219 248.304688 263.4375 248.085938 263.148438 C 247.871094 262.859375 247.683594 262.550781 247.527344 262.226562 C 247.371094 261.902344 247.25 261.5625 247.160156 261.214844 C 247.070312 260.863281 247.015625 260.511719 246.996094 260.148438 C 246.976562 259.789062 246.992188 259.429688 247.042969 259.074219 C 247.09375 258.71875 247.179688 258.367188 247.300781 258.027344 C 247.421875 257.6875 247.570312 257.363281 247.757812 257.050781 C 247.941406 256.742188 248.152344 256.453125 248.394531 256.183594 C 248.632812 255.914062 248.898438 255.671875 249.1875 255.457031 C 249.476562 255.242188 249.78125 255.054688 250.109375 254.898438 C 250.433594 254.742188 250.769531 254.621094 251.121094 254.53125 C 251.46875 254.441406 251.824219 254.386719 252.183594 254.367188 C 252.546875 254.347656 252.902344 254.363281 253.261719 254.414062 C 253.617188 254.464844 253.964844 254.550781 254.304688 254.671875 C 283.167969 264.707031 299.734375 280.578125 299.734375 298.203125 C 299.589844 328.34375 250.328125 352.097656 187.421875 352.097656 Z M 187.421875 352.097656 " fill-opacity="1" fill-rule="nonzero"/></g></svg>