<svg xmlns="http://www.w3.org/2000/svg" xmlns:xlink="http://www.w3.org/1999/xlink" width="500" zoomAndPan="magnify" viewBox="0 0 375 374.999991" height="500" preserveAspectRatio="xMidYMid meet" version="1.0"><path fill="#37c2cc" d="M 307.308594 245.742188 C 307.28125 245.722656 307.28125 245.6875 307.261719 245.667969 C 306.058594 246.703125 304.808594 247.707031 303.484375 248.613281 C 303.183594 248.839844 302.878906 248.949219 302.578125 248.996094 C 292.402344 252.917969 283.269531 252.03125 275.851562 242.960938 C 274.375 241.167969 273.097656 239.28125 271.953125 237.316406 C 274.246094 244.800781 278.605469 251.140625 285.789062 252.710938 C 294.34375 254.585938 300.574219 253.679688 306.527344 246.785156 C 306.828125 246.441406 307.054688 246.105469 307.308594 245.742188 Z M 322.394531 202.542969 C 322.691406 194.605469 322.039062 184.050781 315.652344 178.269531 C 308.148438 171.464844 299.988281 167.652344 290.285156 173.089844 C 276.546875 180.746094 270.222656 199.199219 270.613281 214.4375 C 270.804688 222.132812 272.089844 230.457031 276.648438 236.898438 C 278.894531 240.070312 281.703125 243.359375 285.21875 245.171875 C 291.660156 248.496094 295.457031 247.171875 301.328125 244.835938 C 314.347656 235.820312 321.8125 218.109375 322.394531 202.542969 Z M 326.660156 195.160156 C 327.4375 208.1875 324.242188 222.449219 317.164062 233.917969 C 317.320312 234.40625 317.253906 234.976562 316.867188 235.558594 C 314.445312 239.210938 314.519531 244.15625 311.566406 247.570312 C 308.496094 251.125 305.675781 254.585938 301.652344 257.078125 C 295.875 260.664062 285.371094 257.230469 279.554688 255.265625 C 266.273438 250.789062 264.445312 225.980469 266.292969 214.683594 C 266.308594 214.628906 266.328125 214.59375 266.347656 214.539062 C 266.292969 196.210938 273.296875 176.429688 290.375 168.242188 C 308.675781 159.453125 325.628906 177.644531 326.660156 195.160156 " fill-opacity="1" fill-rule="nonzero"/><path fill="#37c2cc" d="M 194.472656 181.234375 C 194.589844 167.769531 197.550781 155.132812 200.0625 141.984375 C 191.417969 140.886719 182.746094 139.980469 173.886719 139.980469 C 167.898438 139.980469 156.429688 138.886719 152.859375 145.507812 C 152.40625 146.34375 151.988281 147.195312 151.589844 148.0625 C 151.589844 148.289062 151.582031 148.515625 151.480469 148.78125 C 150.539062 151.707031 149.324219 156.074219 148.574219 160.777344 C 148.628906 163.003906 149.042969 165.25 149.949219 167.445312 C 153.085938 175.089844 157.453125 176.476562 165.253906 177.5625 C 171.613281 178.453125 178.082031 179.25 184.441406 180.066406 C 187.785156 180.519531 191.128906 180.871094 194.472656 181.234375 Z M 210.417969 143.324219 C 208.398438 143.054688 206.394531 142.792969 204.375 142.527344 C 201.890625 155.585938 198.875 168.257812 198.820312 181.632812 C 200.304688 181.757812 201.820312 181.914062 203.316406 182.046875 C 203.332031 182.011719 203.332031 181.96875 203.332031 181.929688 C 205.523438 175.019531 205.207031 166.953125 206.640625 159.734375 C 207.789062 154.015625 208.867188 148.816406 210.417969 143.324219 Z M 240.570312 252.410156 C 237.84375 246.574219 234.617188 240.117188 230.683594 235.050781 C 226.816406 230.058594 223.410156 223.664062 219.089844 219.160156 C 214.785156 214.683594 209.902344 211.421875 204.953125 207.699219 C 203.015625 206.222656 200.914062 205.503906 198.800781 204.863281 C 206.242188 214.9375 215.917969 223.789062 223.925781 233.121094 C 229.515625 239.617188 235.179688 245.878906 240.570312 252.410156 Z M 234.863281 254.621094 C 236.410156 255.808594 238.140625 257.183594 239.9375 258.382812 C 232.578125 248.6875 224.363281 238.675781 215.535156 230.539062 C 210.074219 225.472656 206.277344 219.574219 201.367188 213.96875 C 200.351562 212.800781 199.308594 211.628906 198.25 210.453125 C 203.261719 221.105469 212.554688 231.425781 219.875 239.355469 C 224.75 244.644531 229.152344 250.234375 234.863281 254.621094 Z M 241.53125 264.316406 C 237.335938 262.765625 233.25 258.816406 230.160156 256.488281 C 224.242188 252.046875 219.894531 245.535156 214.910156 240.097656 C 206.015625 230.421875 194.90625 217.609375 191.492188 204.597656 C 182.476562 214.023438 176.949219 228.347656 180.457031 240.1875 C 182.230469 246.195312 187.875 258.226562 192.796875 262.214844 C 200.253906 268.238281 213.363281 268.65625 222.429688 268.765625 C 229.308594 268.863281 235.957031 267.710938 241.53125 264.316406 Z M 249.277344 256.957031 C 255.167969 248.40625 256.316406 237.824219 256.191406 227.738281 C 255.945312 208.324219 239.980469 196.953125 222.484375 194.777344 C 218.5 194.796875 214.511719 194.796875 210.554688 194.695312 C 208.316406 194.96875 206.105469 195.386719 203.957031 195.945312 C 201.59375 196.851562 199.292969 198.15625 197.097656 199.726562 C 199.933594 200.695312 203.089844 200.859375 205.542969 202.714844 C 208.660156 205.070312 211.777344 207.433594 215.03125 209.601562 C 222.378906 214.519531 225.457031 222.359375 231.210938 228.679688 C 236.277344 234.253906 240.351562 241.699219 243.515625 248.476562 C 245.117188 251.9375 247.191406 255.410156 247.554688 259.152344 C 248.152344 258.472656 248.722656 257.738281 249.277344 256.957031 Z M 260.546875 237.613281 C 260.546875 236.789062 260.511719 236.03125 260.492188 235.257812 C 260.421875 235.277344 260.304688 235.257812 260.230469 235.277344 C 258.402344 254.9375 248.097656 273.476562 225.265625 273.148438 C 220.636719 273.09375 214.386719 273.148438 208.261719 272.453125 C 208.261719 272.660156 208.261719 272.851562 208.261719 272.976562 C 212.339844 274.542969 216.6875 275.414062 221.164062 275.414062 C 230.097656 275.414062 243.117188 272.851562 249.667969 265.957031 C 256.5625 258.699219 260.546875 247.382812 260.546875 237.613281 Z M 263.992188 185.410156 C 263.910156 185.273438 263.890625 185.121094 263.835938 184.992188 C 262.214844 186.667969 260.167969 187.8125 257.621094 188.074219 C 257.53125 188.109375 257.46875 188.144531 257.375 188.144531 C 236.59375 188.144531 217.765625 188.371094 198.214844 186.144531 C 189.226562 185.121094 180.085938 183.898438 171.105469 182.726562 C 164.945312 181.914062 158.320312 181.6875 152.648438 179.003906 C 151.328125 178.359375 150.195312 177.472656 149.214844 176.414062 C 149.132812 176.585938 149.042969 176.738281 148.917969 176.894531 C 150.140625 180.625 152.496094 183.5 156.617188 184.59375 C 162.796875 186.214844 169.292969 184.539062 175.472656 186.089844 C 181.722656 187.65625 189.179688 188.371094 195.632812 189.242188 C 200.757812 189.921875 205.996094 190.203125 211.222656 190.320312 C 214.964844 189.976562 218.878906 190.03125 222.765625 190.449219 C 229.171875 190.621094 235.769531 191.660156 242.039062 191.507812 C 250.410156 191.28125 259.453125 193.4375 263.992188 185.410156 Z M 257.078125 183.796875 C 263.683594 183.460938 265.910156 170.632812 265.703125 165.875 C 265.441406 159.261719 260.71875 151.089844 253.542969 149.558594 C 243.867188 147.492188 233.539062 145.890625 223.691406 144.910156 C 220.710938 144.601562 217.746094 144.25 214.785156 143.871094 C 212.945312 150.3125 211.777344 156.636719 210.363281 163.265625 C 208.996094 169.617188 209.492188 176.132812 207.71875 182.347656 C 224.089844 183.515625 240.488281 183.796875 257.078125 183.796875 Z M 269.238281 159.261719 C 273.484375 169.761719 272.789062 195.703125 256.28125 195.703125 C 250.84375 195.703125 245.460938 195.441406 240.089844 195.175781 C 248.136719 198.9375 254.820312 204.824219 258.109375 212.972656 C 264.082031 223.4375 265.351562 231.570312 264.898438 243.910156 C 264.597656 252.691406 257.429688 265.257812 250.707031 270.675781 C 233.105469 284.84375 206.105469 282.164062 190.984375 266.542969 C 190.765625 266.308594 190.640625 266.082031 190.53125 265.855469 C 183.691406 259.550781 178.136719 248.195312 175.789062 239.597656 C 171.179688 222.757812 183.363281 202.296875 198.269531 193.910156 C 197.6875 193.835938 197.097656 193.773438 196.519531 193.699219 C 187.207031 192.449219 177.394531 189.730469 167.972656 189.730469 C 161.601562 189.730469 153.519531 190.265625 148.972656 184.730469 C 143.191406 177.664062 142.847656 168.085938 144.414062 159.035156 C 144.585938 155.292969 145.300781 151.761719 146.34375 149.195312 C 148.082031 144.984375 149.859375 139.09375 154.789062 137.597656 C 161.285156 135.652344 167.15625 135.632812 173.867188 135.632812 C 187.222656 135.632812 200.105469 136.992188 213.246094 139.183594 C 220.5 140.390625 228.023438 141.449219 235.332031 142.246094 C 241.203125 142.890625 249.085938 143.152344 254.695312 145.363281 C 261.210938 147.910156 266.328125 152.503906 268.691406 158.472656 C 268.917969 158.683594 269.089844 158.945312 269.238281 159.261719 " fill-opacity="1" fill-rule="nonzero"/><path fill="#37c2cc" d="M 151.117188 231.652344 C 160.222656 227.285156 164.535156 215.570312 158.847656 206.601562 C 153.992188 198.957031 141.941406 194.796875 133.914062 198.15625 C 126.429688 200.914062 119.355469 207.714844 118.484375 215.234375 C 118.519531 215.515625 118.519531 215.816406 118.421875 216.160156 C 118.402344 216.214844 118.402344 216.269531 118.382812 216.332031 C 118.277344 219.867188 119.554688 223.527344 122.84375 226.96875 C 125.503906 229.722656 129.800781 234.6875 133.597656 235.523438 C 140.011719 236.917969 145.546875 234.316406 151.117188 231.652344 Z M 146.191406 240.503906 C 153.257812 237.578125 169.410156 231.34375 165.007812 220.300781 C 163.394531 228.554688 157.296875 234.199219 147.613281 237.921875 C 140.546875 240.640625 134.347656 241.566406 127.753906 237.28125 C 125.714844 235.957031 123.429688 234.125 121.328125 232.023438 C 121.257812 232.140625 121.183594 232.25 121.085938 232.351562 C 122.679688 234.6875 124.808594 236.671875 127.507812 237.976562 C 133.34375 240.8125 139.765625 243.167969 146.191406 240.503906 Z M 160.269531 200.929688 C 165.796875 205.804688 171.085938 218.21875 169.539062 224.96875 C 167.027344 235.957031 157.679688 241.566406 147.367188 244.699219 C 128.832031 250.335938 109.488281 234.804688 114.191406 215.234375 C 114.914062 205.296875 123.222656 197.496094 132.761719 193.964844 C 141.070312 190.492188 153.484375 193.71875 160.269531 200.929688 " fill-opacity="1" fill-rule="nonzero"/><path fill="#37c2cc" d="M 126.222656 153.617188 C 126.238281 153.480469 126.304688 153.375 126.355469 153.238281 C 115.304688 145.15625 102.539062 138.785156 88.710938 138.453125 C 88.675781 138.488281 88.65625 138.542969 88.613281 138.597656 C 88.277344 139.03125 87.859375 139.292969 87.425781 139.429688 C 82.289062 148.363281 79.644531 161.28125 76.871094 170.976562 C 74.941406 177.753906 70.65625 183.671875 70.972656 191.019531 C 71.253906 198.101562 78.355469 203.867188 85.160156 203.957031 C 92.417969 204.074219 105.257812 204.863281 109.117188 197.160156 C 111.753906 191.851562 114.082031 186.488281 116.574219 181.097656 C 120.695312 172.300781 122.714844 162.585938 126.222656 153.617188 Z M 138.789062 119.289062 C 140.960938 112.71875 143.191406 100.425781 139.222656 93.902344 C 134.574219 86.253906 125.832031 83.367188 117.234375 85.121094 C 106.070312 87.40625 101.042969 102.464844 98.152344 111.949219 C 96.042969 118.953125 94.601562 127.363281 91.203125 134.21875 C 104.683594 135.164062 117.214844 141.261719 128.113281 149.179688 C 129.820312 144.339844 130.488281 139.167969 132.328125 134.347656 C 134.292969 129.226562 137.066406 124.507812 138.789062 119.289062 Z M 129.511719 81.253906 C 142.792969 86.5 146.832031 96.4375 145.265625 110.417969 C 144.34375 118.589844 140.84375 125.566406 137.621094 133.007812 C 134.484375 140.199219 133.914062 148.15625 130.269531 155.066406 C 124.671875 168.957031 120.875 183.328125 114.117188 196.835938 C 109.605469 205.867188 105.554688 205.886719 96.457031 207.90625 C 91.238281 209.074219 83.972656 209.175781 78.925781 207.28125 C 66.984375 202.804688 64.003906 190.355469 68.796875 179.53125 C 72.3125 171.636719 75.085938 163.121094 77.566406 154.867188 C 79.542969 148.253906 80.792969 141.660156 84.554688 135.769531 C 84.761719 135.425781 85.042969 135.199219 85.332031 135.027344 C 85.53125 134.691406 85.839844 134.402344 86.238281 134.238281 C 90.28125 127.34375 91.464844 118.183594 93.984375 110.789062 C 96.023438 104.746094 97.855469 99.3125 101.144531 93.902344 C 107.085938 84.125 117.304688 76.433594 129.511719 81.253906 " fill-opacity="1" fill-rule="nonzero"/><path fill="#37c2cc" d="M 113.589844 284.148438 C 113.527344 284.03125 113.492188 283.921875 113.4375 283.785156 C 96.152344 296.878906 63.570312 277.308594 53.042969 253.679688 C 53.59375 259.566406 55.542969 265.195312 59.828125 269.597656 C 64.324219 274.226562 69.578125 278.140625 74.921875 281.710938 C 81.644531 286.1875 91.691406 291.949219 99.972656 291.605469 C 105.445312 291.359375 110.285156 288.378906 113.589844 284.148438 Z M 117.984375 269.144531 C 117.914062 268.582031 117.839844 268.03125 117.703125 267.46875 C 117.53125 266.742188 117.703125 266.144531 118.066406 265.691406 C 117.667969 251.523438 109.832031 237.335938 99.648438 227.8125 C 88.695312 217.539062 63.644531 208.242188 56.332031 228.472656 C 50.0625 245.851562 62.382812 265.59375 76.734375 275.433594 C 83.25 279.890625 91.078125 283.976562 99.230469 283.539062 C 109.777344 282.988281 114.988281 278.820312 117.984375 269.144531 Z M 94.601562 218.125 C 110.511719 229.289062 123.539062 249.066406 122.371094 269.070312 C 122.390625 269.21875 122.390625 269.371094 122.371094 269.542969 C 122.996094 277.96875 119.0625 287.808594 111.753906 292.375 C 101.804688 298.617188 91.9375 295.273438 82.207031 290.488281 C 71.6875 285.296875 61.414062 278.785156 54.148438 269.351562 C 47.488281 260.78125 47.640625 249.257812 49.707031 239 C 49.707031 235.855469 50.199219 232.75 51.277344 229.722656 C 57.863281 211.457031 79.035156 207.207031 94.601562 218.125 " fill-opacity="1" fill-rule="nonzero"/></svg>