<svg xmlns="http://www.w3.org/2000/svg" xmlns:xlink="http://www.w3.org/1999/xlink" width="500" zoomAndPan="magnify" viewBox="0 0 375 374.999991" height="500" preserveAspectRatio="xMidYMid meet" version="1.0"><defs><clipPath id="84b5e5069f"><path d="M 36 38 L 341.5625 38 L 341.5625 337 L 36 337 Z M 36 38 " clip-rule="nonzero"/></clipPath></defs><g clip-path="url(#84b5e5069f)"><path fill="#37c2cc" d="M 100.90625 294.40625 C 93.226562 287.789062 85.863281 280.832031 79.066406 273.390625 C 72.707031 282.945312 66.355469 292.492188 59.976562 302.046875 C 64.53125 306.183594 69.214844 310.261719 73.191406 314.945312 C 83.332031 309.339844 92.589844 302.511719 100.90625 294.40625 Z M 82.410156 330.59375 C 85.058594 330.394531 85.269531 329.242188 83.027344 327.140625 C 82.441406 324.332031 79.820312 320.980469 77.875 318.261719 C 76.65625 318.945312 75.433594 319.628906 74.195312 320.304688 C 73.75 320.550781 73.3125 320.632812 72.90625 320.621094 C 72.121094 320.859375 71.277344 320.699219 70.59375 319.835938 C 65.890625 313.984375 59.996094 309.113281 54.507812 304.03125 C 53.019531 302.652344 53.785156 300.796875 55.144531 300.023438 C 55.730469 299.160156 56.296875 298.277344 56.882812 297.402344 C 54.867188 295.46875 43.019531 286.308594 42.1875 294.765625 C 41.988281 296.898438 45.945312 300.945312 47.078125 302.414062 C 51.234375 307.730469 55.917969 312.605469 61.066406 316.960938 C 66.167969 321.277344 73.382812 327.4375 79.941406 329.402344 C 80.773438 329.800781 81.578125 330.195312 82.410156 330.59375 Z M 89.675781 241.820312 C 91.3125 240.289062 92.898438 238.683594 94.476562 237.085938 C 92.621094 236.125 90.882812 235.003906 89.296875 233.671875 C 89.367188 236.242188 89.464844 238.800781 89.625 241.371094 C 89.632812 241.53125 89.675781 241.671875 89.675781 241.820312 Z M 99.835938 231.769531 C 102.007812 229.664062 104.160156 227.5625 106.324219 225.457031 C 99.597656 223.980469 93.464844 221.328125 88.96875 216.726562 C 89.039062 220.398438 89.089844 224.066406 89.15625 227.730469 C 91.351562 230.488281 94.1875 232.550781 97.441406 234.121094 C 98.246094 233.335938 99.039062 232.542969 99.835938 231.769531 Z M 108.40625 223.421875 C 110.054688 221.824219 111.703125 220.238281 113.339844 218.640625 C 105.539062 217.984375 98.007812 215.734375 90.945312 211.855469 C 90.488281 211.597656 90.328125 211.21875 90.328125 210.820312 C 90.210938 210.632812 90.140625 210.40625 90.171875 210.117188 C 90.914062 203.9375 91.171875 197.734375 90.945312 191.492188 C 90.945312 191.445312 90.964844 191.425781 90.964844 191.394531 C 90 190.789062 89.070312 190.132812 88.195312 189.449219 C 88.402344 196.1875 88.59375 202.933594 88.8125 209.679688 C 88.851562 210.683594 88.851562 211.683594 88.878906 212.667969 C 93.226562 218.738281 100.410156 221.855469 108.40625 223.421875 Z M 115.820312 216.230469 C 117.921875 214.175781 120.015625 212.140625 122.109375 210.117188 C 121.949219 206.117188 121.929688 202.121094 122.109375 198.132812 C 112.304688 197.902344 101.820312 196.890625 93.5625 192.804688 C 93.703125 198.519531 93.445312 204.203125 92.78125 209.890625 C 100.082031 213.796875 107.773438 215.902344 115.820312 216.230469 Z M 137.417969 306.273438 C 133.816406 301.5 130.046875 296.847656 126.089844 292.351562 C 125.652344 291.875 125.445312 291.339844 125.414062 290.824219 C 125.414062 290.804688 125.414062 290.785156 125.394531 290.785156 C 106.96875 283.292969 92.699219 269.203125 84.902344 250.878906 C 84.425781 250.796875 83.957031 250.550781 83.53125 250.074219 C 78.699219 244.695312 73.105469 240.371094 66.785156 237.035156 C 83.09375 266.605469 107.5625 290.578125 137.417969 306.273438 Z M 133.003906 199.492188 C 133.003906 199.042969 133.003906 198.597656 133.003906 198.140625 C 130.375 198.160156 127.578125 198.191406 124.691406 198.160156 C 124.550781 201.347656 124.519531 204.519531 124.601562 207.707031 C 127.398438 204.96875 130.214844 202.230469 133.003906 199.492188 Z M 135.523438 315.292969 C 137.074219 314.160156 138.519531 312.902344 139.859375 311.542969 C 107.296875 295.558594 80.566406 269.910156 63.222656 238.066406 C 62.527344 238.792969 61.871094 239.546875 61.304688 240.371094 C 78.789062 271.824219 107.296875 293.96875 135.523438 315.292969 Z M 137.003906 195.582031 C 138.144531 194.480469 139.273438 193.359375 140.417969 192.238281 C 139.246094 192.238281 138.074219 192.21875 136.914062 192.21875 C 122.347656 192.1875 100.488281 193.507812 88.007812 183.367188 C 88.035156 184.230469 88.054688 185.09375 88.085938 185.945312 C 99.21875 196.992188 121.761719 195.839844 137.003906 195.582031 Z M 141.101562 108.433594 C 153.015625 108.703125 171.105469 110.636719 181.523438 102.988281 C 154.773438 96.667969 127.378906 96.785156 100.675781 103.335938 C 113.40625 108.085938 127.667969 108.117188 141.101562 108.433594 Z M 159.476562 173.582031 C 160.171875 172.898438 160.875 172.222656 161.582031 171.550781 C 153.453125 172.054688 145.289062 171.847656 137.828125 171.828125 C 122.8125 171.777344 100.0625 173.238281 87.429688 162.421875 C 87.589844 168.246094 87.730469 174.050781 87.898438 179.855469 C 99.734375 191.859375 124.878906 189.6875 140.070312 189.636719 C 141.070312 189.636719 142.0625 189.636719 143.085938 189.636719 C 148.542969 184.28125 154.019531 178.941406 159.476562 173.582031 Z M 164.527344 168.691406 C 166.402344 166.886719 168.277344 165.089844 170.152344 163.304688 C 159.308594 164.832031 147.90625 164.476562 137.828125 164.433594 C 122.746094 164.40625 99.8125 165.875 87.242188 154.878906 C 87.28125 156.191406 87.3125 157.5 87.351562 158.808594 C 94.308594 166.261719 105.726562 167.402344 115.402344 168.335938 C 123.925781 169.160156 132.488281 169.257812 141.050781 169.246094 C 148.433594 169.207031 156.53125 169.347656 164.527344 168.691406 Z M 180.113281 100.011719 C 178.089844 96.566406 176.980469 92.925781 176.355469 89.015625 C 165.835938 90.367188 154.484375 90.019531 144.265625 90.039062 C 131.199219 90.066406 118.179688 89.007812 105.222656 87.351562 C 104.648438 92.222656 103.21875 96.6875 100.765625 100.664062 C 126.960938 94.363281 153.859375 94.136719 180.113281 100.011719 Z M 162.542969 62.535156 C 165.578125 62.257812 187.238281 59.289062 186.953125 53.21875 C 185.722656 51.730469 184.261719 50.4375 182.535156 49.476562 C 173.535156 45.84375 163.714844 45.875 154.136719 45.707031 C 144.515625 45.527344 134.851562 45.410156 125.253906 46.402344 C 116.40625 47.292969 103.882812 48.59375 97.699219 55.894531 C 97.820312 62.890625 137.984375 62.792969 142.3125 62.871094 C 149.058594 63.011719 155.816406 63.121094 162.542969 62.535156 Z M 190.878906 74.332031 C 192.152344 69.320312 191.914062 63.40625 189.949219 58.386719 C 181.664062 65.699219 152.757812 67.148438 146.996094 67.097656 C 140.703125 67.027344 103.792969 69.230469 95.289062 60.3125 C 94.308594 63.84375 95.121094 67.574219 95.835938 71.59375 C 97.027344 78.121094 99.902344 81.496094 106.730469 82.21875 C 125.234375 84.195312 143.285156 85.335938 161.949219 84.351562 C 171.273438 83.867188 187.933594 85.871094 190.878906 74.332031 Z M 191.773438 235.308594 C 191.773438 234.398438 191.804688 233.484375 191.824219 232.570312 C 189.53125 234.277344 187.089844 235.707031 184.519531 236.898438 C 176.085938 244.953125 167.683594 253.019531 159.339844 261.167969 C 166.679688 260.632812 173.804688 259.46875 180.492188 256.492188 C 180.699219 256.136719 181.027344 255.789062 181.503906 255.550781 C 190.582031 250.738281 191.683594 244.945312 191.773438 235.308594 Z M 194.511719 124.757812 C 194.394531 122.96875 194.234375 121.175781 194.027344 119.398438 C 193.203125 112.273438 187.894531 109.207031 183.585938 104.644531 C 173.339844 112.550781 156.3125 111.242188 144.355469 111.0625 C 128.808594 110.84375 112.238281 110.914062 97.652344 104.882812 C 96.925781 105.675781 96.164062 106.46875 95.339844 107.222656 C 90.042969 112.085938 87.660156 115.160156 87.105469 122.652344 C 87.054688 123.226562 87.042969 123.8125 87.003906 124.378906 C 93.652344 132.613281 105.570312 133.746094 115.402344 134.699219 C 123.925781 135.523438 132.488281 135.621094 141.050781 135.589844 C 158.535156 135.542969 180.253906 136.574219 194.511719 124.757812 Z M 194.820312 134.90625 C 194.820312 133.199219 194.800781 131.472656 194.730469 129.746094 C 178.882812 140.878906 156.261719 139.796875 137.828125 139.738281 C 122.46875 139.6875 99.597656 141.089844 86.816406 130.023438 C 86.777344 131.59375 86.777344 133.179688 86.796875 134.75 C 93.691406 142.734375 105.46875 143.90625 115.402344 144.878906 C 123.925781 145.683594 132.488281 145.800781 141.050781 145.773438 C 158.683594 145.722656 180.394531 146.683594 194.820312 134.90625 Z M 194.800781 139.015625 C 194.800781 138.746094 194.820312 138.449219 194.820312 138.171875 C 179.113281 149.589844 156.261719 148.421875 137.828125 148.371094 C 122.574219 148.320312 99.339844 149.839844 86.855469 138.449219 C 86.867188 139.214844 86.867188 139.988281 86.886719 140.742188 C 86.964844 144.234375 87.074219 147.738281 87.164062 151.25 C 94.097656 158.859375 105.640625 160.011719 115.402344 160.960938 C 123.925781 161.765625 132.488281 161.894531 141.050781 161.855469 C 151.210938 161.824219 162.75 162.132812 173.46875 160.148438 C 180.71875 153.222656 187.933594 146.269531 194.800781 139.015625 Z M 218.722656 196.902344 C 218.277344 196.246094 218.066406 195.53125 218.058594 194.789062 C 204.257812 184.417969 192.714844 171.796875 183.71875 157.054688 C 164.902344 175.566406 146.042969 194.011719 127.128906 212.4375 C 114.480469 224.792969 102.226562 238.773438 88.382812 249.867188 C 95.65625 266.914062 109.140625 280.207031 126.238281 287.234375 C 130.890625 282.382812 135.882812 277.796875 140.695312 273.09375 C 160.488281 253.804688 180.332031 234.535156 200.089844 215.21875 C 206.320312 209.117188 212.519531 203.023438 218.722656 196.902344 Z M 221.3125 188.230469 C 223.1875 186.273438 225.628906 185.101562 228.148438 185.101562 C 220.726562 170.28125 207.859375 160.050781 194.492188 150.554688 C 194.265625 151.972656 193.628906 153.3125 192.527344 154.34375 C 191.117188 155.652344 189.253906 156.257812 187.417969 156.140625 C 195.851562 169.695312 206.476562 181.421875 219.140625 191.097656 C 219.765625 189.996094 220.546875 189.003906 221.3125 188.230469 Z M 231.710938 184.25 C 233.488281 182.574219 235.222656 180.867188 236.652344 179.359375 C 221.757812 169.207031 209.476562 156.171875 200.316406 140.671875 C 198.492188 142.585938 196.625 144.460938 194.730469 146.316406 C 209.40625 156.65625 223.863281 167.757812 231.710938 184.25 Z M 234.152344 161.152344 C 234.886719 160.445312 235.429688 159.8125 235.925781 159.066406 C 229.785156 155.496094 224.636719 150.484375 220.847656 144.492188 C 220.222656 145.046875 219.605469 145.613281 218.980469 146.167969 C 217.949219 147.082031 216.421875 147.179688 215.378906 146.21875 C 215.347656 146.1875 215.300781 146.1875 215.257812 146.148438 C 211.855469 143.6875 208.234375 141.773438 204.363281 140.394531 C 212.976562 154.453125 224.21875 166.371094 237.824219 175.757812 C 236.503906 172.066406 234.984375 168.472656 233.207031 164.941406 C 232.664062 163.820312 232.929688 162.75 233.585938 162.023438 C 233.714844 161.695312 233.902344 161.410156 234.152344 161.152344 Z M 243.042969 151.128906 C 251.375 141.257812 259.730469 131.394531 268.066406 121.523438 C 263.640625 117.769531 259.335938 113.851562 255.136719 109.824219 C 246.246094 118.625 237.367188 127.425781 228.476562 136.226562 C 227.871094 136.832031 227.175781 137.039062 226.519531 136.972656 C 225.628906 137.230469 224.597656 137.050781 223.960938 136.34375 C 223.703125 136.078125 223.585938 135.949219 223.328125 135.917969 C 223.277344 135.898438 222.890625 135.988281 222.890625 135.949219 C 222.503906 136.226562 222.53125 136.671875 222.652344 137.070312 C 222.652344 137.089844 222.652344 137.089844 222.671875 137.109375 C 226.679688 145.703125 233.296875 152.308594 241.871094 156.347656 C 242.445312 155.960938 242.714844 155.328125 242.457031 154.402344 C 242.316406 153.9375 242.316406 153.519531 242.40625 153.144531 C 242.335938 152.46875 242.507812 151.765625 243.042969 151.128906 Z M 270.03125 115.410156 C 267.828125 112.957031 265.625 110.527344 263.421875 108.085938 C 262.609375 108.136719 261.804688 108.1875 260.972656 108.246094 C 263.867188 110.945312 266.804688 113.613281 269.8125 116.203125 C 269.871094 115.9375 269.960938 115.675781 270.03125 115.410156 Z M 341.144531 38.226562 C 341.539062 38.75 337.679688 43.175781 326.746094 54.417969 C 321.289062 60.035156 314.054688 67.308594 304.738281 76.585938 C 300.066406 81.21875 294.90625 86.347656 289.171875 92.054688 C 286.292969 94.890625 283.296875 97.878906 280.140625 101.003906 C 278.574219 102.570312 276.957031 104.15625 275.320312 105.796875 C 274.496094 106.617188 273.683594 107.453125 272.839844 108.296875 L 271.648438 109.496094 C 272.582031 110.527344 273.511719 111.550781 274.4375 112.582031 C 274.613281 112.789062 274.753906 113 274.851562 113.195312 C 275.410156 113.773438 275.6875 114.578125 275.386719 115.558594 C 274.941406 117.027344 274.515625 118.476562 274.078125 119.933594 C 274.515625 120.796875 274.515625 121.878906 273.722656 122.8125 C 265 133.128906 256.289062 143.449219 247.578125 153.757812 C 248.191406 157.378906 245.917969 161.132812 242.128906 161.757812 C 241.542969 161.835938 240.976562 161.765625 240.472656 161.566406 C 239.898438 162.460938 239.222656 163.285156 238.496094 164.078125 C 240.492188 168.214844 242.21875 172.441406 243.648438 176.808594 C 243.785156 177.214844 243.816406 177.601562 243.765625 177.941406 C 243.785156 178.386719 243.648438 178.871094 243.300781 179.367188 C 239.359375 184.914062 233.496094 189.597656 228.695312 194.351562 C 218.316406 204.640625 207.738281 214.761719 197.132812 224.871094 C 197.0625 227.976562 196.972656 231.074219 196.953125 234.160156 C 196.855469 244.089844 196.078125 250.679688 190.015625 256.027344 C 189.929688 256.722656 189.582031 257.378906 188.847656 257.851562 C 179.074219 264.195312 168.019531 265.96875 156.570312 266.535156 C 155.628906 266.585938 154.675781 266.625 153.730469 266.675781 C 145.972656 274.335938 138.292969 282.074219 130.800781 289.960938 C 136.257812 296.242188 141.410156 302.792969 146.242188 309.597656 C 147.113281 310.816406 146.667969 312.019531 145.734375 312.722656 C 145.664062 312.8125 145.617188 312.902344 145.546875 313 C 142.925781 316.066406 139.898438 318.6875 136.515625 320.890625 C 135.058594 321.851562 133.640625 321.066406 133.042969 319.855469 C 123.546875 312.671875 114.03125 305.410156 104.882812 297.761719 C 97.980469 304.527344 90.429688 310.492188 82.292969 315.601562 C 86.132812 321.214844 95.925781 335.683594 85.617188 336.945312 C 80.335938 337.597656 72.003906 331.109375 67.835938 328.398438 C 61.910156 324.539062 56.363281 320.046875 51.375 315.054688 C 46.421875 310.125 33.234375 298.109375 37.046875 289.652344 C 41.015625 280.863281 54.609375 288.53125 59.789062 293.039062 C 65.027344 285.167969 70.277344 277.300781 75.515625 269.414062 C 68.488281 261.265625 62.140625 252.515625 56.792969 242.910156 C 55.691406 242.253906 54.984375 240.875 55.800781 239.425781 C 57.566406 236.292969 59.964844 233.691406 62.875 231.578125 C 63.113281 231.378906 63.410156 231.28125 63.707031 231.230469 C 64.410156 230.765625 65.335938 230.605469 66.296875 231.054688 C 73.234375 234.226562 79.414062 238.566406 84.753906 243.902344 C 84.433594 241.132812 84.453125 238.226562 84.433594 235.308594 C 84.296875 207.636719 82.789062 179.882812 82.042969 152.230469 C 81.746094 140.574219 80.167969 127.742188 82.539062 116.234375 C 83.511719 111.578125 85.230469 108.949219 88.78125 105.914062 C 95.269531 100.367188 99.316406 95.1875 100.179688 86.40625 C 91.875 83.769531 91.035156 75.53125 90 66.652344 C 88.8125 56.3125 93.652344 50.320312 103.246094 46.054688 C 115.214844 40.714844 130.027344 40.488281 142.898438 40.4375 C 156.359375 40.367188 171.699219 39.347656 184.382812 44.675781 C 184.402344 44.675781 184.410156 44.683594 184.429688 44.683594 C 184.621094 44.753906 184.816406 44.824219 185.007812 44.933594 C 199.382812 52.769531 203.15625 83.230469 184.214844 87.65625 C 183.300781 87.886719 182.367188 88.035156 181.433594 88.210938 C 182.316406 93.769531 184.640625 98.5625 188.707031 102.628906 C 190.839844 104.78125 193.597656 106.292969 195.523438 108.652344 C 199.035156 112.878906 199.335938 118.625 199.542969 123.984375 C 199.800781 124.480469 199.851562 125.054688 199.613281 125.578125 C 199.613281 125.707031 199.613281 125.808594 199.613281 125.925781 C 199.730469 128.585938 199.78125 131.265625 199.8125 133.933594 C 200.136719 133.863281 200.503906 133.886719 200.902344 133.972656 C 206.6875 135.332031 212.074219 137.703125 216.945312 141.046875 C 217.363281 140.691406 217.78125 140.316406 218.195312 139.925781 C 218.226562 139.917969 218.257812 139.898438 218.277344 139.878906 C 218.226562 139.757812 218.15625 139.640625 218.105469 139.519531 C 218.019531 139.332031 217.949219 139.152344 217.917969 138.984375 C 217.808594 138.816406 217.738281 138.636719 217.679688 138.449219 C 216.828125 135.898438 217.917969 133.023438 220.152344 131.59375 C 221.898438 130.492188 224.167969 130.511719 225.957031 131.445312 C 235.015625 122.484375 244.0625 113.523438 253.121094 104.574219 C 253.589844 104.089844 254.113281 103.878906 254.632812 103.832031 C 255 103.59375 255.425781 103.414062 255.960938 103.382812 C 258.628906 103.214844 261.296875 103.054688 263.96875 102.886719 C 264.125 102.867188 264.277344 102.886719 264.433594 102.898438 C 265.109375 102.820312 265.8125 103.027344 266.417969 103.691406 C 267.003906 104.347656 267.589844 104.980469 268.175781 105.636719 L 269.15625 104.644531 C 270 103.800781 270.84375 102.96875 271.667969 102.144531 C 273.324219 100.507812 274.921875 98.910156 276.507812 97.339844 C 279.695312 94.214844 282.710938 91.257812 285.597656 88.429688 C 291.421875 82.824219 296.671875 77.746094 301.414062 73.179688 C 310.917969 64.0625 318.410156 57.058594 324.195312 51.777344 C 329.992188 46.5 334.097656 42.96875 336.808594 40.835938 C 339.503906 38.679688 340.972656 37.90625 341.144531 38.226562 " fill-opacity="1" fill-rule="nonzero"/></g><path fill="#37c2cc" d="M 193.925781 175.527344 C 196.40625 178.386719 197.914062 181.144531 197.320312 181.660156 C 196.695312 182.175781 194.203125 180.28125 191.734375 177.421875 C 189.253906 174.566406 187.746094 171.808594 188.351562 171.292969 C 188.964844 170.765625 191.457031 172.652344 193.925781 175.527344 " fill-opacity="1" fill-rule="nonzero"/><path fill="#37c2cc" d="M 191.03125 178.425781 C 193.492188 181.304688 195.007812 184.042969 194.402344 184.578125 C 193.796875 185.09375 191.308594 183.199219 188.828125 180.339844 C 186.347656 177.464844 184.828125 174.726562 185.453125 174.1875 C 186.046875 173.671875 188.550781 175.566406 191.03125 178.425781 " fill-opacity="1" fill-rule="nonzero"/><path fill="#37c2cc" d="M 186.15625 192.734375 C 191.457031 198.132812 194.699219 203.378906 194.085938 203.867188 C 193.429688 204.363281 189.253906 200.027344 184.074219 194.789062 C 178.925781 189.519531 174.65625 185.261719 175.171875 184.628906 C 175.648438 184.023438 180.847656 187.347656 186.15625 192.734375 " fill-opacity="1" fill-rule="nonzero"/><path fill="#37c2cc" d="M 188.121094 181.332031 C 190.601562 184.191406 192.101562 186.949219 191.496094 187.464844 C 190.890625 188 188.390625 186.105469 185.917969 183.226562 C 183.449219 180.371094 181.941406 177.613281 182.535156 177.097656 C 183.140625 176.558594 185.640625 178.476562 188.121094 181.332031 " fill-opacity="1" fill-rule="nonzero"/><path fill="#37c2cc" d="M 185.144531 185.3125 C 187.617188 188.1875 189.125 190.929688 188.519531 191.464844 C 187.914062 191.980469 185.414062 190.085938 182.933594 187.207031 C 180.472656 184.347656 178.964844 181.589844 179.558594 181.074219 C 180.164062 180.558594 182.65625 182.453125 185.144531 185.3125 " fill-opacity="1" fill-rule="nonzero"/><path fill="#37c2cc" d="M 176.839844 192.117188 C 179.320312 194.976562 180.839844 197.734375 180.214844 198.25 C 179.609375 198.785156 177.117188 196.890625 174.636719 194.011719 C 172.175781 191.15625 170.660156 188.398438 171.253906 187.882812 C 171.859375 187.347656 174.359375 189.261719 176.839844 192.117188 " fill-opacity="1" fill-rule="nonzero"/><path fill="#37c2cc" d="M 173.921875 195.027344 C 176.414062 197.882812 177.921875 200.640625 177.316406 201.15625 C 176.703125 201.695312 174.203125 199.777344 171.742188 196.921875 C 169.261719 194.0625 167.742188 191.304688 168.347656 190.789062 C 168.972656 190.253906 171.460938 192.148438 173.921875 195.027344 " fill-opacity="1" fill-rule="nonzero"/><path fill="#37c2cc" d="M 169.050781 209.34375 C 174.378906 214.710938 177.613281 219.980469 176.988281 220.445312 C 176.335938 220.953125 172.175781 216.625 166.988281 211.367188 C 161.839844 206.117188 157.570312 201.863281 158.078125 201.226562 C 158.5625 200.613281 163.761719 203.9375 169.050781 209.34375 " fill-opacity="1" fill-rule="nonzero"/><path fill="#37c2cc" d="M 171.035156 197.921875 C 173.496094 200.800781 175.015625 203.539062 174.410156 204.066406 C 173.804688 204.589844 171.3125 202.695312 168.832031 199.839844 C 166.351562 196.960938 164.835938 194.222656 165.460938 193.6875 C 166.054688 193.171875 168.554688 195.066406 171.035156 197.921875 " fill-opacity="1" fill-rule="nonzero"/><path fill="#37c2cc" d="M 168.058594 201.921875 C 170.519531 204.777344 172.027344 207.519531 171.433594 208.042969 C 170.828125 208.570312 168.335938 206.675781 165.847656 203.808594 C 163.375 200.9375 161.859375 198.191406 162.472656 197.664062 C 163.078125 197.148438 165.578125 199.042969 168.058594 201.921875 " fill-opacity="1" fill-rule="nonzero"/><path fill="#37c2cc" d="M 151.230469 53.503906 C 152.421875 53.59375 160.578125 53.007812 160.222656 51.777344 C 159.773438 51.75 159.339844 51.730469 158.890625 51.75 C 155.707031 51.578125 152.472656 51.777344 149.285156 51.816406 C 142.777344 51.859375 136.230469 51.769531 129.699219 51.90625 C 130.730469 54.417969 142.667969 52.769531 143.957031 52.769531 C 146.429688 52.75 148.769531 53.355469 151.230469 53.503906 Z M 162.421875 57.316406 C 164.804688 57.207031 165.984375 55.6875 165.976562 52.75 C 165.054688 52.472656 164.128906 52.265625 163.199219 52.097656 C 163.40625 56.074219 150.933594 56.035156 148.988281 55.816406 C 143.113281 55.191406 135.625 57.382812 130.007812 55.398438 C 128.035156 54.695312 127.101562 53.671875 127.050781 51.957031 C 126.992188 51.976562 126.933594 51.976562 126.863281 51.976562 C 121.195312 50.609375 119.964844 52.183594 123.191406 56.640625 C 125.601562 57.273438 128.035156 57.464844 130.453125 57.207031 C 133.769531 57.207031 136.964844 57.265625 140.289062 57.40625 C 147.410156 57.691406 154.773438 58 161.859375 57.246094 C 162.078125 57.226562 162.253906 57.246094 162.421875 57.316406 Z M 168.378906 50.804688 C 175.976562 55.191406 166.890625 58.84375 162.195312 59.796875 C 162.136719 59.796875 162.078125 59.777344 162.007812 59.796875 C 161.957031 59.796875 161.925781 59.824219 161.859375 59.824219 C 153.34375 60.726562 144.671875 59.984375 136.128906 59.6875 C 129.9375 59.476562 123.566406 60.597656 117.832031 57.503906 C 110.878906 53.742188 118.628906 50.03125 123.480469 49.425781 C 131.824219 48.394531 140.882812 49.289062 149.285156 49.238281 C 154.863281 49.1875 163.199219 47.789062 168.378906 50.804688 " fill-opacity="1" fill-rule="nonzero"/><path fill="#37c2cc" d="M 160.507812 208.945312 C 162.988281 211.804688 164.507812 214.550781 163.890625 215.078125 C 163.285156 215.605469 160.785156 213.710938 158.304688 210.839844 C 155.84375 207.972656 154.328125 205.226562 154.933594 204.710938 C 155.539062 204.175781 158.039062 206.070312 160.507812 208.945312 " fill-opacity="1" fill-rule="nonzero"/><path fill="#37c2cc" d="M 157.601562 211.855469 C 160.082031 214.710938 161.601562 217.46875 160.996094 217.984375 C 160.378906 218.5 157.878906 216.605469 155.410156 213.75 C 152.9375 210.871094 151.421875 208.132812 152.015625 207.597656 C 152.640625 207.082031 155.140625 208.976562 157.601562 211.855469 " fill-opacity="1" fill-rule="nonzero"/><path fill="#37c2cc" d="M 152.730469 226.171875 C 158.046875 231.539062 161.28125 236.789062 160.667969 237.273438 C 160.011719 237.769531 155.84375 233.453125 150.65625 228.195312 C 145.507812 222.925781 141.238281 218.691406 141.753906 218.054688 C 142.242188 217.429688 147.441406 220.753906 152.730469 226.171875 " fill-opacity="1" fill-rule="nonzero"/><path fill="#37c2cc" d="M 154.714844 214.75 C 157.164062 217.628906 158.683594 220.355469 158.078125 220.894531 C 157.484375 221.410156 154.980469 219.523438 152.5 216.65625 C 150.019531 213.777344 148.511719 211.039062 149.128906 210.515625 C 149.734375 210 152.222656 211.894531 154.714844 214.75 " fill-opacity="1" fill-rule="nonzero"/><path fill="#37c2cc" d="M 151.726562 218.730469 C 154.1875 221.605469 155.707031 224.335938 155.101562 224.871094 C 154.503906 225.386719 152.003906 223.492188 149.523438 220.636719 C 147.042969 217.757812 145.527344 215.019531 146.152344 214.492188 C 146.757812 213.976562 149.246094 215.871094 151.726562 218.730469 " fill-opacity="1" fill-rule="nonzero"/><path fill="#37c2cc" d="M 141.875 224.078125 C 144.34375 226.945312 145.855469 229.695312 145.25 230.210938 C 144.652344 230.746094 142.132812 228.851562 139.671875 225.972656 C 137.191406 223.117188 135.671875 220.355469 136.296875 219.839844 C 136.902344 219.316406 139.394531 221.199219 141.875 224.078125 " fill-opacity="1" fill-rule="nonzero"/><path fill="#37c2cc" d="M 138.96875 226.996094 C 141.429688 229.851562 142.945312 232.609375 142.339844 233.128906 C 141.734375 233.644531 139.246094 231.746094 136.765625 228.890625 C 134.285156 226.011719 132.785156 223.273438 133.390625 222.738281 C 133.988281 222.222656 136.488281 224.117188 138.96875 226.996094 " fill-opacity="1" fill-rule="nonzero"/><path fill="#37c2cc" d="M 134.097656 241.304688 C 139.394531 246.679688 142.640625 251.929688 142.015625 252.414062 C 141.378906 252.910156 137.191406 248.597656 132.023438 243.335938 C 126.863281 238.066406 122.585938 233.832031 123.101562 233.195312 C 123.597656 232.570312 128.789062 235.894531 134.097656 241.304688 " fill-opacity="1" fill-rule="nonzero"/><path fill="#37c2cc" d="M 136.050781 229.882812 C 138.53125 232.761719 140.050781 235.5 139.433594 236.035156 C 138.828125 236.550781 136.328125 234.65625 133.847656 231.796875 C 131.386719 228.921875 129.878906 226.179688 130.472656 225.644531 C 131.078125 225.128906 133.578125 227.023438 136.050781 229.882812 " fill-opacity="1" fill-rule="nonzero"/><path fill="#37c2cc" d="M 133.074219 233.859375 C 135.554688 236.738281 137.074219 239.476562 136.457031 240.011719 C 135.851562 240.527344 133.351562 238.632812 130.871094 235.777344 C 128.410156 232.898438 126.890625 230.160156 127.496094 229.625 C 128.09375 229.109375 130.59375 231.003906 133.074219 233.859375 " fill-opacity="1" fill-rule="nonzero"/></svg>