<svg xmlns="http://www.w3.org/2000/svg" xmlns:xlink="http://www.w3.org/1999/xlink" width="500" zoomAndPan="magnify" viewBox="0 0 375 374.999991" height="500" preserveAspectRatio="xMidYMid meet" version="1.0"><defs><clipPath id="1d02f1d344"><path d="M 36 57 L 339 57 L 339 317.960938 L 36 317.960938 Z M 36 57 " clip-rule="nonzero"/></clipPath></defs><g clip-path="url(#1d02f1d344)"><path fill="#37c2cc" d="M 206.796875 58.050781 C 198.671875 59.289062 189.925781 62.621094 185.503906 66.15625 C 180.628906 70.054688 178.832031 73.84375 178.835938 80.203125 C 178.835938 83.265625 178.886719 84.074219 179.460938 90.417969 C 179.648438 92.492188 179.859375 94.894531 179.929688 95.757812 C 180 96.617188 180.101562 101.554688 180.15625 106.726562 C 180.316406 122.046875 180.203125 121.242188 185.324219 142.648438 C 186.765625 148.679688 188.3125 155.183594 188.757812 157.097656 C 189.9375 162.183594 190.902344 165.789062 192.039062 169.371094 C 192.390625 170.472656 192.417969 170.628906 192.257812 170.761719 C 190.550781 172.179688 187.941406 177.625 187.101562 181.53125 C 186.777344 183.058594 186.726562 186.953125 187.003906 189.367188 C 187.675781 195.171875 186.957031 198.316406 183.871094 203.054688 C 180.925781 207.585938 179.898438 211.15625 180.769531 213.832031 L 180.949219 214.386719 L 180.097656 214.960938 C 179.628906 215.277344 178.609375 215.960938 177.832031 216.480469 C 176.109375 217.632812 174.96875 218.75 173.972656 220.261719 C 172.628906 222.296875 173.171875 222.070312 166.460938 223.378906 C 160.699219 224.5 157.578125 225.648438 153.402344 228.179688 C 151.425781 229.378906 151.574219 229.347656 149.5 228.988281 C 148.203125 228.769531 147.820312 228.75 145.566406 228.824219 C 141.273438 228.96875 141.394531 228.996094 139.089844 227.457031 C 138.214844 226.875 136.898438 226.085938 136.167969 225.699219 L 134.832031 225 L 132.394531 222.503906 C 131.054688 221.132812 129.265625 219.25 128.425781 218.320312 C 125.023438 214.570312 121.640625 212.378906 116.261719 210.429688 C 115.019531 209.980469 114.792969 209.855469 114.171875 209.265625 C 113.789062 208.898438 112.925781 208.132812 112.253906 207.558594 C 110.882812 206.386719 110.128906 205.574219 107.320312 202.25 C 103.621094 197.871094 101.195312 195.796875 97.804688 194.125 C 94.949219 192.714844 94.101562 192.558594 88.636719 192.441406 C 85.820312 192.382812 83.785156 192.285156 83.007812 192.171875 C 80.046875 191.746094 78.328125 191.808594 74.996094 192.457031 C 68.425781 193.734375 66.242188 194.957031 60.714844 200.449219 C 56.621094 204.519531 54.328125 208.417969 53.582031 212.582031 C 53.34375 213.90625 53.40625 213.792969 50.839844 217.546875 C 44.988281 226.113281 42.070312 232.097656 39.601562 240.613281 C 37.597656 247.515625 37.488281 250.640625 38.96875 258.546875 C 40.089844 264.519531 40.484375 267.832031 40.375 270.425781 C 40.296875 272.214844 40.257812 272.390625 39.074219 276.023438 C 35.535156 286.898438 36.449219 293.242188 42.023438 296.488281 C 44.335938 297.835938 45.21875 298.011719 58.863281 299.8125 C 66.859375 300.867188 72.761719 299.691406 77.554688 296.078125 C 80.679688 293.722656 81.238281 291.832031 80.542969 285.996094 C 80.328125 284.214844 80.296875 283.230469 80.277344 278.042969 C 80.246094 269.308594 79.601562 265.445312 77.476562 261.242188 C 77.324219 260.941406 77.246094 260.691406 77.304688 260.691406 C 77.363281 260.691406 77.671875 260.457031 77.988281 260.171875 L 78.566406 259.652344 L 79.175781 261.113281 C 82.125 268.148438 86.769531 275.164062 92.796875 281.699219 C 94.972656 284.058594 96.800781 285.6875 104.1875 291.832031 C 105.914062 293.265625 107.878906 294.90625 108.558594 295.476562 C 109.234375 296.046875 110.175781 296.796875 110.644531 297.140625 C 111.117188 297.484375 111.816406 298.050781 112.199219 298.394531 C 113.171875 299.269531 116.078125 301.4375 117.945312 302.675781 C 127.035156 308.722656 135.976562 311.898438 151.023438 314.429688 C 151.820312 314.5625 153.753906 314.90625 155.316406 315.1875 C 163.605469 316.6875 169.761719 317.371094 176.796875 317.574219 C 179 317.636719 180.917969 317.707031 181.054688 317.734375 C 182.652344 318.042969 204 318.09375 209 317.804688 C 226.011719 316.8125 236.660156 314.886719 245.832031 311.132812 C 250.257812 309.324219 259.664062 304.851562 263.667969 302.65625 C 264.753906 302.0625 266.765625 300.972656 268.136719 300.238281 C 279.449219 294.191406 287.363281 288.476562 292.269531 282.804688 C 292.824219 282.164062 294.050781 280.886719 294.996094 279.960938 C 303.945312 271.203125 308.832031 263.359375 317.847656 243.28125 C 319.300781 240.050781 321.449219 235.410156 324.199219 229.585938 C 327.625 222.324219 331.496094 213.546875 333.777344 207.878906 C 339.203125 194.382812 339.519531 186.285156 335.234375 170.273438 C 334.148438 166.222656 333.730469 164.25 332.84375 158.957031 C 330.414062 144.421875 328.167969 139.890625 318.035156 129.058594 C 303.699219 113.726562 302.234375 112.28125 298.640625 109.90625 C 290.945312 104.820312 279.457031 102.464844 267.847656 103.589844 C 261.84375 104.171875 259.886719 104.535156 254.617188 106.03125 C 252.328125 106.679688 251.332031 106.886719 247.710938 107.472656 C 239.121094 108.855469 235.785156 110.140625 229.046875 114.660156 C 227.367188 115.785156 225.433594 117.011719 224.75 117.382812 C 222.257812 118.738281 220.058594 120.394531 218.15625 122.351562 L 217.210938 123.324219 L 216.855469 121.640625 C 214.140625 108.851562 213.953125 93.679688 216.300781 76.761719 C 217.097656 71.035156 217.125 70.71875 217.117188 67.84375 C 217.101562 60.179688 213.742188 56.992188 206.796875 58.050781 M 211.089844 62 C 213.558594 62.800781 213.910156 66.34375 212.53125 76.488281 C 210.726562 89.769531 210.53125 103.5625 212.003906 113.835938 L 212.265625 115.65625 L 211.867188 116.054688 C 211.328125 116.59375 210.632812 117.699219 209.742188 119.433594 C 208.960938 120.964844 208.472656 121.558594 207.027344 122.726562 C 206.644531 123.035156 205.875 123.792969 205.3125 124.410156 C 202.265625 127.765625 198.351562 129.765625 194.835938 129.765625 C 193.929688 129.765625 193.859375 130.304688 194.691406 130.84375 C 197.507812 132.667969 203.082031 130.675781 207.328125 126.324219 C 208.1875 125.4375 209.269531 124.417969 209.730469 124.050781 C 210.765625 123.222656 211.167969 122.679688 212.160156 120.769531 C 212.675781 119.777344 212.957031 119.339844 212.980469 119.492188 C 213.164062 120.601562 214.179688 124.835938 214.632812 126.382812 C 215.695312 130.023438 216.253906 131.398438 218.386719 135.644531 C 221.550781 141.933594 222.066406 144.140625 222.132812 151.644531 C 222.175781 156.691406 222.171875 156.660156 222.59375 156.765625 C 223.414062 156.972656 224.421875 155.5 224.984375 153.269531 C 225.566406 150.972656 225.273438 145.5625 224.382812 142.078125 C 224.257812 141.597656 224.167969 141.195312 224.183594 141.183594 C 224.207031 141.15625 226.570312 145.003906 227.117188 145.96875 C 228.628906 148.621094 229.523438 147.523438 228.566406 144.191406 C 227.59375 140.808594 226.824219 139.609375 223.347656 136.03125 L 221.597656 134.234375 L 222.148438 134.085938 C 224.824219 133.367188 226.890625 133.246094 228.953125 133.695312 C 230.410156 134.007812 230.484375 134.007812 230.828125 133.636719 C 231.644531 132.757812 230.597656 131.652344 228.269531 130.933594 C 227 130.542969 225.070312 130.542969 222.289062 130.945312 C 221.175781 131.105469 219.988281 131.085938 219.773438 130.910156 C 219.640625 130.796875 218.65625 128.382812 218.339844 127.390625 L 218.195312 126.933594 L 218.878906 126.3125 C 221.339844 124.089844 222.207031 123.464844 224.726562 122.101562 C 225.589844 121.632812 226.9375 120.898438 227.726562 120.464844 C 229.683594 119.390625 230.910156 119.011719 233.316406 118.738281 C 236.804688 118.34375 237.726562 117.425781 235.878906 116.183594 C 235.214844 115.738281 246.875 111.488281 251.191406 110.601562 C 252.4375 110.34375 254.550781 109.875 255.894531 109.554688 C 263.5 107.742188 264.570312 107.515625 267.363281 107.121094 C 270.863281 106.625 276.03125 107.035156 282.160156 108.296875 C 291.089844 110.128906 296.054688 112.742188 304.425781 120.023438 C 305.988281 121.378906 314.992188 130.871094 318.839844 135.21875 C 327.605469 145.117188 333.886719 172.570312 331.792969 191.804688 C 330.640625 202.355469 325.488281 218.136719 317.46875 235.679688 C 316.652344 237.464844 314.992188 241.121094 313.777344 243.804688 C 310.21875 251.660156 309.390625 253.261719 306.46875 257.921875 C 301.738281 265.472656 294.476562 275.371094 291.59375 278.207031 C 286.695312 283.023438 276.171875 291.167969 269.648438 295.195312 C 268.976562 295.609375 267.488281 296.53125 266.339844 297.246094 C 262.246094 299.789062 249.007812 306.210938 245.464844 307.371094 C 239.46875 309.335938 234.785156 310.1875 224.84375 311.125 C 218.691406 311.707031 216.851562 311.90625 210.160156 312.746094 C 201.097656 313.882812 198.671875 314.054688 190.546875 314.128906 C 174.417969 314.28125 163.371094 313.457031 150.90625 311.171875 C 145.820312 310.238281 133.101562 306.585938 128.640625 304.78125 C 124.066406 302.929688 116.613281 298.3125 113.765625 295.566406 C 113.222656 295.046875 111.761719 293.714844 110.515625 292.609375 C 108.378906 290.714844 107.296875 289.800781 101.976562 285.398438 C 100.765625 284.398438 99.46875 283.296875 99.089844 282.953125 L 98.398438 282.324219 L 98.824219 282.371094 C 99.699219 282.472656 99.546875 281.503906 98.183594 278.277344 C 97.148438 275.820312 96.492188 274.15625 95.660156 271.851562 C 94.78125 269.421875 94.566406 269.464844 94.65625 272.066406 C 94.773438 275.472656 96.296875 280.0625 97.890625 281.8125 C 98.09375 282.039062 97.414062 281.386719 96.371094 280.367188 C 91.015625 275.109375 85.578125 267.421875 82.734375 261.078125 C 80.691406 256.53125 80.609375 256.199219 80.488281 252.121094 C 80.414062 249.550781 80.332031 249.195312 79.933594 249.738281 C 79.742188 250 79.304688 251.429688 79.1875 252.191406 L 79.101562 252.742188 L 78.878906 252.355469 C 78.753906 252.144531 78.011719 250.890625 77.222656 249.570312 C 73.046875 242.566406 72.527344 238.632812 74.757812 230.855469 C 76.515625 224.738281 77.988281 222.445312 85.070312 214.816406 C 91.449219 207.945312 91.78125 207.53125 90.917969 207.53125 C 90.535156 207.53125 87.441406 209.726562 86.199219 210.878906 C 86.007812 211.058594 85.171875 211.769531 84.339844 212.464844 C 82.339844 214.136719 81.0625 215.265625 79.898438 216.402344 L 78.9375 217.339844 L 79.277344 216.410156 C 79.90625 214.691406 80.800781 212.519531 81.25 211.617188 C 82.226562 209.660156 83.253906 206.699219 83.007812 206.546875 C 82.597656 206.292969 80.417969 209.15625 78.859375 212 C 76.964844 215.457031 75.929688 218.347656 75.925781 220.203125 C 75.921875 220.625 75.808594 220.875 75.21875 221.75 C 74.335938 223.0625 73.179688 225.394531 72.515625 227.199219 L 72.003906 228.582031 L 71.917969 227.3125 C 71.605469 222.785156 72.585938 214.363281 73.953125 209.851562 C 75.496094 204.746094 75.613281 203.710938 74.503906 204.890625 C 72.65625 206.855469 70.324219 213.691406 69.425781 219.777344 C 68.601562 225.371094 68.929688 232.796875 70.136719 235.886719 C 70.257812 236.191406 70.355469 236.605469 70.355469 236.800781 L 70.355469 237.160156 L 69.355469 237.082031 C 66.296875 236.832031 63.5 235.207031 60.609375 231.992188 C 59.464844 230.722656 59.265625 230.625 59.148438 231.269531 C 58.921875 232.476562 60.574219 235.375 62.589844 237.316406 C 64.53125 239.179688 66.535156 240.078125 69.097656 240.226562 L 70.339844 240.296875 L 70.410156 240.890625 C 70.851562 244.453125 71.910156 247.144531 74.6875 251.753906 C 75.707031 253.449219 77.203125 256.25 77.203125 256.46875 C 77.203125 256.570312 75.914062 258.164062 75.871094 258.117188 C 75.851562 258.097656 75.457031 257.511719 74.992188 256.816406 C 73.667969 254.828125 72.976562 254.214844 72.683594 254.761719 C 72.546875 255.011719 72.753906 255.675781 73.691406 258.023438 C 76.480469 264.992188 76.984375 268.695312 76.695312 280.074219 C 76.601562 283.636719 76.617188 284.324219 76.808594 286.285156 C 77.257812 290.78125 77.117188 291.464844 75.507812 292.703125 C 71.914062 295.457031 66.269531 296.53125 59.734375 295.703125 C 58.261719 295.515625 53.519531 294.902344 49.636719 294.398438 C 40.203125 293.175781 38.644531 289.335938 42.613281 277.132812 C 44.53125 271.226562 44.488281 268.925781 42.261719 257.613281 C 40.730469 249.832031 40.894531 246.917969 43.253906 240.042969 C 45.4375 233.664062 46.992188 230.582031 53.070312 220.574219 C 57.109375 213.917969 56.925781 214.152344 59.503906 212.296875 C 64.691406 208.558594 69.03125 203.515625 67.277344 203.261719 C 67.046875 203.230469 65.84375 203.894531 65.335938 204.335938 C 63.746094 205.71875 57.53125 210.304688 57.417969 210.183594 C 57.355469 210.121094 59.246094 207.160156 59.988281 206.160156 C 60.734375 205.144531 65.328125 200.515625 66.640625 199.449219 C 71.074219 195.855469 77.128906 194.199219 82.847656 195.007812 C 84.152344 195.195312 85.546875 195.277344 88.578125 195.347656 C 93.339844 195.460938 93.84375 195.542969 95.820312 196.53125 C 99.066406 198.152344 100.929688 199.710938 104.15625 203.503906 C 105.175781 204.707031 106.609375 206.335938 107.339844 207.128906 L 108.667969 208.570312 L 106.660156 208.5 C 101.96875 208.335938 101.875 209.4375 106.484375 210.539062 C 110.9375 211.601562 115.574219 213.238281 119.558594 215.148438 C 122.917969 216.757812 124.5 218.0625 127.601562 221.765625 L 129.070312 223.523438 L 127.804688 223.53125 C 127.109375 223.535156 126.339844 223.570312 126.101562 223.609375 C 123.617188 224.023438 122.308594 224.507812 121.65625 225.25 L 121.289062 225.671875 L 121.523438 225.902344 C 121.75 226.128906 121.808594 226.132812 123.535156 225.996094 C 128.25 225.621094 133.152344 227.058594 137.675781 230.144531 C 139.078125 231.101562 140.183594 231.628906 141.277344 231.859375 C 142.160156 232.050781 142.28125 232.046875 146.269531 231.835938 C 147.359375 231.777344 148.070312 231.808594 149.113281 231.957031 C 149.875 232.0625 150.773438 232.160156 151.109375 232.175781 C 151.445312 232.1875 151.71875 232.230469 151.71875 232.273438 C 151.722656 232.457031 152.917969 233.648438 154.109375 234.648438 C 156.507812 236.65625 157.199219 237.929688 157.804688 241.453125 C 158.105469 243.199219 158.21875 243.464844 159.074219 244.476562 C 161.257812 247.0625 162.8125 251.414062 162.910156 255.203125 C 162.941406 256.535156 162.992188 256.621094 163.488281 256.183594 C 165.308594 254.578125 164.03125 247.070312 161.332031 243.519531 C 160.335938 242.207031 160.347656 242.238281 160.128906 240.726562 C 159.492188 236.394531 157.863281 234.183594 153.722656 232.054688 C 152.941406 231.65625 152.925781 231.691406 154.1875 230.972656 C 158.835938 228.3125 162.457031 226.972656 168.550781 225.648438 C 174.40625 224.375 174.40625 224.375 175.96875 222.113281 C 177.011719 220.605469 177.839844 219.808594 179.742188 218.492188 C 181.417969 217.335938 185.425781 213.496094 185.355469 213.121094 C 185.296875 212.808594 184.382812 212.691406 183.660156 212.902344 C 182.957031 213.105469 183.003906 213.234375 183.183594 211.617188 C 183.425781 209.394531 184.140625 207.726562 186.339844 204.277344 C 189.734375 198.945312 190.4375 195.84375 189.792969 188.988281 L 189.53125 186.203125 L 189.785156 184.707031 C 190.429688 180.882812 193.003906 172.929688 193.441406 173.425781 C 193.460938 173.445312 193.746094 174.117188 194.082031 174.917969 C 196.882812 181.648438 199.980469 184.242188 204.101562 183.316406 C 205.640625 182.972656 207.175781 181.96875 207.550781 181.0625 C 207.808594 180.441406 207.585938 180.394531 206.363281 180.808594 C 203.9375 181.628906 203.214844 181.648438 201.765625 180.941406 C 198.972656 179.574219 196.375 173.941406 193.226562 162.429688 C 192.695312 160.492188 192.664062 160.617188 193.59375 160.878906 C 200.207031 162.730469 206.789062 160.0625 211.265625 153.710938 C 211.890625 152.824219 211.949219 152.59375 211.652344 152.261719 C 211.171875 151.730469 210.121094 152.195312 207.144531 154.257812 C 201.761719 157.980469 197.953125 159.238281 193.257812 158.847656 L 192.28125 158.765625 L 190.570312 151.898438 C 188.796875 144.773438 187.703125 140.277344 187.703125 140.109375 C 187.703125 140.054688 188.160156 140.238281 188.71875 140.511719 C 192.648438 142.441406 196.589844 141.75 199.980469 138.542969 C 202.46875 136.191406 203.632812 134.667969 203.230469 134.292969 C 202.472656 133.589844 201.457031 133.976562 198.785156 135.984375 C 195.046875 138.789062 191.457031 139.246094 187.695312 137.386719 L 186.953125 137.019531 L 186.515625 135.046875 C 184.710938 126.878906 184.003906 122.65625 183.703125 118.214844 C 183.660156 117.640625 183.597656 116.910156 183.5625 116.589844 C 183.496094 116.03125 183.5 116.015625 183.710938 116.207031 C 184.710938 117.101562 187.660156 117.507812 189.492188 117.007812 C 192.160156 116.277344 193.546875 114.78125 192.082031 114.222656 C 191.851562 114.132812 191.371094 114.195312 190.058594 114.476562 C 187.71875 114.976562 185.667969 115 184.335938 114.542969 L 183.464844 114.242188 L 183.386719 111.644531 C 183.34375 110.214844 183.25 106.878906 183.179688 104.230469 C 183.046875 99.226562 182.875 95.980469 182.484375 91.195312 C 181.601562 80.320312 181.730469 76.917969 183.132812 74.121094 C 184.402344 71.582031 187.113281 68.945312 190.21875 67.226562 C 196.050781 63.996094 208.007812 61 211.089844 62 M 204.996094 63.90625 C 196.304688 64.847656 184.789062 70.429688 184.375 73.902344 C 184.105469 76.183594 187.28125 77.347656 190.996094 76.332031 C 191.628906 76.160156 193.246094 75.59375 194.59375 75.082031 C 197.882812 73.824219 199.175781 73.402344 202.722656 72.433594 C 207.078125 71.242188 208.851562 70.484375 210.210938 69.222656 C 213.171875 66.480469 210.105469 63.355469 204.996094 63.90625 M 208.792969 81.875 C 208.421875 82.101562 207.769531 82.601562 207.34375 82.992188 C 206.425781 83.832031 205.554688 84.335938 204.125 84.847656 C 202.515625 85.421875 202.414062 85.714844 203.738281 86 C 205.851562 86.453125 209.121094 84.792969 210.230469 82.703125 C 210.808594 81.609375 210.003906 81.144531 208.792969 81.875 M 204.242188 86.984375 C 201.660156 87.722656 201.011719 87.871094 199.871094 87.988281 C 199.054688 88.070312 198.425781 88.074219 198.019531 88 C 196.984375 87.8125 196.804688 88.109375 197.523438 88.828125 C 199.023438 90.324219 203.007812 89.925781 205.46875 88.03125 C 206.988281 86.863281 206.40625 86.367188 204.242188 86.984375 M 190.457031 90.195312 C 189.84375 90.554688 190.875 91.582031 192.386719 92.117188 C 196.082031 93.417969 202.582031 91.8125 199.683594 90.3125 C 199.480469 90.207031 199.15625 90.214844 198.21875 90.355469 C 196.71875 90.578125 194.710938 90.582031 193.207031 90.371094 C 191.371094 90.109375 190.675781 90.0625 190.457031 90.195312 M 190.953125 94.132812 C 189.738281 94.375 188.425781 94.414062 187.179688 94.25 C 183.199219 93.722656 181.945312 94.179688 184.25 95.320312 C 186.988281 96.671875 192.042969 96.566406 193.6875 95.128906 L 194.144531 94.726562 L 193.769531 94.351562 C 193.300781 93.875 192.5625 93.816406 190.953125 94.132812 M 204.066406 105.933594 C 203.535156 106.125 202.425781 106.644531 201.921875 106.941406 C 198.984375 108.660156 196.710938 109.171875 193.847656 108.761719 C 191.535156 108.425781 191.429688 108.457031 192.0625 109.210938 C 193.195312 110.558594 196.347656 111.144531 199.132812 110.53125 C 201.417969 110.027344 205.460938 107.460938 205.460938 106.515625 C 205.460938 105.992188 204.742188 105.695312 204.066406 105.933594 M 186.109375 109.003906 C 185.285156 109.828125 188.375 111.921875 190.4375 111.941406 C 192.835938 111.960938 192.769531 110.457031 190.355469 110.035156 C 189.949219 109.964844 188.957031 109.671875 188.148438 109.386719 C 186.605469 108.84375 186.320312 108.792969 186.109375 109.003906 M 267.96875 110.046875 C 267.464844 110.109375 266 110.371094 264.722656 110.632812 L 262.390625 111.105469 L 258.445312 111.203125 C 252.917969 111.335938 251.558594 111.542969 251.210938 112.300781 C 250.851562 113.09375 251.976562 113.28125 257.082031 113.277344 C 261.980469 113.269531 262.695312 113.210938 266.015625 112.511719 C 269.132812 111.859375 271.472656 111.75 276.074219 112.050781 C 277.601562 112.152344 278.894531 112.203125 278.949219 112.171875 C 279.554688 111.796875 277.050781 110.847656 273.882812 110.25 C 272.40625 109.972656 269.421875 109.867188 267.96875 110.046875 M 282.140625 112.570312 C 281.820312 112.921875 281.945312 113.078125 282.953125 113.601562 C 285.882812 115.117188 288.585938 114.9375 286.363281 113.371094 C 285.074219 112.464844 282.648438 112.003906 282.140625 112.570312 M 209.566406 112.566406 C 209.5 112.609375 208.972656 113.195312 208.398438 113.863281 C 206.136719 116.5 204.710938 117.617188 202.597656 118.40625 C 200.542969 119.175781 201.253906 120.539062 203.558594 120.246094 C 205.164062 120.042969 206.777344 118.773438 208.191406 116.601562 C 209.480469 114.621094 210.359375 112.042969 209.566406 112.566406 M 282.257812 114.035156 C 281.921875 114.375 282.191406 114.667969 283.28125 115.152344 C 284.339844 115.617188 284.628906 115.046875 283.675781 114.363281 C 283.007812 113.882812 282.523438 113.773438 282.257812 114.035156 M 241.09375 114.984375 C 238.8125 115.167969 237.039062 116.015625 237.65625 116.625 C 237.832031 116.800781 238.125 116.820312 240.21875 116.785156 C 243.039062 116.746094 243.910156 116.847656 246.433594 117.519531 C 249.015625 118.207031 249.375 118.261719 252.304688 118.390625 C 255.164062 118.515625 255.546875 118.566406 258.359375 119.207031 C 259.460938 119.457031 261.316406 119.796875 262.480469 119.960938 C 265.378906 120.375 266.25 120.578125 268.601562 121.410156 C 274.398438 123.457031 275.21875 123.691406 275.21875 123.304688 C 275.214844 123.066406 274.925781 122.859375 273.070312 121.777344 C 268.960938 119.375 266.804688 118.585938 262.683594 117.980469 C 261.566406 117.816406 259.617188 117.421875 258.351562 117.109375 C 255.667969 116.441406 254.191406 116.269531 252.054688 116.375 C 250.246094 116.464844 249.292969 116.34375 246.847656 115.71875 C 244.429688 115.09375 242.601562 114.863281 241.09375 114.984375 M 230.414062 121.261719 C 227.886719 121.371094 225.675781 122.050781 224.195312 123.167969 C 222.316406 124.582031 223.203125 125.113281 225.910156 124.191406 C 228.210938 123.410156 229.113281 123.273438 232.792969 123.148438 C 237.328125 123 237.613281 122.960938 237.613281 122.519531 C 237.613281 121.9375 233.816406 121.089844 231.71875 121.199219 C 231.351562 121.21875 230.765625 121.246094 230.414062 121.261719 M 202.179688 122.152344 C 199.503906 123.257812 197.089844 125.707031 198.46875 125.914062 C 199.054688 126 201.167969 124.542969 202.488281 123.144531 C 203.578125 121.988281 203.464844 121.621094 202.179688 122.152344 M 227.746094 124.378906 C 224.015625 125.050781 221.554688 127.175781 224.785156 126.941406 C 227.515625 126.738281 231.949219 125.089844 231.269531 124.527344 C 231.082031 124.375 228.40625 124.261719 227.746094 124.378906 M 276.3125 125.710938 C 274.570312 126.214844 276.425781 127.125 279.222656 127.136719 C 281.265625 127.144531 281.886719 126.78125 280.785156 126.222656 C 279.6875 125.667969 277.375 125.402344 276.3125 125.710938 M 225.332031 127.277344 C 223.867188 127.671875 223.539062 128.273438 224.539062 128.730469 C 225.527344 129.179688 231.71875 128.910156 232.234375 128.394531 C 232.976562 127.652344 227.328125 126.738281 225.332031 127.277344 M 278.0625 127.726562 C 278 127.75 277.808594 127.800781 277.640625 127.839844 C 276.695312 128.046875 277.355469 128.515625 278.875 128.714844 C 281.285156 129.035156 282.394531 128.652344 280.847656 128.039062 C 280.203125 127.78125 278.421875 127.582031 278.0625 127.726562 M 277.40625 129.609375 C 277.191406 129.871094 277.839844 130.410156 279.203125 131.097656 C 280.425781 131.710938 281.09375 131.871094 281.207031 131.578125 C 281.488281 130.847656 277.914062 129 277.40625 129.609375 M 276.769531 131.109375 C 276.488281 131.328125 277.15625 131.96875 278.601562 132.867188 C 280.105469 133.804688 280.636719 133.722656 279.628906 132.710938 C 278.585938 131.664062 277.113281 130.839844 276.769531 131.109375 M 312.269531 135.011719 C 311.960938 135.316406 312.167969 135.558594 315.382812 138.652344 C 318.015625 141.183594 319.378906 143.074219 322 147.8125 C 322.847656 149.347656 323.820312 151.097656 324.164062 151.703125 C 324.507812 152.308594 325.210938 153.640625 325.726562 154.660156 C 326.9375 157.0625 327.261719 157.425781 327.554688 156.71875 C 328.082031 155.445312 326.671875 152.105469 322.660156 145.097656 C 320.300781 140.984375 317.8125 138.355469 313.53125 135.449219 C 312.625 134.835938 312.488281 134.789062 312.269531 135.011719 M 215.542969 138.601562 C 214.878906 138.960938 214.214844 139.542969 213.191406 140.652344 C 212.421875 141.492188 212.285156 141.5625 211.105469 141.714844 C 209.742188 141.890625 209.011719 142.183594 207.710938 143.070312 C 207.109375 143.476562 206.136719 144.136719 205.546875 144.539062 C 204.824219 145.03125 204.113281 145.398438 203.371094 145.660156 C 201.875 146.1875 201.679688 146.378906 202.175781 146.828125 C 203.261719 147.808594 205.03125 147.472656 208.941406 145.546875 C 210.109375 144.972656 210.1875 144.953125 211.671875 144.859375 C 213.664062 144.734375 214.6875 144.15625 215.78125 142.542969 C 217.8125 139.550781 217.683594 137.4375 215.542969 138.601562 M 201.921875 140.125 C 201.792969 140.199219 201.105469 140.289062 200.394531 140.324219 C 198.578125 140.414062 196.84375 141.414062 195.273438 143.269531 C 194.207031 144.535156 195.320312 144.941406 197.046875 143.917969 C 198.839844 142.851562 199.273438 142.703125 200.535156 142.738281 C 202.070312 142.777344 202.875 142.242188 203.25 140.925781 C 203.445312 140.246094 202.585938 139.726562 201.921875 140.125 M 318.59375 150.964844 C 318.488281 151.070312 318.671875 151.367188 319.644531 152.675781 C 321.066406 154.582031 322.796875 157.273438 324.390625 160.042969 C 326.253906 163.285156 326.828125 163.992188 327.042969 163.3125 C 327.300781 162.496094 325.9375 159.484375 323.882812 156.34375 C 321.867188 153.265625 319.101562 150.453125 318.59375 150.964844 M 213.128906 154.851562 C 212.5625 155.132812 212.085938 155.542969 210.992188 156.675781 C 210.214844 157.480469 209.03125 158.679688 208.363281 159.335938 C 207.207031 160.472656 207.15625 160.542969 207.367188 160.703125 C 208.40625 161.480469 211.722656 159.171875 214.035156 156.066406 C 214.761719 155.089844 214.78125 154.925781 214.203125 154.621094 C 213.878906 154.449219 213.96875 154.429688 213.128906 154.851562 M 215.578125 157.207031 C 213.9375 157.992188 212.367188 159.761719 212.890625 160.238281 C 213.1875 160.503906 213.652344 160.402344 214.746094 159.824219 C 215.226562 159.570312 216.050781 159.144531 216.582031 158.875 C 217.953125 158.183594 218.261719 157.667969 217.574219 157.21875 C 217.0625 156.878906 216.273438 156.878906 215.578125 157.207031 M 318.898438 157.226562 C 318.855469 157.34375 319.085938 157.78125 319.53125 158.417969 C 319.917969 158.96875 321.035156 160.59375 322.015625 162.03125 C 324.386719 165.511719 324.960938 166.089844 325.179688 165.214844 C 325.550781 163.726562 323.0625 160.21875 319.753906 157.578125 C 319 156.972656 318.996094 156.972656 318.898438 157.226562 M 215.601562 161.570312 C 213.570312 162.027344 212.816406 162.765625 213.738281 163.398438 C 214.796875 164.121094 219.039062 162.890625 219.039062 161.859375 C 219.039062 161.332031 217.300781 161.183594 215.601562 161.570312 M 318.242188 164.097656 C 317.996094 164.371094 318.003906 164.386719 320.074219 166.679688 C 323.1875 170.125 324.980469 172.601562 326.179688 175.117188 C 327.304688 177.476562 327.484375 177.808594 327.832031 178.140625 L 328.164062 178.457031 L 328.460938 178.113281 C 329.28125 177.164062 328.082031 173.484375 325.992188 170.558594 C 323.507812 167.070312 318.972656 163.292969 318.242188 164.097656 M 322.699219 176.242188 C 322.589844 176.371094 322.675781 176.667969 323.105469 177.660156 C 323.867188 179.40625 324.511719 181.375 324.664062 182.433594 C 324.738281 182.929688 324.851562 183.714844 324.921875 184.183594 C 325.316406 186.832031 326.925781 185.742188 326.710938 182.972656 C 326.472656 179.898438 323.628906 175.121094 322.699219 176.242188 M 318.933594 181.28125 C 318.554688 181.703125 319.523438 183.832031 322.089844 188.207031 C 323.421875 190.476562 323.921875 190.953125 324.410156 190.433594 C 325.375 189.410156 323.34375 185.308594 320.191406 181.902344 C 319.367188 181.011719 319.238281 180.949219 318.933594 181.28125 M 282.804688 184.839844 C 282.644531 185.257812 283.066406 185.898438 284.4375 187.335938 C 287.285156 190.316406 290.023438 194.777344 291.863281 199.441406 C 293.144531 202.679688 293.257812 202.890625 293.78125 202.890625 C 294.578125 202.890625 294.660156 202.675781 294.65625 200.640625 L 294.652344 198.882812 L 294.179688 197.609375 C 292.617188 193.386719 290.28125 190.03125 286.535156 186.625 C 284.773438 185.023438 283.050781 184.199219 282.804688 184.839844 M 320.03125 189.472656 C 319.921875 189.605469 320 189.851562 320.414062 190.671875 C 322.632812 195.09375 323.46875 198.691406 323.71875 204.921875 C 323.816406 207.371094 323.964844 208.113281 324.421875 208.394531 C 324.625 208.519531 325.320312 207.546875 325.511719 206.867188 C 326.953125 201.773438 325.351562 194.601562 321.878906 190.613281 C 320.882812 189.46875 320.320312 189.121094 320.03125 189.472656 M 296.109375 193.191406 C 296.109375 193.34375 296.289062 194.296875 296.511719 195.308594 C 297.269531 198.785156 297.5625 200.917969 297.726562 204.195312 C 297.84375 206.53125 297.96875 206.875 298.574219 206.523438 C 300.515625 205.386719 299.5625 197.570312 296.988281 193.550781 C 296.535156 192.839844 296.109375 192.667969 296.109375 193.191406 M 206.5625 198.132812 C 204.503906 198.351562 204.027344 199.507812 205.855469 199.859375 C 212.523438 201.160156 213.527344 201.308594 215.441406 201.296875 C 218.320312 201.285156 220.226562 200.671875 218.21875 200.402344 C 217.570312 200.316406 213.363281 199.257812 211.296875 198.664062 C 209.96875 198.28125 208.332031 197.992188 207.667969 198.03125 C 207.507812 198.039062 207.007812 198.085938 206.5625 198.132812 M 319.726562 199.453125 C 319.53125 199.753906 319.527344 199.585938 319.902344 206.488281 C 320.097656 210.078125 320.535156 211.324219 321.300781 210.46875 C 322.390625 209.25 322.140625 204.449219 320.78125 200.460938 C 320.355469 199.21875 320.066406 198.941406 319.726562 199.453125 M 208.855469 202.660156 C 207.261719 203.300781 211.710938 205.550781 216.082031 206.316406 C 216.972656 206.472656 218.019531 206.660156 218.402344 206.730469 C 220.140625 207.054688 224.261719 207 224.261719 206.65625 C 224.261719 206.375 220.9375 205.203125 219.320312 204.914062 C 219.070312 204.871094 217.847656 204.558594 216.601562 204.214844 C 215.359375 203.878906 213.609375 203.410156 212.714844 203.179688 C 211.820312 202.945312 210.90625 202.710938 210.683594 202.652344 C 210.171875 202.519531 209.195312 202.523438 208.855469 202.660156 M 216.875 209.621094 C 215.371094 209.933594 215.421875 210.835938 216.960938 211.214844 C 224.160156 212.988281 227.589844 214.875 234.066406 220.625 C 235.742188 222.113281 235.480469 221.207031 233.535156 218.765625 C 228.636719 212.625 221.429688 208.667969 216.875 209.621094 M 276.003906 213.421875 C 275.632812 213.503906 275.773438 213.757812 278.445312 217.769531 C 284.019531 226.148438 284.957031 228.683594 285.191406 235.996094 C 285.285156 238.960938 285.335938 239.21875 285.785156 239.21875 C 286.015625 239.21875 286.476562 238.703125 286.476562 238.449219 C 286.476562 237.941406 286.757812 238.539062 287.453125 240.523438 C 289.003906 244.953125 289.183594 246.414062 288.585938 249.722656 C 288.078125 252.519531 288 253.28125 287.867188 256.746094 C 287.722656 260.550781 287.492188 262.890625 287.113281 264.339844 C 286.511719 266.664062 286.992188 267.480469 288.25 266.28125 C 289.207031 265.367188 289.617188 262.914062 289.789062 257.09375 C 289.875 254.171875 289.996094 252.933594 290.375 251.125 C 291.464844 245.929688 291.265625 244.476562 288.550781 237.777344 L 287.273438 234.632812 L 287.226562 233.09375 C 287.121094 229.683594 286.242188 226.546875 284.542969 223.492188 C 282.128906 219.15625 277.0625 213.183594 276.003906 213.421875 M 320.605469 213.792969 C 320.464844 214.058594 320.464844 215.660156 320.605469 216.644531 C 320.660156 217.027344 320.789062 218.132812 320.890625 219.097656 C 321.242188 222.53125 322.191406 223.566406 322.761719 221.148438 C 323.382812 218.507812 321.507812 212.105469 320.605469 213.792969 M 107.613281 215.742188 C 105.484375 215.984375 103.761719 216.890625 101.855469 218.769531 C 99.292969 221.292969 100.570312 221.957031 103.804688 219.789062 C 106.4375 218.019531 108.75 217.34375 111.941406 217.414062 C 113.445312 217.445312 113.671875 217.328125 113.109375 216.824219 C 112.214844 216.015625 109.632812 215.507812 107.613281 215.742188 M 113.996094 217.671875 C 112.792969 217.996094 111.917969 218.757812 112.210938 219.226562 C 112.386719 219.507812 113.878906 219.550781 115.621094 219.324219 C 116.355469 219.230469 117.464844 219.117188 118.089844 219.078125 C 119.058594 219.011719 119.21875 218.972656 119.21875 218.796875 C 119.21875 217.9375 115.769531 217.191406 113.996094 217.671875 M 87.015625 218.761719 C 83.640625 220.566406 81.21875 226.164062 81.210938 232.195312 C 81.207031 234.582031 81.292969 235.113281 81.667969 234.96875 C 81.90625 234.875 82.105469 234.265625 82.835938 231.382812 C 83.949219 226.988281 85.082031 224.582031 87.414062 221.644531 C 88.617188 220.132812 89.042969 219.390625 88.90625 219.035156 C 88.59375 218.207031 88.171875 218.148438 87.015625 218.761719 M 184.859375 220.523438 C 183.773438 220.710938 183.425781 221.105469 183.929688 221.578125 C 184.320312 221.945312 184.253906 221.960938 183.515625 221.671875 C 182.074219 221.105469 178.671875 221.34375 178.304688 222.035156 C 178.03125 222.542969 178.644531 223.023438 179.800781 223.207031 C 184.457031 223.960938 190.734375 228.738281 197.371094 236.585938 C 198.230469 237.605469 198.535156 237.402344 197.992188 236.171875 C 196.164062 232.039062 189.371094 224.746094 185.148438 222.390625 C 184.667969 222.121094 184.382812 221.9375 184.511719 221.980469 C 184.636719 222.023438 184.949219 222.105469 185.207031 222.164062 C 189.164062 223.078125 191.105469 223.65625 192.726562 224.410156 C 195.71875 225.800781 200.585938 227.40625 200.585938 227 C 200.585938 226.828125 200.816406 226.980469 197.160156 224.765625 C 190.933594 220.992188 188.007812 219.984375 184.859375 220.523438 M 317.773438 221.328125 C 317.578125 221.539062 317.585938 221.648438 317.867188 223.695312 C 318.046875 224.984375 318.1875 226.609375 318.214844 227.757812 C 318.296875 230.925781 319.121094 231.742188 319.886719 229.414062 C 320.875 226.402344 319.152344 219.804688 317.773438 221.328125 M 89.699219 225.183594 C 87.28125 225.851562 84.082031 233.761719 85.28125 236.105469 C 85.585938 236.699219 85.9375 236.625 86.089844 235.933594 C 86.386719 234.570312 87.839844 231.421875 89.445312 228.65625 C 89.835938 227.984375 90.226562 227.253906 90.3125 227.03125 C 90.402344 226.808594 90.515625 226.574219 90.570312 226.515625 C 91.003906 226.023438 90.34375 225.007812 89.699219 225.183594 M 314.5625 227.558594 C 314.5 227.722656 314.429688 228.960938 314.402344 230.316406 C 314.375 231.667969 314.292969 233.386719 314.214844 234.128906 C 313.644531 239.796875 315.113281 241.851562 316.234375 236.957031 C 317.082031 233.257812 316.757812 229.652344 315.414062 227.816406 C 314.960938 227.195312 314.730469 227.125 314.5625 227.558594 M 130.539062 230.234375 C 126.433594 230.96875 122.746094 233.621094 122.921875 235.707031 C 122.964844 236.214844 124.183594 235.726562 125.648438 234.621094 C 126.597656 233.902344 128.320312 232.929688 129.476562 232.460938 C 131.0625 231.816406 133.671875 230.460938 133.671875 230.28125 C 133.671875 230.039062 131.78125 230.011719 130.539062 230.234375 M 91.828125 230.484375 C 89.691406 231.296875 87.8125 236.011719 88.554688 238.6875 C 88.847656 239.746094 89.199219 239.382812 90.09375 237.109375 C 90.5625 235.90625 91.121094 234.742188 91.636719 233.886719 C 92.953125 231.703125 93.066406 231.34375 92.632812 230.734375 C 92.398438 230.410156 92.191406 230.34375 91.828125 230.484375 M 135.46875 232.660156 C 133.003906 233.050781 130.714844 234.796875 130.710938 236.285156 C 130.710938 237.203125 131.390625 237.097656 134.117188 235.75 C 135.277344 235.179688 136.511719 234.597656 136.863281 234.460938 C 139.667969 233.367188 138.722656 232.144531 135.46875 232.660156 M 122.804688 233.347656 C 121.171875 234.027344 118.917969 235.539062 117.015625 237.230469 C 114.53125 239.445312 113.847656 240.355469 112.0625 243.863281 C 111.429688 245.105469 110.316406 247.140625 109.589844 248.382812 C 107.480469 252 106.925781 253.367188 106.917969 254.960938 C 106.914062 256.527344 107.886719 255.84375 109.085938 253.4375 C 109.34375 252.925781 110.175781 251.492188 110.941406 250.246094 C 112.585938 247.566406 113.214844 246.449219 114.324219 244.265625 C 115.820312 241.308594 116.6875 240.1875 119.355469 237.757812 C 123.910156 233.613281 124.75 232.539062 122.804688 233.347656 M 94.175781 235.980469 C 93.125 236.507812 92.1875 238.253906 91.953125 240.140625 C 91.828125 241.109375 91.902344 242.46875 92.074219 242.46875 C 92.476562 242.46875 95.195312 237.453125 95.195312 236.707031 C 95.195312 236.484375 95.089844 236.210938 94.933594 236.03125 L 94.671875 235.730469 L 94.175781 235.980469 M 312.496094 236.703125 C 311.882812 237.355469 311.167969 242.066406 311.570312 242.804688 C 312.339844 244.21875 313.632812 241.605469 313.632812 238.640625 C 313.632812 236.996094 313.089844 236.074219 312.496094 236.703125 M 96.753906 241.222656 C 96.21875 241.851562 95.570312 244.042969 95.835938 244.3125 C 95.929688 244.402344 96.808594 243.722656 97.109375 243.328125 C 98.144531 241.972656 97.804688 239.976562 96.753906 241.222656 M 66.523438 242.808594 C 66.171875 242.925781 65.078125 243.414062 64.085938 243.898438 C 63.097656 244.378906 61.855469 244.914062 61.332031 245.082031 C 60.421875 245.375 60.265625 245.496094 60.460938 245.789062 C 61.222656 246.929688 65.6875 245.671875 67.65625 243.761719 C 68.554688 242.890625 67.914062 242.347656 66.523438 242.808594 M 68.207031 245.195312 C 67.695312 245.546875 66.925781 246.082031 66.496094 246.386719 C 65.097656 247.371094 63.546875 248.082031 59.835938 249.4375 C 57.210938 250.398438 57.1875 250.546875 59.652344 250.519531 C 63.734375 250.472656 68 248.53125 69.457031 246.058594 C 70.371094 244.496094 69.800781 244.101562 68.207031 245.195312 M 215.09375 246.667969 C 215.09375 247.152344 215.507812 247.832031 216.425781 248.855469 C 218.804688 251.523438 220.402344 254.25 221.078125 256.796875 C 221.886719 259.867188 222.117188 265.375 221.4375 265.472656 C 220.855469 265.554688 220.90625 266.46875 221.683594 269.6875 C 222.753906 274.125 220.691406 283.121094 217.441406 288.199219 C 217.214844 288.550781 216.664062 289.441406 216.214844 290.171875 C 215.765625 290.90625 214.96875 292.167969 214.445312 292.972656 C 212.4375 296.058594 212.792969 296.101562 215.730469 293.132812 C 221.730469 287.078125 224.980469 279.636719 224.683594 272.648438 C 224.582031 270.210938 224.082031 268.128906 223.3125 266.898438 C 223.042969 266.464844 223.035156 266.414062 223.191406 266.03125 C 224.148438 263.710938 224.097656 258.199219 223.089844 255.035156 C 221.859375 251.171875 217.910156 246.539062 215.65625 246.324219 L 215.09375 246.269531 L 215.09375 246.667969 M 66.234375 250.085938 C 62.890625 252.09375 60.007812 253.09375 57.148438 253.230469 C 55.59375 253.304688 55.488281 253.375 56.28125 253.820312 C 58.96875 255.316406 64.84375 253.847656 67.378906 251.042969 C 68.957031 249.300781 68.363281 248.804688 66.234375 250.085938 M 68.9375 251.78125 C 68.378906 252.117188 67.074219 252.964844 66.035156 253.667969 C 61.539062 256.695312 59.636719 257.300781 54.996094 257.175781 C 52.175781 257.101562 51.8125 257.367188 53.621094 258.175781 C 58.089844 260.183594 64.015625 258.625 68.679688 254.210938 C 71.316406 251.722656 71.46875 250.246094 68.9375 251.78125 M 299.582031 254.097656 C 297.128906 255.8125 294.441406 259.542969 296.441406 258.457031 C 298.277344 257.457031 301.585938 253.496094 300.585938 253.496094 C 300.507812 253.496094 300.054688 253.765625 299.582031 254.097656 M 166.097656 257.640625 C 164.796875 259.171875 163.152344 261.984375 163.273438 262.464844 C 163.492188 263.347656 165.40625 261.859375 166.246094 260.152344 C 166.882812 258.855469 166.765625 256.851562 166.097656 257.640625 M 283.03125 261.707031 C 283.050781 265.800781 282.738281 268.460938 281.949219 270.808594 C 281.351562 272.597656 281.320312 272.617188 281.148438 271.292969 C 280.957031 269.839844 280.785156 269.390625 280.441406 269.480469 C 280.101562 269.570312 280.050781 269.742188 279.691406 272.011719 C 279.519531 273.09375 279.226562 274.441406 279.042969 275 C 278.511719 276.597656 275.359375 282.78125 274.160156 284.574219 C 273.136719 286.105469 272.957031 286.480469 273.03125 286.886719 C 273.148438 287.496094 274.472656 286.949219 275.519531 285.855469 C 276.382812 284.960938 279.183594 280.617188 280.164062 278.652344 C 280.457031 278.0625 280.789062 277.476562 280.898438 277.347656 C 281.140625 277.066406 282.496094 274.796875 282.917969 273.960938 C 284.796875 270.257812 285.160156 265.578125 283.960938 260.691406 C 283.300781 258.007812 283.011719 258.324219 283.03125 261.707031 M 293.820312 259.410156 C 292.679688 260.476562 290.710938 264.121094 290.421875 265.710938 C 290.046875 267.765625 291.46875 267.394531 292.5625 265.15625 C 294.214844 261.765625 294.964844 258.34375 293.820312 259.410156 M 167.671875 262.417969 C 165.71875 263.605469 163.199219 268.910156 164.777344 268.515625 C 165.765625 268.269531 168.128906 264.636719 168.28125 263.125 C 168.363281 262.308594 168.1875 262.105469 167.671875 262.417969 M 134.3125 265.273438 C 134.238281 265.363281 133.949219 266.34375 133.671875 267.445312 C 132.941406 270.367188 132.460938 271.613281 131.523438 272.996094 C 129.960938 275.304688 130.792969 275.976562 132.832031 274.050781 C 134.09375 272.863281 134.847656 271.117188 135.113281 268.777344 C 135.328125 266.886719 134.820312 264.660156 134.3125 265.273438 M 99.457031 266.003906 C 98.246094 267.339844 98.40625 274.578125 99.738281 278.683594 C 100.402344 280.742188 102.054688 283.210938 102.761719 283.210938 C 103.78125 283.210938 103.738281 282.660156 102.382812 278.101562 C 101.328125 274.558594 100.984375 272.898438 100.300781 268.085938 C 99.976562 265.800781 99.875 265.542969 99.457031 266.003906 M 145.171875 274.496094 C 144.074219 275.445312 143.335938 276.488281 141.714844 279.378906 C 139.863281 282.691406 137.355469 286.101562 135.039062 288.453125 C 132.925781 290.601562 132.855469 291.25 134.8125 290.519531 C 138.367188 289.1875 141.78125 284.71875 144.867188 277.347656 C 145.105469 276.773438 145.5 275.898438 145.734375 275.40625 C 146.386719 274.042969 146.144531 273.652344 145.171875 274.496094 M 103.835938 275.832031 C 102.566406 276.761719 105.296875 284.964844 107.210938 285.96875 C 108.347656 286.566406 108.265625 285.800781 106.796875 282.28125 C 106.332031 281.164062 105.652344 279.328125 105.28125 278.199219 C 104.398438 275.492188 104.367188 275.4375 103.835938 275.832031 M 261.832031 277.253906 C 261.675781 277.496094 261.195312 278.269531 260.761719 278.972656 C 254.5625 289.027344 248.289062 296.148438 241.128906 301.257812 C 238.761719 302.949219 240.113281 303.675781 243.148438 302.339844 C 248.980469 299.773438 258.046875 288.441406 261.792969 279.03125 C 262.53125 277.179688 262.554688 276.125 261.832031 277.253906 M 108.4375 280.148438 C 107.269531 280.96875 110.292969 287.308594 112.226562 288.089844 C 113.085938 288.433594 112.992188 287.832031 111.882812 285.820312 C 110.480469 283.285156 110.023438 282.386719 109.535156 281.179688 C 109.039062 279.960938 108.898438 279.828125 108.4375 280.148438 M 45.804688 282.046875 C 41.847656 282.605469 40.5625 286.539062 43.320312 289.632812 C 47.570312 294.390625 59.800781 295.882812 69.601562 292.835938 C 74.078125 291.441406 75.476562 287.101562 72.15625 284.898438 C 70.117188 283.546875 67.851562 283.222656 61.914062 283.449219 C 56.347656 283.65625 55.726562 283.601562 49.578125 282.296875 C 48.246094 282.011719 46.75 281.914062 45.804688 282.046875 M 223.988281 282.257812 C 223.957031 282.308594 223.800781 283 223.636719 283.796875 C 222.382812 290 220.796875 293.234375 217.175781 296.972656 C 214.96875 299.25 214.558594 299.804688 214.441406 300.652344 L 214.367188 301.183594 L 214.8125 301.269531 C 215.339844 301.367188 215.757812 301.160156 217.09375 300.144531 C 221.5625 296.742188 223.683594 292.691406 224.445312 286.101562 C 224.746094 283.503906 224.5 281.429688 223.988281 282.257812 M 112.488281 283.65625 C 112.488281 285.484375 116.101562 291.21875 117.257812 291.21875 C 117.902344 291.21875 117.375 290.164062 114.601562 285.910156 C 112.886719 283.285156 112.488281 282.855469 112.488281 283.65625 M 269.910156 284.117188 C 269.699219 284.25 269.015625 285.800781 268.65625 286.964844 C 268.050781 288.914062 268.671875 290.085938 269.742188 289.019531 C 270.957031 287.800781 271.113281 283.351562 269.910156 284.117188 M 170.597656 284.921875 C 170.570312 284.96875 170.332031 285.660156 170.074219 286.460938 C 168.984375 289.796875 166.761719 293.515625 164.320312 296.070312 C 160.023438 300.566406 152.527344 303.621094 144.914062 303.980469 C 142.222656 304.109375 141.609375 304.351562 142.265625 305.039062 C 144.484375 307.351562 155.3125 305.101562 161.757812 300.992188 C 166.859375 297.738281 171.21875 290.902344 171.21875 286.167969 C 171.21875 285.140625 170.882812 284.464844 170.597656 284.921875 M 246.277344 286.777344 C 245.804688 287.335938 244.691406 288.65625 243.800781 289.710938 C 242.910156 290.761719 241.875 292.015625 241.492188 292.5 C 238.070312 296.835938 233.453125 301.84375 230.066406 304.890625 C 227.230469 307.445312 226.851562 307.855469 226.75 308.484375 L 226.675781 308.953125 L 227.125 309.027344 C 228.453125 309.253906 231.476562 307.242188 234.777344 303.9375 C 237.503906 301.210938 239.460938 298.753906 243.582031 292.902344 C 245.222656 290.570312 247.578125 286.3125 247.4375 285.9375 C 247.316406 285.625 247.148438 285.746094 246.277344 286.777344 M 226.378906 287.765625 C 225.804688 288.476562 224.816406 291.003906 224.617188 292.261719 C 224.128906 295.359375 225.253906 296.164062 225.988281 293.242188 C 226.933594 289.476562 227.121094 286.847656 226.378906 287.765625 M 149.335938 289.988281 C 148.679688 290.273438 147.523438 291.449219 147.5625 291.789062 C 147.660156 292.605469 149.582031 291.707031 150.394531 290.464844 C 150.757812 289.914062 150.144531 289.636719 149.335938 289.988281 M 236.140625 292.007812 C 229.164062 298.25 226.554688 300.40625 223.28125 302.625 C 218.761719 305.6875 217.148438 308.191406 220.828125 306.429688 C 223.113281 305.332031 228.246094 301.640625 230.730469 299.296875 C 233.148438 297.019531 237.871094 291.425781 237.664062 291.089844 C 237.519531 290.859375 237.230469 291.03125 236.140625 292.007812 M 150.648438 293.242188 C 149.035156 293.898438 145.308594 296.582031 145.527344 296.933594 C 145.714844 297.238281 148.109375 296.640625 149.421875 295.957031 C 151.707031 294.769531 152.792969 292.367188 150.648438 293.242188 M 152.9375 295.371094 C 152.363281 295.671875 151.4375 296.246094 150.875 296.644531 C 148.855469 298.085938 145.320312 299.992188 144.847656 299.898438 C 144.5625 299.839844 144.6875 300.410156 145.007812 300.652344 C 147.046875 302.171875 156.488281 296.84375 154.847656 295.101562 C 154.46875 294.699219 154.132812 294.746094 152.9375 295.371094 M 220.363281 299.953125 C 215.828125 304.203125 212.167969 306.574219 207.246094 308.4375 C 203.347656 309.917969 205.25 311.09375 209.398438 309.769531 C 213 308.617188 217.671875 305.023438 220.632812 301.128906 C 222.519531 298.644531 222.382812 298.0625 220.363281 299.953125 M 199.398438 301.527344 C 194.6875 305.496094 190.808594 307.757812 185.730469 309.503906 C 181.832031 310.839844 180.855469 311.367188 180.855469 312.125 C 180.855469 313.417969 187.554688 311.871094 191.136719 309.75 C 194.847656 307.554688 198.101562 304.890625 200.027344 302.46875 C 201.585938 300.503906 201.234375 299.976562 199.398438 301.527344 M 211.257812 301.179688 C 211.039062 301.300781 209.917969 302 208.769531 302.734375 C 204.960938 305.179688 202.328125 306.601562 199.671875 307.644531 C 197.972656 308.3125 196.703125 309.320312 197.082031 309.695312 C 197.707031 310.324219 200.738281 309.511719 203.96875 307.855469 C 206.839844 306.382812 212.191406 301.941406 212.191406 301.03125 C 212.191406 300.890625 211.636719 300.980469 211.257812 301.179688 " fill-opacity="1" fill-rule="evenodd"/></g></svg>