<svg xmlns="http://www.w3.org/2000/svg" xmlns:xlink="http://www.w3.org/1999/xlink" width="500" zoomAndPan="magnify" viewBox="0 0 375 374.999991" height="500" preserveAspectRatio="xMidYMid meet" version="1.0"><defs><clipPath id="d1df7f7e87"><path d="M 236 32.386719 L 339.238281 32.386719 L 339.238281 147 L 236 147 Z M 236 32.386719 " clip-rule="nonzero"/></clipPath><clipPath id="f60509f05c"><path d="M 35.488281 268 L 110 268 L 110 342.886719 L 35.488281 342.886719 Z M 35.488281 268 " clip-rule="nonzero"/></clipPath></defs><g clip-path="url(#d1df7f7e87)"><path fill="#37c2cc" d="M 249.199219 89.730469 C 258.996094 93.160156 267.878906 99.039062 274.839844 106.800781 C 280.859375 113.507812 285.320312 121.476562 287.941406 130.035156 C 290.554688 121.476562 295.019531 113.507812 301.035156 106.800781 C 308.007812 99.039062 316.890625 93.160156 326.683594 89.730469 C 316.890625 86.308594 308.007812 80.4375 301.035156 72.667969 C 295.019531 65.960938 290.554688 57.992188 287.941406 49.433594 C 285.320312 57.992188 280.859375 65.960938 274.839844 72.667969 C 267.878906 80.4375 258.996094 86.308594 249.199219 89.730469 Z M 287.941406 146.882812 C 286.578125 146.882812 285.449219 145.824219 285.359375 144.460938 C 284.5625 131.828125 279.453125 119.679688 271 110.253906 C 262.542969 100.824219 251.015625 94.441406 238.535156 92.28125 C 237.300781 92.070312 236.398438 90.988281 236.398438 89.730469 C 236.398438 88.480469 237.300781 87.40625 238.535156 87.1875 C 251.015625 85.027344 262.542969 78.644531 271 69.222656 C 279.453125 59.800781 284.5625 47.640625 285.359375 35.007812 C 285.449219 33.652344 286.578125 32.585938 287.941406 32.585938 C 289.304688 32.585938 290.425781 33.652344 290.515625 35.007812 C 291.324219 47.648438 296.421875 59.800781 304.882812 69.222656 C 313.339844 78.644531 324.867188 85.027344 337.339844 87.1875 C 338.582031 87.40625 339.488281 88.480469 339.488281 89.730469 C 339.488281 90.988281 338.582031 92.070312 337.339844 92.28125 C 324.867188 94.441406 313.339844 100.824219 304.882812 110.253906 C 296.421875 119.671875 291.324219 131.828125 290.515625 144.460938 C 290.425781 145.824219 289.304688 146.882812 287.941406 146.882812 " fill-opacity="1" fill-rule="nonzero"/></g><g clip-path="url(#f60509f05c)"><path fill="#37c2cc" d="M 48.121094 305.398438 C 54.058594 307.65625 59.4375 311.078125 63.777344 315.425781 C 67.621094 319.257812 70.570312 323.734375 72.515625 328.5625 C 74.453125 323.734375 77.414062 319.257812 81.246094 315.425781 C 85.59375 311.078125 90.976562 307.65625 96.914062 305.398438 C 90.976562 303.140625 85.59375 299.71875 81.246094 295.371094 C 77.414062 291.539062 74.453125 287.058594 72.515625 282.234375 C 70.570312 287.058594 67.621094 291.539062 63.777344 295.371094 C 59.4375 299.71875 54.058594 303.132812 48.121094 305.398438 Z M 72.515625 342.398438 C 71.160156 342.398438 70.039062 341.355469 69.941406 340 C 69.394531 332.289062 65.910156 324.859375 60.132812 319.074219 C 54.300781 313.238281 46.328125 309.296875 37.695312 307.949219 C 36.4375 307.753906 35.507812 306.671875 35.507812 305.398438 C 35.507812 304.125 36.4375 303.042969 37.695312 302.847656 C 46.328125 301.5 54.300781 297.546875 60.132812 291.714844 C 65.910156 285.9375 69.394531 278.507812 69.941406 270.796875 C 70.039062 269.441406 71.160156 268.390625 72.515625 268.390625 C 73.871094 268.390625 74.992188 269.441406 75.089844 270.796875 C 75.640625 278.507812 79.125 285.9375 84.902344 291.714844 C 90.734375 297.546875 98.703125 301.5 107.335938 302.847656 C 108.585938 303.042969 109.515625 304.125 109.515625 305.398438 C 109.515625 306.671875 108.585938 307.753906 107.335938 307.949219 C 98.703125 309.296875 90.734375 313.238281 84.902344 319.074219 C 79.125 324.859375 75.640625 332.289062 75.089844 340 C 74.992188 341.355469 73.871094 342.398438 72.515625 342.398438 " fill-opacity="1" fill-rule="nonzero"/></g><path fill="#37c2cc" d="M 241.019531 322.871094 C 239.695312 322.871094 238.351562 322.710938 236.984375 322.355469 C 229.0625 320.308594 224.53125 312.722656 222.933594 306.308594 C 221.5625 300.863281 221.671875 295.304688 221.777344 289.933594 C 221.800781 288.65625 221.828125 287.382812 221.835938 286.109375 C 221.898438 269.675781 218.460938 253.03125 211.886719 237.960938 C 208.464844 230.125 204.753906 226.003906 200.214844 225.003906 C 192.402344 223.300781 185.34375 231.875 181.691406 239.75 C 174.757812 254.714844 171.425781 271.351562 172.058594 287.84375 L 172.144531 289.949219 C 172.558594 299.574219 173.03125 310.472656 165.402344 317.234375 C 161.828125 320.402344 157.15625 321.800781 151.910156 321.308594 C 145.230469 320.664062 138.511719 316.910156 134.355469 311.496094 C 127.773438 302.914062 126.199219 292.078125 124.683594 281.597656 L 124.570312 280.824219 C 120.316406 251.511719 114.40625 226.40625 106.488281 204.066406 C 104.214844 197.660156 101.679688 191.207031 99.230469 184.960938 C 94.542969 173.023438 89.699219 160.671875 86.417969 147.980469 C 80.457031 124.867188 81.035156 104.6875 88.152344 88.003906 C 96.953125 67.328125 116.839844 53.699219 136.46875 54.84375 C 147.628906 55.492188 157.632812 60.703125 167.304688 65.746094 C 176.695312 70.640625 185.570312 75.257812 195.269531 75.933594 C 206.054688 76.691406 215.65625 71.125 225.828125 65.238281 C 233.597656 60.742188 241.632812 56.085938 250.515625 54.214844 C 260.351562 52.132812 271.234375 53.820312 281.132812 58.96875 C 282.398438 59.628906 282.890625 61.1875 282.230469 62.453125 C 281.578125 63.71875 280.011719 64.210938 278.753906 63.550781 C 269.910156 58.953125 260.261719 57.433594 251.582031 59.265625 C 243.503906 60.96875 235.832031 65.414062 228.410156 69.707031 C 218.019531 75.726562 207.265625 81.9375 194.90625 81.089844 C 184.132812 80.332031 174.363281 75.25 164.917969 70.328125 C 155.300781 65.316406 146.222656 60.582031 136.171875 60 C 118.632812 58.9375 100.867188 71.320312 92.894531 90.027344 C 86.238281 105.640625 85.738281 124.703125 91.410156 146.6875 C 94.621094 159.082031 99.40625 171.28125 104.039062 183.074219 C 106.507812 189.359375 109.054688 195.855469 111.355469 202.339844 C 119.390625 225.011719 125.375 250.433594 129.675781 280.082031 L 129.789062 280.863281 C 131.21875 290.683594 132.6875 300.839844 138.453125 308.359375 C 141.714844 312.601562 147.183594 315.667969 152.402344 316.160156 C 155.042969 316.417969 158.851562 316.136719 161.980469 313.371094 C 167.765625 308.246094 167.371094 299.058594 166.980469 290.175781 L 166.894531 288.035156 C 166.230469 270.730469 169.734375 253.289062 177.003906 237.574219 C 181.679688 227.511719 190.523438 217.597656 201.328125 219.960938 C 209.597656 221.785156 214.015625 229.925781 216.613281 235.894531 C 223.480469 251.609375 227.0625 268.988281 227 286.132812 C 226.988281 287.429688 226.964844 288.730469 226.941406 290.027344 C 226.835938 295.296875 226.730469 300.273438 227.933594 305.058594 C 229.121094 309.8125 232.539062 315.871094 238.277344 317.355469 C 246.644531 319.507812 254.785156 311.019531 258.816406 302.21875 C 264.78125 289.183594 266.796875 274.472656 268.742188 260.242188 C 269.8125 252.394531 270.925781 244.269531 272.6875 236.402344 C 276.332031 220.097656 282.859375 204.488281 289.175781 189.382812 L 291.589844 183.597656 C 298.421875 167.140625 305.28125 149.535156 307.492188 131.132812 C 308.660156 121.363281 308.355469 111.941406 306.578125 103.132812 C 306.296875 101.734375 307.199219 100.371094 308.597656 100.089844 C 309.992188 99.800781 311.355469 100.710938 311.636719 102.113281 C 313.523438 111.457031 313.855469 121.429688 312.621094 131.746094 C 310.332031 150.804688 303.335938 168.792969 296.355469 185.582031 L 293.945312 191.375 C 287.714844 206.269531 281.269531 221.671875 277.726562 237.53125 C 276.011719 245.1875 274.914062 253.199219 273.855469 260.945312 C 271.863281 275.546875 269.796875 290.632812 263.511719 304.367188 C 259.058594 314.085938 250.667969 322.871094 241.019531 322.871094 " fill-opacity="1" fill-rule="nonzero"/><path fill="#37c2cc" d="M 112.429688 117 C 111.097656 117 109.96875 115.976562 109.855469 114.621094 C 109.128906 105.542969 113.871094 96.273438 121.664062 91.554688 C 122.882812 90.8125 124.472656 91.207031 125.207031 92.425781 C 125.949219 93.644531 125.5625 95.234375 124.335938 95.96875 C 118.179688 99.703125 114.429688 107.027344 115 114.207031 C 115.121094 115.628906 114.058594 116.878906 112.636719 116.992188 C 112.566406 116.992188 112.5 117 112.429688 117 " fill-opacity="1" fill-rule="nonzero"/><path fill="#37c2cc" d="M 131.824219 193.238281 C 130.96875 193.238281 130.128906 192.8125 129.636719 192.039062 C 120.769531 178.039062 114.5 162.035156 111.515625 145.738281 C 111.257812 144.332031 112.195312 142.984375 113.589844 142.726562 C 114.992188 142.460938 116.339844 143.398438 116.597656 144.800781 C 119.464844 160.460938 125.480469 175.835938 134 189.269531 C 134.765625 190.480469 134.40625 192.070312 133.203125 192.835938 C 132.773438 193.109375 132.296875 193.238281 131.824219 193.238281 " fill-opacity="1" fill-rule="nonzero"/></svg>