<svg xmlns="http://www.w3.org/2000/svg" xmlns:xlink="http://www.w3.org/1999/xlink" width="500" zoomAndPan="magnify" viewBox="0 0 375 374.999991" height="500" preserveAspectRatio="xMidYMid meet" version="1.0"><defs><clipPath id="0f904e88c3"><path d="M 66.167969 2.644531 L 370.011719 2.644531 L 370.011719 188.480469 L 66.167969 188.480469 Z M 66.167969 2.644531 " clip-rule="nonzero"/></clipPath><clipPath id="cdd5486b44"><path d="M 83.101562 83.101562 L 291.898438 83.101562 L 291.898438 291.898438 L 83.101562 291.898438 Z M 83.101562 83.101562 " clip-rule="nonzero"/></clipPath><clipPath id="ce8990d326"><path d="M 187.5 83.101562 C 129.84375 83.101562 83.101562 129.84375 83.101562 187.5 C 83.101562 245.15625 129.84375 291.898438 187.5 291.898438 C 245.15625 291.898438 291.898438 245.15625 291.898438 187.5 C 291.898438 129.84375 245.15625 83.101562 187.5 83.101562 Z M 187.5 83.101562 " clip-rule="nonzero"/></clipPath><clipPath id="4d6c9b13b6"><path d="M 107.136719 107.136719 L 267.507812 107.136719 L 267.507812 267.507812 L 107.136719 267.507812 Z M 107.136719 107.136719 " clip-rule="nonzero"/></clipPath></defs><path fill="#0068a6" d="M 342.78125 277.679688 C 321.632812 312.757812 288.570312 336.238281 251.898438 346.085938 C 281.066406 334.101562 306.785156 312.996094 324.3125 283.921875 C 367.722656 211.933594 344.542969 118.347656 272.550781 74.9375 C 235.636719 52.679688 193.042969 47.933594 154.449219 58.296875 C 197.511719 40.613281 248.101562 42.820312 291.019531 68.699219 C 363.007812 112.105469 386.1875 205.691406 342.78125 277.679688 " fill-opacity="1" fill-rule="evenodd"/><path fill="#0068a6" d="M 32.191406 95.296875 C 53.339844 60.222656 86.402344 36.738281 123.074219 26.894531 C 93.902344 38.878906 68.1875 59.984375 50.65625 89.058594 C 7.25 161.046875 30.425781 254.632812 102.417969 298.039062 C 139.332031 320.300781 181.925781 325.042969 220.519531 314.683594 C 177.460938 332.367188 126.867188 330.160156 83.953125 304.28125 C 11.960938 260.875 -11.21875 167.289062 32.191406 95.296875 " fill-opacity="1" fill-rule="evenodd"/><path fill="#7bab0a" d="M 286.878906 296.945312 C 308.03125 261.871094 313.367188 221.671875 304.957031 184.644531 C 307.976562 216.035156 301.3125 248.628906 283.78125 277.703125 C 240.375 349.695312 146.789062 372.875 74.800781 329.464844 C 37.882812 307.207031 13.808594 271.753906 4.960938 232.785156 C 9.414062 279.121094 34.980469 322.832031 77.898438 348.710938 C 149.890625 392.117188 243.472656 368.9375 286.878906 296.945312 " fill-opacity="1" fill-rule="evenodd"/><g clip-path="url(#0f904e88c3)"><path fill="#7bab0a" d="M 88.085938 76.03125 C 66.9375 111.109375 61.601562 151.308594 70.011719 188.335938 C 66.992188 156.945312 73.65625 124.351562 91.1875 95.277344 C 134.59375 23.285156 228.179688 0.105469 300.171875 43.515625 C 337.085938 65.773438 361.160156 101.226562 370.011719 140.195312 C 365.554688 93.859375 339.992188 50.148438 297.074219 24.269531 C 225.082031 -19.140625 131.496094 4.039062 88.085938 76.03125 " fill-opacity="1" fill-rule="evenodd"/></g><path fill="#7bab0a" d="M 114.484375 218.574219 L 114.484375 165.324219 L 156.320312 165.324219 L 156.320312 123.488281 L 209.570312 123.488281 L 209.570312 165.324219 L 251.410156 165.324219 L 251.410156 218.574219 L 209.570312 218.574219 L 209.570312 260.414062 L 156.320312 260.414062 L 156.320312 218.574219 L 114.484375 218.574219 " fill-opacity="1" fill-rule="evenodd"/><g clip-path="url(#cdd5486b44)"><g clip-path="url(#ce8990d326)"><path fill="#ffffff" d="M 83.101562 83.101562 L 291.898438 83.101562 L 291.898438 291.898438 L 83.101562 291.898438 Z M 83.101562 83.101562 " fill-opacity="1" fill-rule="nonzero"/></g></g><g clip-path="url(#4d6c9b13b6)"><path fill="#7bab0a" d="M 192.507812 267.835938 L 182.464844 267.835938 C 181.640625 267.832031 180.820312 267.792969 180.003906 267.710938 C 179.1875 267.628906 178.375 267.507812 177.566406 267.347656 C 176.761719 267.1875 175.964844 266.984375 175.179688 266.746094 C 174.390625 266.507812 173.621094 266.230469 172.859375 265.914062 C 172.101562 265.601562 171.359375 265.25 170.632812 264.859375 C 169.910156 264.472656 169.203125 264.050781 168.519531 263.59375 C 167.835938 263.136719 167.179688 262.648438 166.542969 262.125 C 165.90625 261.605469 165.300781 261.054688 164.71875 260.472656 C 164.136719 259.890625 163.585938 259.28125 163.0625 258.644531 C 162.542969 258.011719 162.054688 257.351562 161.597656 256.667969 C 161.140625 255.984375 160.714844 255.28125 160.328125 254.554688 C 159.941406 253.832031 159.589844 253.089844 159.273438 252.328125 C 158.960938 251.570312 158.683594 250.796875 158.441406 250.011719 C 158.203125 249.222656 158.003906 248.429688 157.84375 247.621094 C 157.679688 246.816406 157.558594 246.003906 157.480469 245.1875 C 157.398438 244.367188 157.355469 243.546875 157.355469 242.726562 L 157.355469 217.617188 L 132.246094 217.617188 C 131.425781 217.617188 130.605469 217.574219 129.785156 217.492188 C 128.96875 217.410156 128.15625 217.289062 127.347656 217.128906 C 126.542969 216.96875 125.746094 216.769531 124.960938 216.527344 C 124.175781 216.289062 123.402344 216.011719 122.640625 215.695312 C 121.882812 215.382812 121.140625 215.03125 120.414062 214.644531 C 119.691406 214.253906 118.988281 213.832031 118.304688 213.375 C 117.621094 212.917969 116.960938 212.429688 116.324219 211.90625 C 115.691406 211.386719 115.082031 210.835938 114.5 210.253906 C 113.917969 209.671875 113.367188 209.0625 112.84375 208.429688 C 112.324219 207.792969 111.835938 207.132812 111.378906 206.449219 C 110.921875 205.765625 110.5 205.0625 110.109375 204.339844 C 109.722656 203.613281 109.371094 202.871094 109.054688 202.113281 C 108.742188 201.351562 108.464844 200.578125 108.226562 199.792969 C 107.984375 199.007812 107.785156 198.210938 107.625 197.402344 C 107.464844 196.597656 107.34375 195.785156 107.261719 194.96875 C 107.179688 194.148438 107.136719 193.328125 107.136719 192.507812 L 107.136719 182.464844 C 107.136719 181.640625 107.179688 180.820312 107.261719 180.003906 C 107.34375 179.1875 107.464844 178.375 107.625 177.566406 C 107.785156 176.761719 107.984375 175.964844 108.226562 175.179688 C 108.464844 174.390625 108.742188 173.621094 109.054688 172.859375 C 109.371094 172.101562 109.722656 171.359375 110.109375 170.632812 C 110.5 169.910156 110.921875 169.203125 111.378906 168.519531 C 111.835938 167.835938 112.324219 167.179688 112.84375 166.542969 C 113.367188 165.90625 113.917969 165.300781 114.5 164.71875 C 115.082031 164.136719 115.691406 163.585938 116.324219 163.0625 C 116.960938 162.542969 117.621094 162.054688 118.304688 161.597656 C 118.988281 161.140625 119.691406 160.714844 120.414062 160.328125 C 121.140625 159.941406 121.882812 159.589844 122.640625 159.273438 C 123.402344 158.960938 124.175781 158.683594 124.960938 158.441406 C 125.746094 158.203125 126.542969 158.003906 127.347656 157.84375 C 128.15625 157.679688 128.96875 157.558594 129.785156 157.480469 C 130.605469 157.398438 131.425781 157.355469 132.246094 157.355469 L 157.355469 157.355469 L 157.355469 132.246094 C 157.355469 131.425781 157.398438 130.605469 157.480469 129.785156 C 157.558594 128.96875 157.679688 128.15625 157.84375 127.347656 C 158.003906 126.542969 158.203125 125.746094 158.441406 124.960938 C 158.683594 124.175781 158.960938 123.402344 159.273438 122.640625 C 159.589844 121.882812 159.941406 121.140625 160.328125 120.414062 C 160.714844 119.691406 161.140625 118.988281 161.597656 118.304688 C 162.054688 117.621094 162.542969 116.960938 163.0625 116.324219 C 163.585938 115.691406 164.136719 115.082031 164.71875 114.5 C 165.300781 113.917969 165.90625 113.367188 166.542969 112.84375 C 167.179688 112.324219 167.835938 111.835938 168.519531 111.378906 C 169.203125 110.921875 169.910156 110.5 170.632812 110.109375 C 171.359375 109.722656 172.101562 109.371094 172.859375 109.054688 C 173.621094 108.742188 174.390625 108.464844 175.179688 108.226562 C 175.964844 107.984375 176.761719 107.785156 177.566406 107.625 C 178.375 107.464844 179.1875 107.34375 180.003906 107.261719 C 180.820312 107.179688 181.640625 107.136719 182.464844 107.136719 L 192.507812 107.136719 C 194.710938 107.136719 196.878906 107.421875 199.007812 107.992188 C 201.136719 108.5625 203.152344 109.398438 205.0625 110.5 C 205.332031 110.671875 205.585938 110.871094 205.816406 111.089844 C 206.050781 111.3125 206.261719 111.550781 206.449219 111.8125 C 206.636719 112.074219 206.796875 112.347656 206.929688 112.640625 C 207.0625 112.933594 207.167969 113.234375 207.246094 113.542969 C 207.320312 113.855469 207.367188 114.171875 207.382812 114.492188 C 207.398438 114.8125 207.382812 115.132812 207.339844 115.449219 C 207.292969 115.769531 207.21875 116.078125 207.113281 116.382812 C 207.007812 116.683594 206.875 116.976562 206.714844 117.253906 C 206.554688 117.53125 206.371094 117.789062 206.160156 118.03125 C 205.949219 118.273438 205.71875 118.496094 205.464844 118.691406 C 205.210938 118.890625 204.941406 119.0625 204.65625 119.210938 C 204.371094 119.355469 204.074219 119.472656 203.765625 119.5625 C 203.460938 119.652344 203.144531 119.710938 202.824219 119.742188 C 202.507812 119.769531 202.1875 119.769531 201.867188 119.738281 C 201.546875 119.703125 201.234375 119.640625 200.929688 119.550781 C 200.621094 119.457031 200.324219 119.339844 200.039062 119.1875 C 197.707031 117.847656 195.199219 117.179688 192.507812 117.179688 L 182.464844 117.179688 C 181.476562 117.179688 180.496094 117.277344 179.523438 117.46875 C 178.554688 117.664062 177.613281 117.949219 176.699219 118.328125 C 175.785156 118.707031 174.917969 119.171875 174.09375 119.71875 C 173.273438 120.269531 172.511719 120.894531 171.8125 121.59375 C 171.113281 122.292969 170.488281 123.054688 169.9375 123.875 C 169.386719 124.699219 168.925781 125.566406 168.546875 126.480469 C 168.167969 127.394531 167.882812 128.335938 167.6875 129.308594 C 167.496094 130.277344 167.398438 131.257812 167.398438 132.246094 L 167.398438 162.375 C 167.398438 162.707031 167.367188 163.03125 167.300781 163.355469 C 167.238281 163.679688 167.140625 163.992188 167.015625 164.296875 C 166.890625 164.601562 166.734375 164.890625 166.550781 165.167969 C 166.367188 165.441406 166.160156 165.695312 165.925781 165.925781 C 165.695312 166.160156 165.441406 166.367188 165.167969 166.550781 C 164.890625 166.734375 164.601562 166.890625 164.296875 167.015625 C 163.992188 167.140625 163.679688 167.238281 163.355469 167.300781 C 163.03125 167.367188 162.707031 167.398438 162.375 167.398438 L 132.246094 167.398438 C 131.257812 167.398438 130.277344 167.496094 129.308594 167.6875 C 128.335938 167.882812 127.394531 168.167969 126.480469 168.546875 C 125.566406 168.925781 124.699219 169.386719 123.875 169.9375 C 123.054688 170.488281 122.292969 171.113281 121.59375 171.8125 C 120.894531 172.511719 120.269531 173.273438 119.71875 174.09375 C 119.171875 174.917969 118.707031 175.785156 118.328125 176.699219 C 117.949219 177.613281 117.664062 178.554688 117.46875 179.523438 C 117.277344 180.496094 117.179688 181.476562 117.179688 182.464844 L 117.179688 192.507812 C 117.179688 193.496094 117.277344 194.476562 117.46875 195.445312 C 117.664062 196.417969 117.949219 197.359375 118.328125 198.273438 C 118.707031 199.1875 119.171875 200.054688 119.71875 200.878906 C 120.269531 201.699219 120.894531 202.460938 121.59375 203.160156 C 122.292969 203.859375 123.054688 204.484375 123.875 205.035156 C 124.699219 205.582031 125.566406 206.046875 126.480469 206.425781 C 127.394531 206.804688 128.335938 207.089844 129.308594 207.285156 C 130.277344 207.476562 131.257812 207.574219 132.246094 207.574219 L 162.375 207.574219 C 162.707031 207.574219 163.03125 207.605469 163.355469 207.667969 C 163.679688 207.734375 163.992188 207.828125 164.296875 207.957031 C 164.601562 208.082031 164.890625 208.234375 165.167969 208.417969 C 165.441406 208.601562 165.695312 208.8125 165.925781 209.042969 C 166.160156 209.277344 166.367188 209.53125 166.550781 209.804688 C 166.734375 210.078125 166.890625 210.367188 167.015625 210.671875 C 167.140625 210.976562 167.238281 211.292969 167.300781 211.613281 C 167.367188 211.9375 167.398438 212.265625 167.398438 212.59375 L 167.398438 242.726562 C 167.398438 243.714844 167.496094 244.695312 167.6875 245.664062 C 167.882812 246.636719 168.167969 247.578125 168.546875 248.492188 C 168.925781 249.40625 169.386719 250.273438 169.9375 251.09375 C 170.488281 251.917969 171.113281 252.679688 171.8125 253.378906 C 172.511719 254.078125 173.273438 254.703125 174.09375 255.253906 C 174.917969 255.800781 175.785156 256.265625 176.699219 256.644531 C 177.613281 257.023438 178.554688 257.308594 179.523438 257.5 C 180.496094 257.695312 181.476562 257.789062 182.464844 257.789062 L 192.507812 257.789062 C 193.496094 257.789062 194.476562 257.695312 195.445312 257.5 C 196.417969 257.308594 197.359375 257.023438 198.273438 256.644531 C 199.1875 256.265625 200.054688 255.800781 200.878906 255.253906 C 201.699219 254.703125 202.460938 254.078125 203.160156 253.378906 C 203.859375 252.679688 204.484375 251.917969 205.035156 251.09375 C 205.582031 250.273438 206.046875 249.40625 206.425781 248.492188 C 206.804688 247.578125 207.089844 246.636719 207.285156 245.664062 C 207.476562 244.695312 207.574219 243.714844 207.574219 242.726562 L 207.574219 212.59375 C 207.574219 212.265625 207.605469 211.9375 207.667969 211.613281 C 207.734375 211.292969 207.828125 210.976562 207.957031 210.671875 C 208.082031 210.367188 208.234375 210.078125 208.417969 209.804688 C 208.601562 209.53125 208.8125 209.277344 209.042969 209.042969 C 209.277344 208.8125 209.53125 208.601562 209.804688 208.417969 C 210.078125 208.234375 210.367188 208.082031 210.671875 207.957031 C 210.976562 207.828125 211.292969 207.734375 211.613281 207.667969 C 211.9375 207.605469 212.265625 207.574219 212.59375 207.574219 L 242.726562 207.574219 C 243.714844 207.574219 244.695312 207.476562 245.664062 207.285156 C 246.636719 207.089844 247.578125 206.804688 248.492188 206.425781 C 249.40625 206.046875 250.273438 205.582031 251.09375 205.035156 C 251.917969 204.484375 252.679688 203.859375 253.378906 203.160156 C 254.078125 202.460938 254.703125 201.699219 255.253906 200.878906 C 255.800781 200.054688 256.265625 199.1875 256.644531 198.273438 C 257.023438 197.359375 257.308594 196.417969 257.5 195.445312 C 257.695312 194.476562 257.789062 193.496094 257.789062 192.507812 L 257.789062 182.464844 C 257.792969 179.773438 257.121094 177.261719 255.78125 174.929688 C 255.632812 174.648438 255.511719 174.351562 255.421875 174.042969 C 255.328125 173.738281 255.265625 173.421875 255.234375 173.105469 C 255.203125 172.785156 255.203125 172.464844 255.230469 172.144531 C 255.261719 171.828125 255.320312 171.511719 255.410156 171.203125 C 255.5 170.894531 255.617188 170.597656 255.761719 170.3125 C 255.910156 170.027344 256.082031 169.757812 256.277344 169.507812 C 256.476562 169.253906 256.695312 169.023438 256.9375 168.8125 C 257.179688 168.601562 257.441406 168.417969 257.71875 168.253906 C 257.996094 168.09375 258.289062 167.960938 258.589844 167.859375 C 258.894531 167.753906 259.203125 167.675781 259.523438 167.632812 C 259.839844 167.585938 260.15625 167.570312 260.480469 167.585938 C 260.800781 167.605469 261.113281 167.648438 261.425781 167.726562 C 261.738281 167.800781 262.039062 167.90625 262.332031 168.042969 C 262.621094 168.175781 262.898438 168.335938 263.160156 168.523438 C 263.421875 168.710938 263.660156 168.921875 263.882812 169.152344 C 264.101562 169.386719 264.296875 169.640625 264.46875 169.910156 C 265.574219 171.816406 266.410156 173.835938 266.980469 175.964844 C 267.550781 178.09375 267.835938 180.261719 267.835938 182.464844 L 267.835938 192.507812 C 267.832031 193.328125 267.792969 194.148438 267.710938 194.96875 C 267.628906 195.785156 267.507812 196.597656 267.347656 197.402344 C 267.1875 198.210938 266.984375 199.007812 266.746094 199.792969 C 266.507812 200.578125 266.230469 201.351562 265.914062 202.113281 C 265.601562 202.871094 265.25 203.613281 264.859375 204.339844 C 264.472656 205.0625 264.050781 205.765625 263.59375 206.449219 C 263.136719 207.132812 262.648438 207.792969 262.125 208.429688 C 261.605469 209.0625 261.054688 209.671875 260.472656 210.253906 C 259.890625 210.835938 259.28125 211.386719 258.644531 211.90625 C 258.011719 212.429688 257.351562 212.917969 256.667969 213.375 C 255.984375 213.832031 255.28125 214.253906 254.554688 214.644531 C 253.832031 215.03125 253.089844 215.382812 252.328125 215.695312 C 251.570312 216.011719 250.796875 216.289062 250.011719 216.527344 C 249.222656 216.769531 248.429688 216.96875 247.621094 217.128906 C 246.816406 217.289062 246.003906 217.410156 245.1875 217.492188 C 244.367188 217.574219 243.546875 217.617188 242.726562 217.617188 L 217.617188 217.617188 L 217.617188 242.726562 C 217.617188 243.546875 217.574219 244.367188 217.492188 245.1875 C 217.410156 246.003906 217.289062 246.816406 217.128906 247.621094 C 216.96875 248.429688 216.769531 249.222656 216.527344 250.011719 C 216.289062 250.796875 216.011719 251.570312 215.695312 252.328125 C 215.382812 253.089844 215.03125 253.832031 214.644531 254.554688 C 214.253906 255.28125 213.832031 255.984375 213.375 256.667969 C 212.917969 257.351562 212.429688 258.011719 211.90625 258.644531 C 211.386719 259.28125 210.835938 259.890625 210.253906 260.472656 C 209.671875 261.054688 209.0625 261.605469 208.429688 262.125 C 207.792969 262.648438 207.132812 263.136719 206.449219 263.59375 C 205.765625 264.050781 205.0625 264.472656 204.339844 264.859375 C 203.613281 265.25 202.871094 265.601562 202.113281 265.914062 C 201.351562 266.230469 200.578125 266.507812 199.792969 266.746094 C 199.007812 266.984375 198.210938 267.1875 197.402344 267.347656 C 196.597656 267.507812 195.785156 267.628906 194.96875 267.710938 C 194.148438 267.792969 193.328125 267.832031 192.507812 267.835938 Z M 192.507812 267.835938 " fill-opacity="1" fill-rule="nonzero"/></g><path fill="#7bab0a" d="M 217.617188 187.484375 C 216.601562 187.484375 215.671875 187.203125 214.828125 186.640625 C 211.515625 184.433594 182.464844 164.566406 182.464844 147.3125 C 182.464844 146.296875 182.542969 145.289062 182.695312 144.289062 C 182.847656 143.285156 183.078125 142.300781 183.378906 141.332031 C 183.679688 140.363281 184.054688 139.425781 184.5 138.515625 C 184.945312 137.601562 185.457031 136.730469 186.03125 135.898438 C 186.609375 135.0625 187.246094 134.277344 187.941406 133.539062 C 188.636719 132.800781 189.382812 132.121094 190.183594 131.496094 C 190.980469 130.871094 191.824219 130.3125 192.707031 129.816406 C 193.589844 129.320312 194.507812 128.890625 195.457031 128.53125 C 196.402344 128.175781 197.375 127.890625 198.367188 127.679688 C 199.359375 127.46875 200.359375 127.332031 201.371094 127.273438 C 202.382812 127.214844 203.394531 127.230469 204.402344 127.324219 C 205.414062 127.417969 206.410156 127.585938 207.394531 127.832031 C 208.378906 128.074219 209.339844 128.390625 210.273438 128.78125 C 211.210938 129.171875 212.113281 129.628906 212.976562 130.15625 C 213.84375 130.683594 214.667969 131.269531 215.445312 131.921875 C 216.222656 132.574219 216.945312 133.277344 217.617188 134.039062 C 218.289062 133.277344 219.011719 132.574219 219.789062 131.921875 C 220.566406 131.269531 221.386719 130.683594 222.253906 130.15625 C 223.121094 129.628906 224.023438 129.171875 224.957031 128.78125 C 225.894531 128.390625 226.855469 128.074219 227.839844 127.832031 C 228.824219 127.585938 229.820312 127.417969 230.828125 127.324219 C 231.839844 127.230469 232.847656 127.214844 233.863281 127.273438 C 234.875 127.332031 235.875 127.46875 236.867188 127.679688 C 237.859375 127.890625 238.828125 128.175781 239.777344 128.53125 C 240.726562 128.890625 241.640625 129.320312 242.527344 129.816406 C 243.410156 130.3125 244.25 130.871094 245.050781 131.496094 C 245.847656 132.121094 246.597656 132.800781 247.292969 133.539062 C 247.988281 134.277344 248.625 135.0625 249.199219 135.898438 C 249.777344 136.730469 250.289062 137.601562 250.734375 138.515625 C 251.179688 139.425781 251.550781 140.363281 251.855469 141.332031 C 252.15625 142.300781 252.386719 143.285156 252.539062 144.289062 C 252.691406 145.289062 252.769531 146.296875 252.769531 147.3125 C 252.769531 164.566406 223.71875 184.433594 220.402344 186.640625 C 219.558594 187.203125 218.628906 187.484375 217.617188 187.484375 Z M 202.550781 137.269531 C 201.890625 137.269531 201.238281 137.332031 200.589844 137.460938 C 199.945312 137.589844 199.316406 137.78125 198.707031 138.03125 C 198.097656 138.285156 197.519531 138.59375 196.972656 138.960938 C 196.421875 139.328125 195.914062 139.742188 195.449219 140.210938 C 194.984375 140.675781 194.566406 141.183594 194.199219 141.730469 C 193.832031 142.28125 193.523438 142.859375 193.273438 143.46875 C 193.019531 144.078125 192.828125 144.707031 192.699219 145.351562 C 192.570312 146 192.507812 146.652344 192.507812 147.3125 C 192.507812 155.179688 206.371094 168.308594 217.617188 176.359375 C 228.324219 168.683594 242.726562 155.566406 242.726562 147.3125 C 242.726562 146.652344 242.660156 146 242.53125 145.351562 C 242.402344 144.707031 242.214844 144.078125 241.960938 143.46875 C 241.707031 142.859375 241.398438 142.28125 241.03125 141.730469 C 240.667969 141.183594 240.25 140.675781 239.785156 140.210938 C 239.316406 139.742188 238.808594 139.328125 238.261719 138.960938 C 237.714844 138.59375 237.132812 138.285156 236.527344 138.03125 C 235.917969 137.78125 235.289062 137.589844 234.640625 137.460938 C 233.996094 137.332031 233.339844 137.269531 232.683594 137.269531 C 232.023438 137.269531 231.371094 137.332031 230.722656 137.460938 C 230.074219 137.589844 229.449219 137.78125 228.839844 138.03125 C 228.230469 138.285156 227.648438 138.59375 227.101562 138.960938 C 226.554688 139.328125 226.046875 139.742188 225.582031 140.210938 C 225.113281 140.675781 224.699219 141.183594 224.332031 141.730469 C 223.964844 142.28125 223.65625 142.859375 223.402344 143.46875 C 223.152344 144.078125 222.960938 144.707031 222.832031 145.351562 C 222.703125 146 222.636719 146.652344 222.636719 147.3125 C 222.636719 147.640625 222.605469 147.96875 222.542969 148.292969 C 222.476562 148.613281 222.382812 148.929688 222.257812 149.234375 C 222.128906 149.539062 221.976562 149.828125 221.792969 150.101562 C 221.609375 150.375 221.402344 150.628906 221.167969 150.863281 C 220.933594 151.09375 220.679688 151.304688 220.40625 151.488281 C 220.132812 151.671875 219.84375 151.824219 219.539062 151.949219 C 219.234375 152.078125 218.917969 152.171875 218.597656 152.238281 C 218.273438 152.300781 217.945312 152.332031 217.617188 152.332031 C 217.285156 152.332031 216.960938 152.300781 216.636719 152.238281 C 216.3125 152.171875 216 152.078125 215.695312 151.949219 C 215.390625 151.824219 215.101562 151.671875 214.828125 151.488281 C 214.550781 151.304688 214.296875 151.09375 214.066406 150.863281 C 213.832031 150.628906 213.625 150.375 213.441406 150.101562 C 213.257812 149.828125 213.101562 149.539062 212.976562 149.234375 C 212.851562 148.929688 212.753906 148.613281 212.691406 148.292969 C 212.625 147.96875 212.59375 147.640625 212.59375 147.3125 C 212.59375 146.652344 212.53125 146 212.402344 145.351562 C 212.273438 144.707031 212.082031 144.078125 211.832031 143.46875 C 211.578125 142.859375 211.269531 142.28125 210.902344 141.730469 C 210.535156 141.183594 210.121094 140.675781 209.652344 140.210938 C 209.1875 139.742188 208.679688 139.328125 208.132812 138.960938 C 207.582031 138.59375 207.003906 138.285156 206.394531 138.03125 C 205.785156 137.78125 205.15625 137.589844 204.511719 137.460938 C 203.863281 137.332031 203.210938 137.269531 202.550781 137.269531 Z M 202.550781 137.269531 " fill-opacity="1" fill-rule="nonzero"/></svg>