<svg xmlns="http://www.w3.org/2000/svg" xmlns:xlink="http://www.w3.org/1999/xlink" width="1080" zoomAndPan="magnify" viewBox="0 0 810 809.999993" height="1080" preserveAspectRatio="xMidYMid meet" version="1.0"><path fill="#646d68" d="M 235.105469 356.578125 L 234.953125 356.539062 L 135.296875 329.839844 L 135.253906 329.6875 L 108.554688 230.035156 L 181.617188 156.972656 L 181.765625 157.011719 L 281.417969 183.710938 L 281.460938 183.863281 L 308.164062 283.515625 L 235.101562 356.578125 Z M 135.738281 329.394531 L 234.941406 355.976562 L 307.5625 283.359375 L 280.980469 184.15625 L 181.777344 157.570312 L 109.15625 230.191406 Z M 135.738281 329.394531 " fill-opacity="1" fill-rule="nonzero"/><path fill="#646d68" d="M 212.25 528.164062 L 212.097656 528.125 L 148.425781 511.066406 L 148.382812 510.914062 L 131.320312 447.238281 L 178.042969 400.515625 L 178.195312 400.554688 L 241.871094 417.613281 L 241.914062 417.765625 L 258.972656 481.441406 Z M 148.867188 510.625 L 212.089844 527.566406 L 258.371094 481.285156 L 241.429688 418.0625 L 178.207031 401.121094 L 131.925781 447.402344 Z M 148.867188 510.625 " fill-opacity="1" fill-rule="nonzero"/><path fill="#646d68" d="M 74.800781 385.367188 L 74.648438 385.328125 L 42.734375 376.777344 L 42.691406 376.625 L 34.140625 344.714844 L 57.609375 321.242188 L 57.761719 321.28125 L 89.675781 329.832031 L 89.71875 329.984375 L 98.269531 361.898438 Z M 43.179688 376.335938 L 74.636719 384.761719 L 97.671875 361.730469 L 89.242188 330.269531 L 57.785156 321.84375 L 34.75 344.875 Z M 43.179688 376.335938 " fill-opacity="1" fill-rule="nonzero"/><path fill="#646d68" d="M 303.242188 810.007812 L 137.234375 810.007812 L 137.160156 809.875 L 54.234375 666.238281 L 54.308594 666.105469 L 137.234375 522.472656 L 303.242188 522.472656 L 303.316406 522.605469 L 386.242188 666.238281 L 386.167969 666.375 Z M 137.546875 809.46875 L 302.929688 809.46875 L 385.621094 666.238281 L 302.929688 523.011719 L 137.546875 523.011719 L 54.855469 666.238281 Z M 137.546875 809.46875 " fill-opacity="1" fill-rule="nonzero"/><path fill="#646d68" d="M 524.394531 537.066406 L 418.300781 537.066406 L 418.226562 536.929688 L 365.253906 445.183594 L 365.332031 445.050781 L 418.296875 353.300781 L 524.390625 353.300781 L 524.464844 353.4375 L 577.4375 445.183594 L 577.359375 445.320312 Z M 418.613281 536.527344 L 524.085938 536.527344 L 576.820312 445.183594 L 524.085938 353.84375 L 418.613281 353.84375 L 365.882812 445.183594 Z M 418.613281 536.527344 " fill-opacity="1" fill-rule="nonzero"/><path fill="#646d68" d="M 518.3125 764.203125 L 465.113281 764.203125 L 465.035156 764.066406 L 438.511719 718.125 L 438.589844 717.992188 L 465.113281 672.050781 L 518.3125 672.050781 L 518.390625 672.183594 L 544.914062 718.125 L 544.835938 718.261719 Z M 465.425781 763.664062 L 518 763.664062 L 544.292969 718.125 L 518 672.589844 L 465.425781 672.589844 L 439.132812 718.125 Z M 465.425781 763.664062 " fill-opacity="1" fill-rule="nonzero"/><path fill="#646d68" d="M 452.632812 451.207031 L 366.085938 451.207031 L 366.011719 451.070312 L 322.816406 376.253906 L 322.890625 376.117188 L 366.085938 301.300781 L 452.632812 301.300781 L 452.707031 301.4375 L 495.902344 376.253906 L 495.828125 376.390625 Z M 366.398438 450.664062 L 452.320312 450.664062 L 495.28125 376.253906 L 452.320312 301.84375 L 366.398438 301.84375 L 323.4375 376.253906 Z M 366.398438 450.664062 " fill-opacity="1" fill-rule="nonzero"/><path fill="#646d68" d="M 567.730469 309.15625 L 512.363281 309.15625 L 512.289062 309.023438 L 484.6875 261.210938 L 484.761719 261.074219 L 512.363281 213.261719 L 567.730469 213.261719 L 567.804688 213.398438 L 595.40625 261.210938 L 595.332031 261.34375 Z M 512.675781 308.617188 L 567.417969 308.617188 L 594.789062 261.210938 L 567.417969 213.800781 L 512.675781 213.800781 L 485.304688 261.210938 Z M 512.675781 308.617188 " fill-opacity="1" fill-rule="nonzero"/><path fill="#646d68" d="M 564.566406 427.367188 L 536.730469 427.367188 L 536.652344 427.234375 L 522.8125 403.261719 L 536.734375 379.15625 L 564.574219 379.15625 L 564.648438 379.292969 L 578.488281 403.261719 Z M 537.042969 426.828125 L 564.253906 426.828125 L 577.863281 403.261719 L 564.253906 379.695312 L 537.042969 379.695312 L 523.433594 403.261719 Z M 537.042969 426.828125 " fill-opacity="1" fill-rule="nonzero"/><path fill="#646d68" d="M 208.464844 510.570312 L 207.042969 508.113281 L 204.210938 508.113281 L 204.210938 507.035156 L 207.671875 507.035156 L 209.398438 510.035156 Z M 208.464844 510.570312 " fill-opacity="1" fill-rule="nonzero"/><path fill="#646d68" d="M 197.613281 508.113281 L 190.820312 508.113281 L 190.820312 507.035156 L 197.613281 507.035156 Z M 184.035156 508.113281 L 177.242188 508.113281 L 177.242188 507.035156 L 184.035156 507.035156 Z M 170.449219 508.113281 L 163.65625 508.113281 L 163.65625 507.035156 L 170.449219 507.035156 Z M 170.449219 508.113281 " fill-opacity="1" fill-rule="nonzero"/><path fill="#646d68" d="M 153.761719 510.570312 L 152.828125 510.035156 L 154.554688 507.035156 L 158.011719 507.035156 L 158.011719 508.113281 L 155.179688 508.113281 Z M 153.761719 510.570312 " fill-opacity="1" fill-rule="nonzero"/><path fill="#646d68" d="M 133.480469 545.761719 L 132.546875 545.222656 L 135.941406 539.332031 L 136.871094 539.871094 Z M 140.273438 533.980469 L 139.339844 533.441406 L 142.730469 527.546875 L 143.664062 528.089844 Z M 147.066406 522.195312 L 146.132812 521.65625 L 149.523438 515.765625 L 150.457031 516.304688 Z M 147.066406 522.195312 " fill-opacity="1" fill-rule="nonzero"/><path fill="#646d68" d="M 129.722656 556.109375 L 127.996094 553.117188 L 129.722656 550.121094 L 130.65625 550.65625 L 129.238281 553.117188 L 130.65625 555.570312 Z M 129.722656 556.109375 " fill-opacity="1" fill-rule="nonzero"/><path fill="#646d68" d="M 150.003906 591.300781 L 146.613281 585.40625 L 147.542969 584.867188 L 150.9375 590.757812 Z M 143.210938 579.515625 L 139.820312 573.625 L 140.753906 573.085938 L 144.144531 578.976562 Z M 136.417969 567.734375 L 133.027344 561.839844 L 133.960938 561.300781 L 137.351562 567.191406 Z M 136.417969 567.734375 " fill-opacity="1" fill-rule="nonzero"/><path fill="#646d68" d="M 158.011719 599.191406 L 154.554688 599.191406 L 152.828125 596.191406 L 153.761719 595.660156 L 155.179688 598.113281 L 158.011719 598.113281 Z M 158.011719 599.191406 " fill-opacity="1" fill-rule="nonzero"/><path fill="#646d68" d="M 198.566406 599.191406 L 191.777344 599.191406 L 191.777344 598.113281 L 198.566406 598.113281 Z M 184.984375 599.191406 L 178.191406 599.191406 L 178.191406 598.113281 L 184.984375 598.113281 Z M 171.402344 599.191406 L 164.609375 599.191406 L 164.609375 598.113281 L 171.402344 598.113281 Z M 171.402344 599.191406 " fill-opacity="1" fill-rule="nonzero"/><path fill="#646d68" d="M 207.671875 599.191406 L 204.210938 599.191406 L 204.210938 598.113281 L 207.042969 598.113281 L 208.464844 595.660156 L 209.398438 596.191406 Z M 207.671875 599.191406 " fill-opacity="1" fill-rule="nonzero"/><path fill="#646d68" d="M 212.699219 590.46875 L 211.765625 589.929688 L 215.160156 584.039062 L 216.09375 584.578125 Z M 219.492188 578.683594 L 218.558594 578.144531 L 221.953125 572.253906 L 222.882812 572.792969 Z M 226.285156 566.902344 L 225.351562 566.363281 L 228.742188 560.46875 L 229.675781 561.011719 Z M 226.285156 566.902344 " fill-opacity="1" fill-rule="nonzero"/><path fill="#646d68" d="M 232.5 556.109375 L 231.566406 555.570312 L 232.980469 553.117188 L 231.566406 550.65625 L 232.5 550.121094 L 234.226562 553.117188 Z M 232.5 556.109375 " fill-opacity="1" fill-rule="nonzero"/><path fill="#646d68" d="M 228.265625 544.933594 L 224.871094 539.039062 L 225.804688 538.5 L 229.195312 544.394531 Z M 221.472656 533.148438 L 218.078125 527.257812 L 219.011719 526.71875 L 222.40625 532.609375 Z M 214.679688 521.367188 L 211.285156 515.472656 L 212.21875 514.933594 L 215.613281 520.824219 Z M 214.679688 521.367188 " fill-opacity="1" fill-rule="nonzero"/><path fill="#646d68" d="M 154.78125 510.5625 C 158.492188 510.5625 158.496094 504.796875 154.78125 504.796875 C 151.0625 504.796875 151.0625 510.5625 154.78125 510.5625 Z M 154.78125 510.5625 " fill-opacity="1" fill-rule="nonzero"/><path fill="#646d68" d="M 207.347656 510.332031 C 211.058594 510.332031 211.0625 504.566406 207.347656 504.566406 C 203.628906 504.566406 203.628906 510.332031 207.347656 510.332031 Z M 207.347656 510.332031 " fill-opacity="1" fill-rule="nonzero"/><path fill="#646d68" d="M 233.511719 555.566406 C 237.226562 555.566406 237.230469 549.796875 233.511719 549.796875 C 229.796875 549.796875 229.796875 555.566406 233.511719 555.566406 Z M 233.511719 555.566406 " fill-opacity="1" fill-rule="nonzero"/><path fill="#646d68" d="M 206.882812 601.496094 C 210.59375 601.496094 210.601562 595.730469 206.882812 595.730469 C 203.164062 595.730469 203.164062 601.496094 206.882812 601.496094 Z M 206.882812 601.496094 " fill-opacity="1" fill-rule="nonzero"/><path fill="#646d68" d="M 154.546875 601.726562 C 158.261719 601.726562 158.265625 595.960938 154.546875 595.960938 C 150.832031 595.960938 150.832031 601.726562 154.546875 601.726562 Z M 154.546875 601.726562 " fill-opacity="1" fill-rule="nonzero"/><path fill="#646d68" d="M 128.382812 556.261719 C 132.09375 556.261719 132.097656 550.496094 128.382812 550.496094 C 124.664062 550.496094 124.664062 556.261719 128.382812 556.261719 Z M 128.382812 556.261719 " fill-opacity="1" fill-rule="nonzero"/><path fill="#646d68" d="M 144.773438 6.007812 L 143.359375 3.554688 L 140.527344 3.554688 L 140.527344 2.472656 L 143.980469 2.472656 L 145.710938 5.472656 Z M 144.773438 6.007812 " fill-opacity="1" fill-rule="nonzero"/><path fill="#646d68" d="M 133.921875 3.554688 L 127.128906 3.554688 L 127.128906 2.472656 L 133.921875 2.472656 Z M 120.34375 3.554688 L 113.550781 3.554688 L 113.550781 2.472656 L 120.34375 2.472656 Z M 106.757812 3.554688 L 99.964844 3.554688 L 99.964844 2.472656 L 106.757812 2.472656 Z M 106.757812 3.554688 " fill-opacity="1" fill-rule="nonzero"/><path fill="#646d68" d="M 90.074219 6.007812 L 89.140625 5.472656 L 90.863281 2.472656 L 94.320312 2.472656 L 94.320312 3.554688 L 91.488281 3.554688 Z M 90.074219 6.007812 " fill-opacity="1" fill-rule="nonzero"/><path fill="#646d68" d="M 69.792969 41.199219 L 68.859375 40.660156 L 72.253906 34.769531 L 73.1875 35.308594 Z M 76.585938 29.417969 L 75.652344 28.878906 L 79.046875 22.988281 L 79.980469 23.527344 Z M 83.378906 17.632812 L 82.445312 17.09375 L 85.839844 11.203125 L 86.773438 11.742188 Z M 83.378906 17.632812 " fill-opacity="1" fill-rule="nonzero"/><path fill="#646d68" d="M 66.03125 51.550781 L 64.304688 48.554688 L 66.03125 45.5625 L 66.964844 46.09375 L 65.554688 48.554688 L 66.964844 51.011719 Z M 66.03125 51.550781 " fill-opacity="1" fill-rule="nonzero"/><path fill="#646d68" d="M 86.3125 86.738281 L 82.921875 80.847656 L 83.855469 80.304688 L 87.246094 86.199219 Z M 79.519531 74.953125 L 76.128906 69.0625 L 77.0625 68.523438 L 80.453125 74.414062 Z M 72.726562 63.171875 L 69.335938 57.277344 L 70.269531 56.738281 L 73.660156 62.632812 Z M 72.726562 63.171875 " fill-opacity="1" fill-rule="nonzero"/><path fill="#646d68" d="M 94.320312 94.628906 L 90.863281 94.628906 L 89.140625 91.632812 L 90.074219 91.097656 L 91.488281 93.550781 L 94.320312 93.550781 Z M 94.320312 94.628906 " fill-opacity="1" fill-rule="nonzero"/><path fill="#646d68" d="M 134.882812 94.628906 L 128.089844 94.628906 L 128.089844 93.550781 L 134.882812 93.550781 Z M 121.296875 94.628906 L 114.503906 94.628906 L 114.503906 93.550781 L 121.296875 93.550781 Z M 107.71875 94.628906 L 100.925781 94.628906 L 100.925781 93.550781 L 107.71875 93.550781 Z M 107.71875 94.628906 " fill-opacity="1" fill-rule="nonzero"/><path fill="#646d68" d="M 143.980469 94.628906 L 140.527344 94.628906 L 140.527344 93.550781 L 143.359375 93.550781 L 144.773438 91.097656 L 145.710938 91.632812 Z M 143.980469 94.628906 " fill-opacity="1" fill-rule="nonzero"/><path fill="#646d68" d="M 149.007812 85.90625 L 148.074219 85.367188 L 151.46875 79.476562 L 152.402344 80.015625 Z M 155.800781 74.125 L 154.867188 73.582031 L 158.261719 67.691406 L 159.191406 68.230469 Z M 162.59375 62.339844 L 161.660156 61.800781 L 165.050781 55.910156 L 165.984375 56.449219 Z M 162.59375 62.339844 " fill-opacity="1" fill-rule="nonzero"/><path fill="#646d68" d="M 168.8125 51.550781 L 167.878906 51.011719 L 169.292969 48.554688 L 167.878906 46.09375 L 168.8125 45.5625 L 170.539062 48.554688 Z M 168.8125 51.550781 " fill-opacity="1" fill-rule="nonzero"/><path fill="#646d68" d="M 164.578125 40.371094 L 161.183594 34.480469 L 162.117188 33.9375 L 165.511719 39.832031 Z M 157.785156 28.585938 L 154.390625 22.695312 L 155.324219 22.15625 L 158.71875 28.046875 Z M 150.992188 16.804688 L 147.597656 10.910156 L 148.53125 10.371094 L 151.925781 16.265625 Z M 150.992188 16.804688 " fill-opacity="1" fill-rule="nonzero"/><path fill="#646d68" d="M 91.09375 6.003906 C 94.804688 6.003906 94.8125 0.234375 91.09375 0.234375 C 87.375 0.234375 87.375 6.003906 91.09375 6.003906 Z M 91.09375 6.003906 " fill-opacity="1" fill-rule="nonzero"/><path fill="#646d68" d="M 143.660156 5.769531 C 147.371094 5.769531 147.378906 0.00390625 143.660156 0.00390625 C 139.941406 0.00390625 139.941406 5.769531 143.660156 5.769531 Z M 143.660156 5.769531 " fill-opacity="1" fill-rule="nonzero"/><path fill="#646d68" d="M 169.828125 51.003906 C 173.539062 51.003906 173.542969 45.238281 169.828125 45.238281 C 166.109375 45.238281 166.109375 51.003906 169.828125 51.003906 Z M 169.828125 51.003906 " fill-opacity="1" fill-rule="nonzero"/><path fill="#646d68" d="M 143.195312 96.933594 C 146.910156 96.933594 146.914062 91.167969 143.195312 91.167969 C 139.480469 91.167969 139.480469 96.933594 143.195312 96.933594 Z M 143.195312 96.933594 " fill-opacity="1" fill-rule="nonzero"/><path fill="#646d68" d="M 90.863281 97.167969 C 94.574219 97.167969 94.578125 91.398438 90.863281 91.398438 C 87.144531 91.398438 87.144531 97.167969 90.863281 97.167969 Z M 90.863281 97.167969 " fill-opacity="1" fill-rule="nonzero"/><path fill="#646d68" d="M 64.695312 51.699219 C 68.40625 51.699219 68.414062 45.933594 64.695312 45.933594 C 60.976562 45.933594 60.976562 51.699219 64.695312 51.699219 Z M 64.695312 51.699219 " fill-opacity="1" fill-rule="nonzero"/><path fill="#646d68" d="M 503.738281 91.167969 L 502.316406 88.710938 L 499.484375 88.710938 L 499.484375 87.632812 L 502.941406 87.632812 L 504.667969 90.628906 Z M 503.738281 91.167969 " fill-opacity="1" fill-rule="nonzero"/><path fill="#646d68" d="M 492.886719 88.710938 L 486.09375 88.710938 L 486.09375 87.632812 L 492.886719 87.632812 Z M 479.304688 88.710938 L 472.515625 88.710938 L 472.515625 87.632812 L 479.304688 87.632812 Z M 465.722656 88.710938 L 458.929688 88.710938 L 458.929688 87.632812 L 465.722656 87.632812 Z M 465.722656 88.710938 " fill-opacity="1" fill-rule="nonzero"/><path fill="#646d68" d="M 449.035156 91.167969 L 448.101562 90.628906 L 449.828125 87.632812 L 453.285156 87.632812 L 453.285156 88.710938 L 450.453125 88.710938 Z M 449.035156 91.167969 " fill-opacity="1" fill-rule="nonzero"/><path fill="#646d68" d="M 428.753906 126.355469 L 427.820312 125.816406 L 431.214844 119.921875 L 432.144531 120.464844 Z M 435.546875 114.570312 L 434.613281 114.03125 L 438.003906 108.140625 L 438.9375 108.679688 Z M 442.339844 102.789062 L 441.40625 102.25 L 444.796875 96.355469 L 445.730469 96.898438 Z M 442.339844 102.789062 " fill-opacity="1" fill-rule="nonzero"/><path fill="#646d68" d="M 424.996094 136.703125 L 423.269531 133.707031 L 424.996094 130.714844 L 425.929688 131.253906 L 424.515625 133.707031 L 425.929688 136.167969 Z M 424.996094 136.703125 " fill-opacity="1" fill-rule="nonzero"/><path fill="#646d68" d="M 445.277344 171.898438 L 441.886719 166.003906 L 442.816406 165.464844 L 446.210938 171.355469 Z M 438.484375 160.113281 L 435.09375 154.222656 L 436.027344 153.683594 L 439.417969 159.574219 Z M 431.691406 148.328125 L 428.300781 142.4375 L 429.234375 141.898438 L 432.625 147.789062 Z M 431.691406 148.328125 " fill-opacity="1" fill-rule="nonzero"/><path fill="#646d68" d="M 453.285156 179.789062 L 449.828125 179.789062 L 448.101562 176.789062 L 449.035156 176.25 L 450.453125 178.710938 L 453.285156 178.710938 Z M 453.285156 179.789062 " fill-opacity="1" fill-rule="nonzero"/><path fill="#646d68" d="M 493.839844 179.789062 L 487.046875 179.789062 L 487.046875 178.710938 L 493.839844 178.710938 Z M 480.257812 179.789062 L 473.464844 179.789062 L 473.464844 178.710938 L 480.257812 178.710938 Z M 466.675781 179.789062 L 459.882812 179.789062 L 459.882812 178.710938 L 466.675781 178.710938 Z M 466.675781 179.789062 " fill-opacity="1" fill-rule="nonzero"/><path fill="#646d68" d="M 502.941406 179.789062 L 499.484375 179.789062 L 499.484375 178.710938 L 502.316406 178.710938 L 503.738281 176.25 L 504.667969 176.789062 Z M 502.941406 179.789062 " fill-opacity="1" fill-rule="nonzero"/><path fill="#646d68" d="M 507.972656 171.066406 L 507.039062 170.527344 L 510.433594 164.632812 L 511.367188 165.175781 Z M 514.765625 159.28125 L 513.832031 158.742188 L 517.222656 152.851562 L 518.15625 153.390625 Z M 521.558594 147.5 L 520.625 146.960938 L 524.015625 141.066406 L 524.949219 141.609375 Z M 521.558594 147.5 " fill-opacity="1" fill-rule="nonzero"/><path fill="#646d68" d="M 527.773438 136.703125 L 526.839844 136.167969 L 528.257812 133.707031 L 526.839844 131.253906 L 527.773438 130.714844 L 529.5 133.707031 Z M 527.773438 136.703125 " fill-opacity="1" fill-rule="nonzero"/><path fill="#646d68" d="M 523.535156 125.53125 L 520.144531 119.636719 L 521.078125 119.097656 L 524.46875 124.988281 Z M 516.746094 113.746094 L 513.351562 107.855469 L 514.285156 107.316406 L 517.679688 113.207031 Z M 509.953125 101.960938 L 506.558594 96.070312 L 507.492188 95.53125 L 510.886719 101.421875 Z M 509.953125 101.960938 " fill-opacity="1" fill-rule="nonzero"/><path fill="#646d68" d="M 450.054688 91.160156 C 453.765625 91.160156 453.769531 85.394531 450.054688 85.394531 C 446.335938 85.394531 446.335938 91.160156 450.054688 91.160156 Z M 450.054688 91.160156 " fill-opacity="1" fill-rule="nonzero"/><path fill="#646d68" d="M 502.621094 90.929688 C 506.332031 90.929688 506.335938 85.160156 502.621094 85.160156 C 498.902344 85.160156 498.902344 90.929688 502.621094 90.929688 Z M 502.621094 90.929688 " fill-opacity="1" fill-rule="nonzero"/><path fill="#646d68" d="M 528.785156 136.164062 C 532.5 136.164062 532.503906 130.394531 528.785156 130.394531 C 525.070312 130.394531 525.070312 136.164062 528.785156 136.164062 Z M 528.785156 136.164062 " fill-opacity="1" fill-rule="nonzero"/><path fill="#646d68" d="M 502.160156 182.089844 C 505.871094 182.089844 505.878906 176.320312 502.160156 176.320312 C 498.445312 176.320312 498.445312 182.089844 502.160156 182.089844 Z M 502.160156 182.089844 " fill-opacity="1" fill-rule="nonzero"/><path fill="#646d68" d="M 449.820312 182.320312 C 453.535156 182.320312 453.539062 176.550781 449.820312 176.550781 C 446.105469 176.550781 446.105469 182.320312 449.820312 182.320312 Z M 449.820312 182.320312 " fill-opacity="1" fill-rule="nonzero"/><path fill="#646d68" d="M 423.652344 136.855469 C 427.367188 136.855469 427.371094 131.085938 423.652344 131.085938 C 419.9375 131.085938 419.9375 136.855469 423.652344 136.855469 Z M 423.652344 136.855469 " fill-opacity="1" fill-rule="nonzero"/><path fill="#646d68" d="M 466.421875 477.179688 L 465.007812 474.722656 L 462.175781 474.722656 L 462.175781 473.644531 L 465.636719 473.644531 L 467.363281 476.636719 Z M 466.421875 477.179688 " fill-opacity="1" fill-rule="nonzero"/><path fill="#646d68" d="M 455.574219 474.722656 L 448.78125 474.722656 L 448.78125 473.644531 L 455.574219 473.644531 Z M 441.992188 474.722656 L 435.199219 474.722656 L 435.199219 473.644531 L 441.992188 473.644531 Z M 428.40625 474.722656 L 421.613281 474.722656 L 421.613281 473.644531 L 428.40625 473.644531 Z M 428.40625 474.722656 " fill-opacity="1" fill-rule="nonzero"/><path fill="#646d68" d="M 411.726562 477.179688 L 410.792969 476.636719 L 412.519531 473.644531 L 415.976562 473.644531 L 415.976562 474.722656 L 413.140625 474.722656 Z M 411.726562 477.179688 " fill-opacity="1" fill-rule="nonzero"/><path fill="#646d68" d="M 391.445312 512.367188 L 390.511719 511.828125 L 393.90625 505.933594 L 394.839844 506.472656 Z M 398.238281 500.582031 L 397.304688 500.042969 L 400.695312 494.152344 L 401.628906 494.691406 Z M 405.03125 488.800781 L 404.097656 488.261719 L 407.488281 482.367188 L 408.421875 482.90625 Z M 405.03125 488.800781 " fill-opacity="1" fill-rule="nonzero"/><path fill="#646d68" d="M 387.683594 522.714844 L 385.957031 519.71875 L 387.683594 516.726562 L 388.621094 517.265625 L 387.203125 519.71875 L 388.621094 522.175781 Z M 387.683594 522.714844 " fill-opacity="1" fill-rule="nonzero"/><path fill="#646d68" d="M 407.964844 557.902344 L 404.570312 552.011719 L 405.503906 551.472656 L 408.898438 557.363281 Z M 401.171875 546.117188 L 397.777344 540.226562 L 398.710938 539.6875 L 402.105469 545.578125 Z M 394.378906 534.335938 L 390.984375 528.445312 L 391.917969 527.90625 L 395.3125 533.796875 Z M 394.378906 534.335938 " fill-opacity="1" fill-rule="nonzero"/><path fill="#646d68" d="M 415.976562 565.796875 L 412.519531 565.796875 L 410.792969 562.800781 L 411.726562 562.261719 L 413.140625 564.714844 L 415.976562 564.714844 Z M 415.976562 565.796875 " fill-opacity="1" fill-rule="nonzero"/><path fill="#646d68" d="M 456.53125 565.796875 L 449.742188 565.796875 L 449.742188 564.714844 L 456.53125 564.714844 Z M 442.949219 565.796875 L 436.15625 565.796875 L 436.15625 564.714844 L 442.949219 564.714844 Z M 429.367188 565.796875 L 422.574219 565.796875 L 422.574219 564.714844 L 429.367188 564.714844 Z M 429.367188 565.796875 " fill-opacity="1" fill-rule="nonzero"/><path fill="#646d68" d="M 465.636719 565.796875 L 462.175781 565.796875 L 462.175781 564.714844 L 465.007812 564.714844 L 466.421875 562.261719 L 467.363281 562.800781 Z M 465.636719 565.796875 " fill-opacity="1" fill-rule="nonzero"/><path fill="#646d68" d="M 470.65625 557.078125 L 469.722656 556.539062 L 473.117188 550.644531 L 474.050781 551.183594 Z M 477.449219 545.292969 L 476.515625 544.753906 L 479.910156 538.863281 L 480.84375 539.402344 Z M 484.242188 533.511719 L 483.308594 532.972656 L 486.703125 527.078125 L 487.636719 527.617188 Z M 484.242188 533.511719 " fill-opacity="1" fill-rule="nonzero"/><path fill="#646d68" d="M 490.464844 522.714844 L 489.53125 522.175781 L 490.945312 519.71875 L 489.53125 517.265625 L 490.464844 516.726562 L 492.191406 519.71875 Z M 490.464844 522.714844 " fill-opacity="1" fill-rule="nonzero"/><path fill="#646d68" d="M 486.230469 511.535156 L 482.835938 505.644531 L 483.769531 505.105469 L 487.160156 510.996094 Z M 479.4375 499.753906 L 476.042969 493.859375 L 476.976562 493.320312 L 480.371094 499.210938 Z M 472.644531 487.96875 L 469.25 482.078125 L 470.183594 481.539062 L 473.578125 487.429688 Z M 472.644531 487.96875 " fill-opacity="1" fill-rule="nonzero"/><path fill="#646d68" d="M 412.746094 477.167969 C 416.457031 477.167969 416.460938 471.398438 412.746094 471.398438 C 409.027344 471.398438 409.027344 477.167969 412.746094 477.167969 Z M 412.746094 477.167969 " fill-opacity="1" fill-rule="nonzero"/><path fill="#646d68" d="M 465.3125 476.933594 C 469.023438 476.933594 469.027344 471.167969 465.3125 471.167969 C 461.59375 471.167969 461.59375 476.933594 465.3125 476.933594 Z M 465.3125 476.933594 " fill-opacity="1" fill-rule="nonzero"/><path fill="#646d68" d="M 491.476562 522.167969 C 495.191406 522.167969 495.195312 516.402344 491.476562 516.402344 C 487.761719 516.402344 487.761719 522.167969 491.476562 522.167969 Z M 491.476562 522.167969 " fill-opacity="1" fill-rule="nonzero"/><path fill="#646d68" d="M 464.847656 568.097656 C 468.558594 568.097656 468.566406 562.332031 464.847656 562.332031 C 461.128906 562.332031 461.128906 568.097656 464.847656 568.097656 Z M 464.847656 568.097656 " fill-opacity="1" fill-rule="nonzero"/><path fill="#646d68" d="M 412.511719 568.332031 C 416.226562 568.332031 416.230469 562.5625 412.511719 562.5625 C 408.796875 562.5625 408.796875 568.332031 412.511719 568.332031 Z M 412.511719 568.332031 " fill-opacity="1" fill-rule="nonzero"/><path fill="#646d68" d="M 386.347656 522.867188 C 390.058594 522.867188 390.0625 517.097656 386.347656 517.097656 C 382.628906 517.097656 382.628906 522.867188 386.347656 522.867188 Z M 386.347656 522.867188 " fill-opacity="1" fill-rule="nonzero"/><path fill="#646d68" d="M 443.839844 692.378906 L 442.425781 689.925781 L 439.59375 689.925781 L 439.59375 688.847656 L 443.050781 688.847656 L 444.769531 691.839844 Z M 443.839844 692.378906 " fill-opacity="1" fill-rule="nonzero"/><path fill="#646d68" d="M 432.988281 689.925781 L 426.195312 689.925781 L 426.195312 688.847656 L 432.988281 688.847656 Z M 419.40625 689.925781 L 412.617188 689.925781 L 412.617188 688.847656 L 419.40625 688.847656 Z M 405.824219 689.925781 L 399.03125 689.925781 L 399.03125 688.847656 L 405.824219 688.847656 Z M 405.824219 689.925781 " fill-opacity="1" fill-rule="nonzero"/><path fill="#646d68" d="M 389.140625 692.378906 L 388.207031 691.839844 L 389.933594 688.847656 L 393.386719 688.847656 L 393.386719 689.925781 L 390.554688 689.925781 Z M 389.140625 692.378906 " fill-opacity="1" fill-rule="nonzero"/><path fill="#646d68" d="M 368.855469 727.566406 L 367.921875 727.027344 L 371.316406 721.136719 L 372.246094 721.675781 Z M 375.648438 715.785156 L 374.714844 715.246094 L 378.105469 709.351562 L 379.039062 709.894531 Z M 382.441406 704 L 381.507812 703.460938 L 384.898438 697.570312 L 385.832031 698.109375 Z M 382.441406 704 " fill-opacity="1" fill-rule="nonzero"/><path fill="#646d68" d="M 365.097656 737.917969 L 363.371094 734.921875 L 365.097656 731.925781 L 366.03125 732.46875 L 364.617188 734.921875 L 366.03125 737.375 Z M 365.097656 737.917969 " fill-opacity="1" fill-rule="nonzero"/><path fill="#646d68" d="M 385.378906 773.105469 L 381.988281 767.210938 L 382.917969 766.671875 L 386.3125 772.566406 Z M 378.585938 761.320312 L 375.195312 755.429688 L 376.128906 754.890625 L 379.519531 760.78125 Z M 371.792969 749.539062 L 368.402344 743.644531 L 369.335938 743.105469 L 372.726562 749 Z M 371.792969 749.539062 " fill-opacity="1" fill-rule="nonzero"/><path fill="#646d68" d="M 393.386719 780.996094 L 389.933594 780.996094 L 388.207031 778.003906 L 389.140625 777.464844 L 390.554688 779.917969 L 393.386719 779.917969 Z M 393.386719 780.996094 " fill-opacity="1" fill-rule="nonzero"/><path fill="#646d68" d="M 433.949219 780.996094 L 427.15625 780.996094 L 427.15625 779.917969 L 433.949219 779.917969 Z M 420.363281 780.996094 L 413.570312 780.996094 L 413.570312 779.917969 L 420.363281 779.917969 Z M 406.78125 780.996094 L 399.992188 780.996094 L 399.992188 779.917969 L 406.78125 779.917969 Z M 406.78125 780.996094 " fill-opacity="1" fill-rule="nonzero"/><path fill="#646d68" d="M 443.050781 780.996094 L 439.59375 780.996094 L 439.59375 779.917969 L 442.425781 779.917969 L 443.839844 777.464844 L 444.769531 778.003906 Z M 443.050781 780.996094 " fill-opacity="1" fill-rule="nonzero"/><path fill="#646d68" d="M 448.074219 772.277344 L 447.140625 771.738281 L 450.535156 765.847656 L 451.46875 766.386719 Z M 454.867188 760.496094 L 453.933594 759.957031 L 457.324219 754.0625 L 458.257812 754.605469 Z M 461.660156 748.710938 L 460.726562 748.171875 L 464.117188 742.28125 L 465.050781 742.820312 Z M 461.660156 748.710938 " fill-opacity="1" fill-rule="nonzero"/><path fill="#646d68" d="M 467.878906 737.917969 L 466.945312 737.375 L 468.359375 734.921875 L 466.945312 732.46875 L 467.878906 731.925781 L 469.605469 734.921875 Z M 467.878906 737.917969 " fill-opacity="1" fill-rule="nonzero"/><path fill="#646d68" d="M 463.644531 726.738281 L 460.25 720.84375 L 461.183594 720.304688 L 464.578125 726.199219 Z M 456.851562 714.953125 L 453.457031 709.0625 L 454.390625 708.523438 L 457.785156 714.414062 Z M 450.058594 703.171875 L 446.664062 697.277344 L 447.597656 696.738281 L 450.992188 702.632812 Z M 450.058594 703.171875 " fill-opacity="1" fill-rule="nonzero"/><path fill="#646d68" d="M 390.160156 692.375 C 393.871094 692.375 393.878906 686.605469 390.160156 686.605469 C 386.441406 686.605469 386.441406 692.375 390.160156 692.375 Z M 390.160156 692.375 " fill-opacity="1" fill-rule="nonzero"/><path fill="#646d68" d="M 442.726562 692.140625 C 446.4375 692.140625 446.445312 686.375 442.726562 686.375 C 439.007812 686.375 439.007812 692.140625 442.726562 692.140625 Z M 442.726562 692.140625 " fill-opacity="1" fill-rule="nonzero"/><path fill="#646d68" d="M 468.894531 737.371094 C 472.605469 737.371094 472.609375 731.605469 468.894531 731.605469 C 465.175781 731.605469 465.175781 737.371094 468.894531 737.371094 Z M 468.894531 737.371094 " fill-opacity="1" fill-rule="nonzero"/><path fill="#646d68" d="M 442.261719 783.300781 C 445.972656 783.300781 445.980469 777.535156 442.261719 777.535156 C 438.546875 777.535156 438.546875 783.300781 442.261719 783.300781 Z M 442.261719 783.300781 " fill-opacity="1" fill-rule="nonzero"/><path fill="#646d68" d="M 389.929688 783.535156 C 393.640625 783.535156 393.644531 777.765625 389.929688 777.765625 C 386.210938 777.765625 386.210938 783.535156 389.929688 783.535156 Z M 389.929688 783.535156 " fill-opacity="1" fill-rule="nonzero"/><path fill="#646d68" d="M 363.761719 738.066406 C 367.472656 738.066406 367.476562 732.300781 363.761719 732.300781 C 360.042969 732.300781 360.042969 738.066406 363.761719 738.066406 Z M 363.761719 738.066406 " fill-opacity="1" fill-rule="nonzero"/><path fill="#646d68" d="M 83.785156 619.550781 L 82.363281 617.09375 L 79.53125 617.09375 L 79.53125 616.015625 L 82.992188 616.015625 L 84.71875 619.007812 Z M 83.785156 619.550781 " fill-opacity="1" fill-rule="nonzero"/><path fill="#646d68" d="M 72.933594 617.09375 L 66.140625 617.09375 L 66.140625 616.015625 L 72.933594 616.015625 Z M 59.355469 617.09375 L 52.5625 617.09375 L 52.5625 616.015625 L 59.355469 616.015625 Z M 45.769531 617.09375 L 38.976562 617.09375 L 38.976562 616.015625 L 45.769531 616.015625 Z M 45.769531 617.09375 " fill-opacity="1" fill-rule="nonzero"/><path fill="#646d68" d="M 29.082031 619.550781 L 28.148438 619.007812 L 29.875 616.015625 L 33.332031 616.015625 L 33.332031 617.09375 L 30.5 617.09375 Z M 29.082031 619.550781 " fill-opacity="1" fill-rule="nonzero"/><path fill="#646d68" d="M 8.800781 654.738281 L 7.867188 654.199219 L 11.261719 648.304688 L 12.191406 648.84375 Z M 15.59375 642.953125 L 14.660156 642.414062 L 18.050781 636.523438 L 18.984375 637.0625 Z M 22.386719 631.171875 L 21.453125 630.632812 L 24.84375 624.738281 L 25.777344 625.277344 Z M 22.386719 631.171875 " fill-opacity="1" fill-rule="nonzero"/><path fill="#646d68" d="M 5.042969 665.085938 L 3.316406 662.089844 L 5.042969 659.097656 L 5.976562 659.636719 L 4.5625 662.089844 L 5.976562 664.550781 Z M 5.042969 665.085938 " fill-opacity="1" fill-rule="nonzero"/><path fill="#646d68" d="M 25.324219 700.277344 L 21.933594 694.386719 L 22.863281 693.847656 L 26.257812 699.738281 Z M 18.53125 688.496094 L 15.140625 682.605469 L 16.074219 682.0625 L 19.464844 687.957031 Z M 11.738281 676.710938 L 8.347656 670.820312 L 9.28125 670.28125 L 12.671875 676.171875 Z M 11.738281 676.710938 " fill-opacity="1" fill-rule="nonzero"/><path fill="#646d68" d="M 33.332031 708.167969 L 29.875 708.167969 L 28.148438 705.171875 L 29.082031 704.632812 L 30.5 707.085938 L 33.332031 707.085938 Z M 33.332031 708.167969 " fill-opacity="1" fill-rule="nonzero"/><path fill="#646d68" d="M 73.886719 708.167969 L 67.097656 708.167969 L 67.097656 707.085938 L 73.886719 707.085938 Z M 60.304688 708.167969 L 53.511719 708.167969 L 53.511719 707.085938 L 60.304688 707.085938 Z M 46.722656 708.167969 L 39.929688 708.167969 L 39.929688 707.085938 L 46.722656 707.085938 Z M 46.722656 708.167969 " fill-opacity="1" fill-rule="nonzero"/><path fill="#646d68" d="M 82.992188 708.167969 L 79.53125 708.167969 L 79.53125 707.085938 L 82.363281 707.085938 L 83.785156 704.632812 L 84.71875 705.171875 Z M 82.992188 708.167969 " fill-opacity="1" fill-rule="nonzero"/><path fill="#646d68" d="M 88.019531 699.449219 L 87.085938 698.910156 L 90.480469 693.015625 L 91.414062 693.554688 Z M 94.8125 687.664062 L 93.878906 687.125 L 97.273438 681.234375 L 98.203125 681.773438 Z M 101.605469 675.882812 L 100.671875 675.339844 L 104.0625 669.449219 L 104.996094 669.988281 Z M 101.605469 675.882812 " fill-opacity="1" fill-rule="nonzero"/><path fill="#646d68" d="M 107.820312 665.085938 L 106.886719 664.550781 L 108.304688 662.089844 L 106.886719 659.636719 L 107.820312 659.097656 L 109.546875 662.089844 Z M 107.820312 665.085938 " fill-opacity="1" fill-rule="nonzero"/><path fill="#646d68" d="M 103.585938 653.910156 L 100.191406 648.019531 L 101.125 647.480469 L 104.515625 653.371094 Z M 96.792969 642.128906 L 93.398438 636.238281 L 94.332031 635.695312 L 97.726562 641.589844 Z M 90 630.34375 L 86.605469 624.453125 L 87.539062 623.914062 L 90.933594 629.804688 Z M 90 630.34375 " fill-opacity="1" fill-rule="nonzero"/><path fill="#646d68" d="M 30.101562 619.542969 C 33.8125 619.542969 33.816406 613.777344 30.101562 613.777344 C 26.382812 613.777344 26.382812 619.542969 30.101562 619.542969 Z M 30.101562 619.542969 " fill-opacity="1" fill-rule="nonzero"/><path fill="#646d68" d="M 82.667969 619.3125 C 86.378906 619.3125 86.382812 613.542969 82.667969 613.542969 C 78.949219 613.542969 78.949219 619.3125 82.667969 619.3125 Z M 82.667969 619.3125 " fill-opacity="1" fill-rule="nonzero"/><path fill="#646d68" d="M 108.832031 664.546875 C 112.546875 664.546875 112.550781 658.777344 108.832031 658.777344 C 105.117188 658.777344 105.117188 664.546875 108.832031 664.546875 Z M 108.832031 664.546875 " fill-opacity="1" fill-rule="nonzero"/><path fill="#646d68" d="M 82.207031 710.46875 C 85.921875 710.46875 85.925781 704.703125 82.207031 704.703125 C 78.492188 704.703125 78.492188 710.46875 82.207031 710.46875 Z M 82.207031 710.46875 " fill-opacity="1" fill-rule="nonzero"/><path fill="#646d68" d="M 29.867188 710.703125 C 33.582031 710.703125 33.585938 704.933594 29.867188 704.933594 C 26.152344 704.933594 26.152344 710.703125 29.867188 710.703125 Z M 29.867188 710.703125 " fill-opacity="1" fill-rule="nonzero"/><path fill="#646d68" d="M 3.699219 665.242188 C 7.414062 665.242188 7.417969 659.472656 3.699219 659.472656 C -0.015625 659.472656 -0.015625 665.242188 3.699219 665.242188 Z M 3.699219 665.242188 " fill-opacity="1" fill-rule="nonzero"/><path fill="#646d68" d="M 325.988281 514.777344 L 264.320312 514.777344 L 264.164062 514.507812 L 233.488281 461.285156 L 233.644531 461.015625 L 264.320312 407.789062 L 325.988281 407.789062 L 326.144531 408.058594 L 356.824219 461.285156 L 356.667969 461.554688 Z M 264.945312 513.699219 L 325.367188 513.699219 L 355.582031 461.285156 L 325.367188 408.867188 L 264.945312 408.867188 L 234.734375 461.285156 Z M 264.945312 513.699219 " fill-opacity="1" fill-rule="nonzero"/><path fill="#646d68" d="M 264.53125 411.804688 C 268.847656 411.804688 268.851562 405.097656 264.53125 405.097656 C 260.210938 405.097656 260.210938 411.804688 264.53125 411.804688 Z M 264.53125 411.804688 " fill-opacity="1" fill-rule="nonzero"/><path fill="#646d68" d="M 325.664062 411.535156 C 329.980469 411.535156 329.988281 404.828125 325.664062 404.828125 C 321.34375 404.828125 321.34375 411.535156 325.664062 411.535156 Z M 325.664062 411.535156 " fill-opacity="1" fill-rule="nonzero"/><path fill="#646d68" d="M 356.09375 464.132812 C 360.410156 464.132812 360.414062 457.425781 356.09375 457.425781 C 351.773438 457.425781 351.773438 464.132812 356.09375 464.132812 Z M 356.09375 464.132812 " fill-opacity="1" fill-rule="nonzero"/><path fill="#646d68" d="M 325.125 517.546875 C 329.441406 517.546875 329.445312 510.839844 325.125 510.839844 C 320.804688 510.839844 320.804688 517.546875 325.125 517.546875 Z M 325.125 517.546875 " fill-opacity="1" fill-rule="nonzero"/><path fill="#646d68" d="M 264.261719 517.816406 C 268.578125 517.816406 268.582031 511.109375 264.261719 511.109375 C 259.941406 511.109375 259.941406 517.816406 264.261719 517.816406 Z M 264.261719 517.816406 " fill-opacity="1" fill-rule="nonzero"/><path fill="#646d68" d="M 233.832031 464.941406 C 238.148438 464.941406 238.152344 458.234375 233.832031 458.234375 C 229.511719 458.234375 229.511719 464.941406 233.832031 464.941406 Z M 233.832031 464.941406 " fill-opacity="1" fill-rule="nonzero"/><path fill="#646d68" d="M 640.890625 419.972656 L 579.222656 419.972656 L 579.066406 419.703125 L 548.386719 366.476562 L 548.542969 366.207031 L 579.222656 312.984375 L 640.890625 312.984375 L 641.046875 313.253906 L 671.722656 366.476562 L 671.566406 366.746094 Z M 579.847656 418.894531 L 640.269531 418.894531 L 670.484375 366.476562 L 640.269531 314.0625 L 579.847656 314.0625 L 549.632812 366.476562 Z M 579.847656 418.894531 " fill-opacity="1" fill-rule="nonzero"/><path fill="#646d68" d="M 579.433594 316.996094 C 583.75 316.996094 583.753906 310.292969 579.433594 310.292969 C 575.109375 310.292969 575.109375 316.996094 579.433594 316.996094 Z M 579.433594 316.996094 " fill-opacity="1" fill-rule="nonzero"/><path fill="#646d68" d="M 640.566406 316.726562 C 644.882812 316.726562 644.886719 310.019531 640.566406 310.019531 C 636.246094 310.019531 636.246094 316.726562 640.566406 316.726562 Z M 640.566406 316.726562 " fill-opacity="1" fill-rule="nonzero"/><path fill="#646d68" d="M 670.996094 369.328125 C 675.3125 369.328125 675.316406 362.621094 670.996094 362.621094 C 666.675781 362.621094 666.675781 369.328125 670.996094 369.328125 Z M 670.996094 369.328125 " fill-opacity="1" fill-rule="nonzero"/><path fill="#646d68" d="M 640.027344 422.738281 C 644.34375 422.738281 644.347656 416.035156 640.027344 416.035156 C 635.703125 416.035156 635.703125 422.738281 640.027344 422.738281 Z M 640.027344 422.738281 " fill-opacity="1" fill-rule="nonzero"/><path fill="#646d68" d="M 579.164062 423.007812 C 583.480469 423.007812 583.484375 416.304688 579.164062 416.304688 C 574.839844 416.304688 574.839844 423.007812 579.164062 423.007812 Z M 579.164062 423.007812 " fill-opacity="1" fill-rule="nonzero"/><path fill="#646d68" d="M 548.734375 370.136719 C 553.050781 370.136719 553.054688 363.429688 548.734375 363.429688 C 544.410156 363.429688 544.410156 370.136719 548.734375 370.136719 Z M 548.734375 370.136719 " fill-opacity="1" fill-rule="nonzero"/><path fill="#646d68" d="M 394.40625 694.582031 L 332.738281 694.582031 L 332.582031 694.3125 L 301.902344 641.085938 L 302.0625 640.816406 L 332.738281 587.59375 L 394.40625 587.59375 L 394.5625 587.863281 L 425.242188 641.085938 L 425.082031 641.355469 Z M 333.363281 693.503906 L 393.785156 693.503906 L 424 641.085938 L 393.785156 588.671875 L 333.363281 588.671875 L 303.148438 641.085938 Z M 333.363281 693.503906 " fill-opacity="1" fill-rule="nonzero"/><path fill="#646d68" d="M 332.953125 591.605469 C 337.269531 591.605469 337.277344 584.902344 332.953125 584.902344 C 328.632812 584.902344 328.632812 591.605469 332.953125 591.605469 Z M 332.953125 591.605469 " fill-opacity="1" fill-rule="nonzero"/><path fill="#646d68" d="M 394.082031 591.335938 C 398.398438 591.335938 398.402344 584.628906 394.082031 584.628906 C 389.761719 584.628906 389.761719 591.335938 394.082031 591.335938 Z M 394.082031 591.335938 " fill-opacity="1" fill-rule="nonzero"/><path fill="#646d68" d="M 424.511719 643.9375 C 428.828125 643.9375 428.832031 637.230469 424.511719 637.230469 C 420.191406 637.230469 420.191406 643.9375 424.511719 643.9375 Z M 424.511719 643.9375 " fill-opacity="1" fill-rule="nonzero"/><path fill="#646d68" d="M 393.542969 697.347656 C 397.859375 697.347656 397.863281 690.644531 393.542969 690.644531 C 389.222656 690.644531 389.222656 697.347656 393.542969 697.347656 Z M 393.542969 697.347656 " fill-opacity="1" fill-rule="nonzero"/><path fill="#646d68" d="M 332.683594 697.617188 C 337 697.617188 337.003906 690.914062 332.683594 690.914062 C 328.363281 690.914062 328.363281 697.617188 332.683594 697.617188 Z M 332.683594 697.617188 " fill-opacity="1" fill-rule="nonzero"/><path fill="#646d68" d="M 302.25 644.746094 C 306.566406 644.746094 306.570312 638.039062 302.25 638.039062 C 297.929688 638.039062 297.929688 644.746094 302.25 644.746094 Z M 302.25 644.746094 " fill-opacity="1" fill-rule="nonzero"/></svg>