<svg xmlns="http://www.w3.org/2000/svg" xmlns:xlink="http://www.w3.org/1999/xlink" width="500" zoomAndPan="magnify" viewBox="0 0 375 149.999998" height="200" preserveAspectRatio="xMidYMid meet" version="1.0"><defs><g/><clipPath id="ef7f7f18e6"><path d="M 35.34375 2.378906 L 154.710938 2.378906 L 154.710938 75.386719 L 35.34375 75.386719 Z M 35.34375 2.378906 " clip-rule="nonzero"/></clipPath><clipPath id="9c2af27122"><path d="M 41.996094 33.988281 L 124.019531 33.988281 L 124.019531 116.011719 L 41.996094 116.011719 Z M 41.996094 33.988281 " clip-rule="nonzero"/></clipPath><clipPath id="63f6c24b6f"><path d="M 83.007812 33.988281 C 60.355469 33.988281 41.996094 52.351562 41.996094 75 C 41.996094 97.648438 60.355469 116.011719 83.007812 116.011719 C 105.65625 116.011719 124.019531 97.648438 124.019531 75 C 124.019531 52.351562 105.65625 33.988281 83.007812 33.988281 Z M 83.007812 33.988281 " clip-rule="nonzero"/></clipPath><clipPath id="51ccdae6bb"><path d="M 51.4375 43.429688 L 114.519531 43.429688 L 114.519531 106.511719 L 51.4375 106.511719 Z M 51.4375 43.429688 " clip-rule="nonzero"/></clipPath></defs><g fill="#ffffff" fill-opacity="1"><g transform="translate(161.126595, 60.745021)"><g><path d="M 33.234375 -32.09375 L 33.234375 0 L 25.8125 0 L 25.8125 -13.15625 L 11.234375 -13.15625 L 11.234375 0 L 3.8125 0 L 3.8125 -32.09375 L 11.234375 -32.09375 L 11.234375 -19.4375 L 25.8125 -19.4375 L 25.8125 -32.09375 Z M 33.234375 -32.09375 "/></g></g></g><g fill="#ffffff" fill-opacity="1"><g transform="translate(198.153487, 60.745021)"><g><path d="M 28.65625 -5.953125 L 28.65625 0 L 3.8125 0 L 3.8125 -32.09375 L 28.0625 -32.09375 L 28.0625 -26.125 L 11.1875 -26.125 L 11.1875 -19.15625 L 26.078125 -19.15625 L 26.078125 -13.390625 L 11.1875 -13.390625 L 11.1875 -5.953125 Z M 28.65625 -5.953125 "/></g></g></g><g fill="#ffffff" fill-opacity="1"><g transform="translate(228.902288, 60.745021)"><g><path d="M 24.9375 -6.875 L 10.046875 -6.875 L 7.203125 0 L -0.40625 0 L 13.890625 -32.09375 L 21.21875 -32.09375 L 35.578125 0 L 27.78125 0 Z M 22.59375 -12.515625 L 17.515625 -24.796875 L 12.421875 -12.515625 Z M 22.59375 -12.515625 "/></g></g></g><g fill="#ffffff" fill-opacity="1"><g transform="translate(264.004523, 60.745021)"><g><path d="M 3.8125 -32.09375 L 11.234375 -32.09375 L 11.234375 -6.046875 L 27.328125 -6.046875 L 27.328125 0 L 3.8125 0 Z M 3.8125 -32.09375 "/></g></g></g><g fill="#ffffff" fill-opacity="1"><g transform="translate(291.683044, 60.745021)"><g><path d="M 10.453125 -26.046875 L 0.1875 -26.046875 L 0.1875 -32.09375 L 28.140625 -32.09375 L 28.140625 -26.046875 L 17.875 -26.046875 L 17.875 0 L 10.453125 0 Z M 10.453125 -26.046875 "/></g></g></g><g fill="#ffffff" fill-opacity="1"><g transform="translate(320.003106, 60.745021)"><g><path d="M 33.234375 -32.09375 L 33.234375 0 L 25.8125 0 L 25.8125 -13.15625 L 11.234375 -13.15625 L 11.234375 0 L 3.8125 0 L 3.8125 -32.09375 L 11.234375 -32.09375 L 11.234375 -19.4375 L 25.8125 -19.4375 L 25.8125 -32.09375 Z M 33.234375 -32.09375 "/></g></g></g><g fill="#ffffff" fill-opacity="1"><g transform="translate(357.036516, 60.745021)"><g/></g></g><g fill="#ffffff" fill-opacity="1"><g transform="translate(161.126595, 105.711793)"><g><path d="M 33.234375 -32.09375 L 33.234375 0 L 25.8125 0 L 25.8125 -13.15625 L 11.234375 -13.15625 L 11.234375 0 L 3.8125 0 L 3.8125 -32.09375 L 11.234375 -32.09375 L 11.234375 -19.4375 L 25.8125 -19.4375 L 25.8125 -32.09375 Z M 33.234375 -32.09375 "/></g></g></g><g fill="#ffffff" fill-opacity="1"><g transform="translate(198.153487, 105.711793)"><g><path d="M 18.0625 0.546875 C 13.476562 0.546875 9.910156 -0.71875 7.359375 -3.25 C 4.804688 -5.789062 3.53125 -9.414062 3.53125 -14.125 L 3.53125 -32.09375 L 10.953125 -32.09375 L 10.953125 -14.390625 C 10.953125 -8.648438 13.335938 -5.78125 18.109375 -5.78125 C 20.429688 -5.78125 22.203125 -6.472656 23.421875 -7.859375 C 24.648438 -9.253906 25.265625 -11.429688 25.265625 -14.390625 L 25.265625 -32.09375 L 32.59375 -32.09375 L 32.59375 -14.125 C 32.59375 -9.414062 31.316406 -5.789062 28.765625 -3.25 C 26.210938 -0.71875 22.644531 0.546875 18.0625 0.546875 Z M 18.0625 0.546875 "/></g></g></g><g fill="#ffffff" fill-opacity="1"><g transform="translate(234.26385, 105.711793)"><g><path d="M 27.375 -16.6875 C 29.207031 -16.101562 30.640625 -15.128906 31.671875 -13.765625 C 32.710938 -12.410156 33.234375 -10.738281 33.234375 -8.75 C 33.234375 -5.9375 32.140625 -3.773438 29.953125 -2.265625 C 27.773438 -0.753906 24.59375 0 20.40625 0 L 3.8125 0 L 3.8125 -32.09375 L 19.484375 -32.09375 C 23.398438 -32.09375 26.398438 -31.34375 28.484375 -29.84375 C 30.578125 -28.34375 31.625 -26.3125 31.625 -23.75 C 31.625 -22.1875 31.25 -20.789062 30.5 -19.5625 C 29.757812 -18.34375 28.71875 -17.382812 27.375 -16.6875 Z M 11.1875 -26.5 L 11.1875 -18.9375 L 18.5625 -18.9375 C 20.394531 -18.9375 21.785156 -19.253906 22.734375 -19.890625 C 23.679688 -20.535156 24.15625 -21.484375 24.15625 -22.734375 C 24.15625 -23.992188 23.679688 -24.9375 22.734375 -25.5625 C 21.785156 -26.1875 20.394531 -26.5 18.5625 -26.5 Z M 19.84375 -5.59375 C 21.800781 -5.59375 23.273438 -5.910156 24.265625 -6.546875 C 25.265625 -7.191406 25.765625 -8.1875 25.765625 -9.53125 C 25.765625 -12.195312 23.789062 -13.53125 19.84375 -13.53125 L 11.1875 -13.53125 L 11.1875 -5.59375 Z M 19.84375 -5.59375 "/></g></g></g><g fill="#ffffff" fill-opacity="1"><g transform="translate(162.07369, 137.211436)"><g><path d="M 23.484375 -14.71875 L 18.609375 0 L 15.703125 0 L 12.078125 -10.890625 L 8.375 0 L 5.453125 0 L 0.5625 -14.71875 L 3.40625 -14.71875 L 7.0625 -3.53125 L 10.875 -14.71875 L 13.390625 -14.71875 L 17.125 -3.46875 L 20.890625 -14.71875 Z M 23.484375 -14.71875 "/></g></g></g><g fill="#ffffff" fill-opacity="1"><g transform="translate(188.028509, 137.211436)"><g><path d="M 13.015625 -2.296875 L 13.015625 0 L 1.984375 0 L 1.984375 -14.71875 L 12.71875 -14.71875 L 12.71875 -12.421875 L 4.71875 -12.421875 L 4.71875 -8.609375 L 11.8125 -8.609375 L 11.8125 -6.34375 L 4.71875 -6.34375 L 4.71875 -2.296875 Z M 13.015625 -2.296875 "/></g></g></g><g fill="#ffffff" fill-opacity="1"><g transform="translate(204.014153, 137.211436)"><g/></g></g><g fill="#ffffff" fill-opacity="1"><g transform="translate(211.713181, 137.211436)"><g><path d="M 8.796875 0.203125 C 7.304688 0.203125 5.960938 -0.117188 4.765625 -0.765625 C 3.566406 -1.421875 2.625 -2.320312 1.9375 -3.46875 C 1.257812 -4.613281 0.921875 -5.910156 0.921875 -7.359375 C 0.921875 -8.804688 1.265625 -10.101562 1.953125 -11.25 C 2.640625 -12.394531 3.582031 -13.296875 4.78125 -13.953125 C 5.976562 -14.609375 7.320312 -14.9375 8.8125 -14.9375 C 10.019531 -14.9375 11.117188 -14.722656 12.109375 -14.296875 C 13.109375 -13.878906 13.953125 -13.269531 14.640625 -12.46875 L 12.875 -10.8125 C 11.800781 -11.957031 10.488281 -12.53125 8.9375 -12.53125 C 7.925781 -12.53125 7.019531 -12.304688 6.21875 -11.859375 C 5.425781 -11.421875 4.804688 -10.8125 4.359375 -10.03125 C 3.910156 -9.25 3.6875 -8.359375 3.6875 -7.359375 C 3.6875 -6.367188 3.910156 -5.476562 4.359375 -4.6875 C 4.804688 -3.90625 5.425781 -3.289062 6.21875 -2.84375 C 7.019531 -2.40625 7.925781 -2.1875 8.9375 -2.1875 C 10.488281 -2.1875 11.800781 -2.769531 12.875 -3.9375 L 14.640625 -2.25 C 13.953125 -1.445312 13.101562 -0.835938 12.09375 -0.421875 C 11.09375 -0.00390625 9.992188 0.203125 8.796875 0.203125 Z M 8.796875 0.203125 "/></g></g></g><g fill="#ffffff" fill-opacity="1"><g transform="translate(228.897654, 137.211436)"><g><path d="M 11.53125 -3.40625 L 4.171875 -3.40625 L 2.71875 0 L -0.109375 0 L 6.515625 -14.71875 L 9.21875 -14.71875 L 15.859375 0 L 13 0 Z M 10.625 -5.546875 L 7.84375 -11.984375 L 5.09375 -5.546875 Z M 10.625 -5.546875 "/></g></g></g><g fill="#ffffff" fill-opacity="1"><g transform="translate(246.544819, 137.211436)"><g><path d="M 11.609375 0 L 8.609375 -4.3125 C 8.472656 -4.300781 8.28125 -4.296875 8.03125 -4.296875 L 4.71875 -4.296875 L 4.71875 0 L 1.984375 0 L 1.984375 -14.71875 L 8.03125 -14.71875 C 9.3125 -14.71875 10.421875 -14.503906 11.359375 -14.078125 C 12.304688 -13.660156 13.03125 -13.0625 13.53125 -12.28125 C 14.039062 -11.5 14.296875 -10.566406 14.296875 -9.484375 C 14.296875 -8.378906 14.023438 -7.425781 13.484375 -6.625 C 12.953125 -5.820312 12.179688 -5.226562 11.171875 -4.84375 L 14.546875 0 Z M 11.546875 -9.484375 C 11.546875 -10.421875 11.238281 -11.140625 10.625 -11.640625 C 10.007812 -12.148438 9.101562 -12.40625 7.90625 -12.40625 L 4.71875 -12.40625 L 4.71875 -6.546875 L 7.90625 -6.546875 C 9.101562 -6.546875 10.007812 -6.800781 10.625 -7.3125 C 11.238281 -7.820312 11.546875 -8.546875 11.546875 -9.484375 Z M 11.546875 -9.484375 "/></g></g></g><g fill="#ffffff" fill-opacity="1"><g transform="translate(263.813424, 137.211436)"><g><path d="M 13.015625 -2.296875 L 13.015625 0 L 1.984375 0 L 1.984375 -14.71875 L 12.71875 -14.71875 L 12.71875 -12.421875 L 4.71875 -12.421875 L 4.71875 -8.609375 L 11.8125 -8.609375 L 11.8125 -6.34375 L 4.71875 -6.34375 L 4.71875 -2.296875 Z M 13.015625 -2.296875 "/></g></g></g><path fill="#ffffff" d="M 144.015625 110.429688 C 135.703125 124.210938 122.714844 133.433594 108.308594 137.300781 C 119.769531 132.59375 129.871094 124.304688 136.757812 112.882812 C 153.8125 84.597656 144.707031 47.832031 116.421875 30.78125 C 101.921875 22.035156 85.1875 20.171875 70.027344 24.242188 C 86.941406 17.292969 106.816406 18.160156 123.679688 28.328125 C 151.960938 45.382812 161.066406 82.148438 144.015625 110.429688 " fill-opacity="1" fill-rule="evenodd"/><path fill="#ffffff" d="M 21.996094 38.777344 C 30.304688 25 43.292969 15.773438 57.699219 11.90625 C 46.238281 16.613281 36.136719 24.90625 29.25 36.328125 C 12.195312 64.609375 21.300781 101.375 49.585938 118.429688 C 64.085938 127.171875 80.820312 129.035156 95.980469 124.964844 C 79.066406 131.914062 59.191406 131.046875 42.328125 120.878906 C 14.046875 103.828125 4.941406 67.0625 21.996094 38.777344 " fill-opacity="1" fill-rule="evenodd"/><path fill="#ffffff" d="M 122.054688 118 C 130.363281 104.21875 132.457031 88.425781 129.15625 73.878906 C 130.339844 86.210938 127.722656 99.015625 120.835938 110.4375 C 103.78125 138.71875 67.015625 147.828125 38.734375 130.773438 C 24.230469 122.027344 14.773438 108.101562 11.296875 92.789062 C 13.046875 110.996094 23.089844 128.167969 39.953125 138.332031 C 68.234375 155.386719 105 146.28125 122.054688 118 " fill-opacity="1" fill-rule="evenodd"/><g clip-path="url(#ef7f7f18e6)"><path fill="#ffffff" d="M 43.953125 31.210938 C 35.644531 44.988281 33.550781 60.78125 36.851562 75.328125 C 35.667969 62.996094 38.285156 50.191406 45.171875 38.769531 C 62.226562 10.488281 98.992188 1.382812 127.273438 18.433594 C 141.777344 27.179688 151.234375 41.109375 154.710938 56.417969 C 152.960938 38.214844 142.917969 21.039062 126.058594 10.875 C 97.773438 -6.179688 61.007812 2.925781 43.953125 31.210938 " fill-opacity="1" fill-rule="evenodd"/></g><path fill="#ffffff" d="M 54.324219 87.210938 L 54.324219 66.289062 L 70.761719 66.289062 L 70.761719 49.851562 L 91.679688 49.851562 L 91.679688 66.289062 L 108.117188 66.289062 L 108.117188 87.210938 L 91.679688 87.210938 L 91.679688 103.644531 L 70.761719 103.644531 L 70.761719 87.210938 L 54.324219 87.210938 " fill-opacity="1" fill-rule="evenodd"/><g clip-path="url(#9c2af27122)"><g clip-path="url(#63f6c24b6f)"><path fill="#ffffff" d="M 41.996094 33.988281 L 124.019531 33.988281 L 124.019531 116.011719 L 41.996094 116.011719 Z M 41.996094 33.988281 " fill-opacity="1" fill-rule="nonzero"/></g></g><g clip-path="url(#51ccdae6bb)"><path fill="#ffffff" d="M 84.976562 106.566406 L 81.03125 106.566406 C 80.382812 106.5625 79.742188 106.5 79.109375 106.375 C 78.472656 106.246094 77.855469 106.058594 77.257812 105.808594 C 76.660156 105.5625 76.089844 105.257812 75.554688 104.898438 C 75.015625 104.539062 74.515625 104.128906 74.058594 103.671875 C 73.601562 103.214844 73.191406 102.714844 72.832031 102.175781 C 72.472656 101.640625 72.167969 101.070312 71.921875 100.472656 C 71.671875 99.875 71.484375 99.257812 71.359375 98.625 C 71.230469 97.988281 71.167969 97.347656 71.167969 96.699219 L 71.167969 86.835938 L 61.300781 86.835938 C 60.652344 86.835938 60.011719 86.769531 59.378906 86.644531 C 58.742188 86.515625 58.125 86.328125 57.527344 86.082031 C 56.929688 85.832031 56.363281 85.527344 55.824219 85.167969 C 55.285156 84.808594 54.789062 84.398438 54.328125 83.941406 C 53.871094 83.484375 53.464844 82.984375 53.101562 82.449219 C 52.742188 81.910156 52.4375 81.339844 52.191406 80.742188 C 51.941406 80.144531 51.753906 79.527344 51.628906 78.894531 C 51.5 78.257812 51.4375 77.617188 51.4375 76.96875 L 51.4375 73.023438 C 51.4375 72.375 51.5 71.734375 51.628906 71.101562 C 51.753906 70.464844 51.941406 69.847656 52.191406 69.25 C 52.4375 68.652344 52.742188 68.085938 53.101562 67.546875 C 53.464844 67.007812 53.871094 66.511719 54.328125 66.050781 C 54.789062 65.59375 55.285156 65.1875 55.824219 64.824219 C 56.363281 64.464844 56.929688 64.160156 57.527344 63.914062 C 58.125 63.664062 58.742188 63.476562 59.378906 63.351562 C 60.011719 63.222656 60.652344 63.160156 61.300781 63.160156 L 71.167969 63.160156 L 71.167969 53.292969 C 71.167969 52.648438 71.230469 52.007812 71.359375 51.371094 C 71.484375 50.734375 71.671875 50.121094 71.921875 49.523438 C 72.167969 48.921875 72.472656 48.355469 72.832031 47.816406 C 73.191406 47.277344 73.601562 46.78125 74.058594 46.324219 C 74.515625 45.863281 75.015625 45.457031 75.554688 45.097656 C 76.089844 44.734375 76.660156 44.433594 77.257812 44.183594 C 77.855469 43.9375 78.472656 43.75 79.109375 43.621094 C 79.742188 43.496094 80.382812 43.429688 81.03125 43.429688 L 84.976562 43.429688 C 86.738281 43.429688 88.382812 43.871094 89.910156 44.75 C 90.125 44.886719 90.304688 45.058594 90.453125 45.265625 C 90.601562 45.472656 90.707031 45.699219 90.765625 45.949219 C 90.828125 46.195312 90.839844 46.445312 90.804688 46.695312 C 90.769531 46.949219 90.6875 47.183594 90.558594 47.402344 C 90.433594 47.625 90.269531 47.8125 90.066406 47.96875 C 89.867188 48.125 89.644531 48.242188 89.402344 48.3125 C 89.15625 48.382812 88.90625 48.40625 88.65625 48.378906 C 88.402344 48.355469 88.160156 48.28125 87.9375 48.164062 C 87.019531 47.636719 86.035156 47.375 84.976562 47.375 L 81.03125 47.375 C 80.640625 47.375 80.257812 47.414062 79.875 47.488281 C 79.496094 47.566406 79.125 47.675781 78.765625 47.828125 C 78.40625 47.976562 78.066406 48.15625 77.742188 48.375 C 77.417969 48.589844 77.121094 48.835938 76.847656 49.109375 C 76.570312 49.382812 76.324219 49.683594 76.109375 50.007812 C 75.894531 50.328125 75.710938 50.671875 75.5625 51.03125 C 75.414062 51.390625 75.300781 51.757812 75.226562 52.140625 C 75.148438 52.519531 75.113281 52.90625 75.113281 53.292969 L 75.113281 65.132812 C 75.113281 65.394531 75.0625 65.644531 74.960938 65.886719 C 74.863281 66.128906 74.71875 66.34375 74.535156 66.527344 C 74.347656 66.710938 74.136719 66.855469 73.894531 66.957031 C 73.652344 67.054688 73.402344 67.105469 73.140625 67.105469 L 61.300781 67.105469 C 60.914062 67.105469 60.527344 67.144531 60.148438 67.21875 C 59.765625 67.296875 59.394531 67.40625 59.035156 67.554688 C 58.675781 67.703125 58.335938 67.886719 58.011719 68.101562 C 57.691406 68.320312 57.390625 68.5625 57.117188 68.839844 C 56.839844 69.113281 56.597656 69.414062 56.378906 69.734375 C 56.164062 70.058594 55.980469 70.398438 55.832031 70.757812 C 55.683594 71.117188 55.574219 71.488281 55.496094 71.871094 C 55.421875 72.25 55.382812 72.636719 55.382812 73.023438 L 55.382812 76.96875 C 55.382812 77.359375 55.421875 77.742188 55.496094 78.125 C 55.574219 78.507812 55.683594 78.875 55.832031 79.234375 C 55.980469 79.59375 56.164062 79.933594 56.378906 80.257812 C 56.597656 80.582031 56.839844 80.878906 57.117188 81.15625 C 57.390625 81.429688 57.691406 81.675781 58.011719 81.890625 C 58.335938 82.109375 58.675781 82.289062 59.035156 82.4375 C 59.394531 82.585938 59.765625 82.699219 60.148438 82.773438 C 60.527344 82.851562 60.914062 82.890625 61.300781 82.890625 L 73.140625 82.890625 C 73.402344 82.890625 73.652344 82.9375 73.894531 83.039062 C 74.136719 83.140625 74.347656 83.28125 74.535156 83.46875 C 74.71875 83.652344 74.863281 83.867188 74.960938 84.105469 C 75.0625 84.347656 75.113281 84.601562 75.113281 84.863281 L 75.113281 96.699219 C 75.113281 97.089844 75.148438 97.472656 75.226562 97.855469 C 75.300781 98.234375 75.414062 98.605469 75.5625 98.964844 C 75.710938 99.324219 75.894531 99.664062 76.109375 99.988281 C 76.324219 100.3125 76.570312 100.609375 76.847656 100.886719 C 77.121094 101.160156 77.417969 101.40625 77.742188 101.621094 C 78.066406 101.835938 78.40625 102.019531 78.765625 102.167969 C 79.125 102.316406 79.496094 102.429688 79.875 102.503906 C 80.257812 102.582031 80.640625 102.617188 81.03125 102.617188 L 84.976562 102.617188 C 85.367188 102.617188 85.75 102.582031 86.132812 102.503906 C 86.511719 102.429688 86.882812 102.316406 87.242188 102.167969 C 87.601562 102.019531 87.941406 101.835938 88.265625 101.621094 C 88.589844 101.40625 88.886719 101.160156 89.164062 100.886719 C 89.4375 100.609375 89.683594 100.3125 89.898438 99.988281 C 90.113281 99.664062 90.296875 99.324219 90.445312 98.964844 C 90.59375 98.605469 90.707031 98.234375 90.78125 97.855469 C 90.859375 97.472656 90.894531 97.089844 90.894531 96.699219 L 90.894531 84.863281 C 90.894531 84.601562 90.945312 84.347656 91.046875 84.105469 C 91.144531 83.867188 91.289062 83.652344 91.472656 83.46875 C 91.660156 83.28125 91.871094 83.140625 92.113281 83.039062 C 92.355469 82.9375 92.605469 82.890625 92.867188 82.890625 L 104.707031 82.890625 C 105.09375 82.890625 105.480469 82.851562 105.863281 82.773438 C 106.242188 82.699219 106.613281 82.585938 106.972656 82.4375 C 107.332031 82.289062 107.671875 82.109375 107.996094 81.890625 C 108.316406 81.675781 108.617188 81.429688 108.890625 81.15625 C 109.167969 80.878906 109.414062 80.582031 109.628906 80.257812 C 109.84375 79.933594 110.027344 79.59375 110.175781 79.234375 C 110.324219 78.875 110.4375 78.507812 110.511719 78.125 C 110.585938 77.742188 110.625 77.359375 110.625 76.96875 L 110.625 73.023438 C 110.625 71.96875 110.363281 70.980469 109.835938 70.066406 C 109.71875 69.839844 109.648438 69.601562 109.621094 69.347656 C 109.597656 69.09375 109.617188 68.84375 109.691406 68.601562 C 109.761719 68.355469 109.875 68.132812 110.03125 67.933594 C 110.1875 67.734375 110.375 67.570312 110.597656 67.441406 C 110.816406 67.316406 111.054688 67.234375 111.304688 67.195312 C 111.558594 67.160156 111.808594 67.171875 112.054688 67.234375 C 112.300781 67.292969 112.527344 67.398438 112.734375 67.546875 C 112.941406 67.695312 113.113281 67.878906 113.25 68.09375 C 114.132812 69.617188 114.574219 71.261719 114.570312 73.023438 L 114.570312 76.96875 C 114.570312 77.617188 114.507812 78.257812 114.378906 78.894531 C 114.253906 79.527344 114.066406 80.144531 113.816406 80.742188 C 113.570312 81.339844 113.265625 81.910156 112.90625 82.449219 C 112.546875 82.984375 112.136719 83.484375 111.679688 83.941406 C 111.222656 84.398438 110.722656 84.808594 110.183594 85.167969 C 109.644531 85.527344 109.078125 85.832031 108.480469 86.082031 C 107.882812 86.328125 107.265625 86.515625 106.628906 86.644531 C 105.996094 86.769531 105.355469 86.835938 104.707031 86.835938 L 94.84375 86.835938 L 94.84375 96.699219 C 94.839844 97.347656 94.777344 97.988281 94.652344 98.625 C 94.523438 99.257812 94.335938 99.875 94.085938 100.472656 C 93.839844 101.070312 93.535156 101.640625 93.175781 102.175781 C 92.816406 102.714844 92.40625 103.214844 91.949219 103.671875 C 91.492188 104.128906 90.992188 104.539062 90.453125 104.898438 C 89.917969 105.257812 89.347656 105.5625 88.75 105.808594 C 88.152344 106.058594 87.535156 106.246094 86.902344 106.375 C 86.265625 106.5 85.625 106.5625 84.976562 106.566406 Z M 84.976562 106.566406 " fill-opacity="1" fill-rule="nonzero"/></g><path fill="#ffffff" d="M 94.84375 74.996094 C 94.445312 74.996094 94.078125 74.886719 93.746094 74.664062 C 92.445312 73.796875 81.03125 65.992188 81.03125 59.214844 C 81.03125 58.414062 81.152344 57.628906 81.390625 56.863281 C 81.628906 56.101562 81.976562 55.386719 82.433594 54.730469 C 82.890625 54.070312 83.433594 53.492188 84.0625 53 C 84.695312 52.507812 85.386719 52.117188 86.136719 51.835938 C 86.886719 51.554688 87.660156 51.386719 88.460938 51.339844 C 89.257812 51.292969 90.046875 51.367188 90.824219 51.558594 C 91.605469 51.753906 92.335938 52.058594 93.019531 52.472656 C 93.703125 52.890625 94.3125 53.398438 94.84375 54 C 95.371094 53.398438 95.980469 52.890625 96.664062 52.472656 C 97.347656 52.058594 98.082031 51.753906 98.859375 51.558594 C 99.636719 51.367188 100.425781 51.292969 101.222656 51.339844 C 102.023438 51.386719 102.796875 51.554688 103.546875 51.835938 C 104.296875 52.117188 104.988281 52.507812 105.621094 53 C 106.25 53.492188 106.792969 54.070312 107.25 54.730469 C 107.707031 55.386719 108.054688 56.101562 108.292969 56.863281 C 108.53125 57.628906 108.652344 58.414062 108.652344 59.214844 C 108.652344 65.992188 97.238281 73.796875 95.9375 74.664062 C 95.605469 74.886719 95.242188 74.996094 94.84375 74.996094 Z M 88.921875 55.269531 C 88.398438 55.269531 87.894531 55.367188 87.414062 55.566406 C 86.929688 55.769531 86.503906 56.054688 86.132812 56.421875 C 85.761719 56.792969 85.476562 57.21875 85.277344 57.703125 C 85.078125 58.1875 84.976562 58.691406 84.976562 59.214844 C 84.976562 62.304688 90.425781 67.460938 94.84375 70.625 C 99.046875 67.609375 104.707031 62.457031 104.707031 59.214844 C 104.707031 58.691406 104.605469 58.1875 104.40625 57.703125 C 104.207031 57.21875 103.921875 56.792969 103.550781 56.421875 C 103.179688 56.054688 102.753906 55.769531 102.269531 55.566406 C 101.789062 55.367188 101.285156 55.269531 100.761719 55.269531 C 100.238281 55.269531 99.734375 55.367188 99.25 55.566406 C 98.765625 55.769531 98.339844 56.054688 97.96875 56.421875 C 97.601562 56.792969 97.316406 57.21875 97.113281 57.703125 C 96.914062 58.1875 96.816406 58.691406 96.816406 59.214844 C 96.816406 59.476562 96.765625 59.726562 96.664062 59.96875 C 96.566406 60.210938 96.421875 60.421875 96.238281 60.609375 C 96.050781 60.792969 95.839844 60.9375 95.597656 61.035156 C 95.355469 61.136719 95.105469 61.1875 94.84375 61.1875 C 94.582031 61.1875 94.328125 61.136719 94.085938 61.035156 C 93.84375 60.9375 93.632812 60.792969 93.445312 60.609375 C 93.261719 60.421875 93.121094 60.210938 93.019531 59.96875 C 92.917969 59.726562 92.867188 59.476562 92.867188 59.214844 C 92.867188 58.691406 92.769531 58.1875 92.570312 57.703125 C 92.367188 57.21875 92.082031 56.792969 91.714844 56.421875 C 91.34375 56.054688 90.917969 55.769531 90.433594 55.566406 C 89.949219 55.367188 89.445312 55.269531 88.921875 55.269531 Z M 88.921875 55.269531 " fill-opacity="1" fill-rule="nonzero"/></svg>