<svg xmlns="http://www.w3.org/2000/svg" xmlns:xlink="http://www.w3.org/1999/xlink" width="500" zoomAndPan="magnify" viewBox="0 0 375 149.999998" height="200" preserveAspectRatio="xMidYMid meet" version="1.0"><defs><g/><clipPath id="fd9dae2691"><path d="M 35.34375 2.382812 L 154.703125 2.382812 L 154.703125 75.386719 L 35.34375 75.386719 Z M 35.34375 2.382812 " clip-rule="nonzero"/></clipPath><clipPath id="7db092968a"><path d="M 41.996094 33.988281 L 124.019531 33.988281 L 124.019531 116.011719 L 41.996094 116.011719 Z M 41.996094 33.988281 " clip-rule="nonzero"/></clipPath><clipPath id="4cb801c5ac"><path d="M 83.007812 33.988281 C 60.355469 33.988281 41.996094 52.351562 41.996094 75 C 41.996094 97.648438 60.355469 116.011719 83.007812 116.011719 C 105.65625 116.011719 124.019531 97.648438 124.019531 75 C 124.019531 52.351562 105.65625 33.988281 83.007812 33.988281 Z M 83.007812 33.988281 " clip-rule="nonzero"/></clipPath><clipPath id="ecf2512d5f"><path d="M 51.4375 43.429688 L 114.4375 43.429688 L 114.4375 106.429688 L 51.4375 106.429688 Z M 51.4375 43.429688 " clip-rule="nonzero"/></clipPath></defs><g fill="#ffffff" fill-opacity="1"><g transform="translate(161.12661, 60.745021)"><g><path d="M 33.234375 -32.09375 L 33.234375 0 L 25.8125 0 L 25.8125 -13.15625 L 11.234375 -13.15625 L 11.234375 0 L 3.8125 0 L 3.8125 -32.09375 L 11.234375 -32.09375 L 11.234375 -19.4375 L 25.8125 -19.4375 L 25.8125 -32.09375 Z M 33.234375 -32.09375 "/></g></g></g><g fill="#ffffff" fill-opacity="1"><g transform="translate(198.153501, 60.745021)"><g><path d="M 28.65625 -5.953125 L 28.65625 0 L 3.8125 0 L 3.8125 -32.09375 L 28.0625 -32.09375 L 28.0625 -26.125 L 11.1875 -26.125 L 11.1875 -19.15625 L 26.078125 -19.15625 L 26.078125 -13.390625 L 11.1875 -13.390625 L 11.1875 -5.953125 Z M 28.65625 -5.953125 "/></g></g></g><g fill="#ffffff" fill-opacity="1"><g transform="translate(228.902302, 60.745021)"><g><path d="M 24.9375 -6.875 L 10.046875 -6.875 L 7.203125 0 L -0.40625 0 L 13.890625 -32.09375 L 21.21875 -32.09375 L 35.578125 0 L 27.78125 0 Z M 22.59375 -12.515625 L 17.515625 -24.796875 L 12.421875 -12.515625 Z M 22.59375 -12.515625 "/></g></g></g><g fill="#ffffff" fill-opacity="1"><g transform="translate(264.004537, 60.745021)"><g><path d="M 3.8125 -32.09375 L 11.234375 -32.09375 L 11.234375 -6.046875 L 27.328125 -6.046875 L 27.328125 0 L 3.8125 0 Z M 3.8125 -32.09375 "/></g></g></g><g fill="#ffffff" fill-opacity="1"><g transform="translate(291.683059, 60.745021)"><g><path d="M 10.453125 -26.046875 L 0.1875 -26.046875 L 0.1875 -32.09375 L 28.140625 -32.09375 L 28.140625 -26.046875 L 17.875 -26.046875 L 17.875 0 L 10.453125 0 Z M 10.453125 -26.046875 "/></g></g></g><g fill="#ffffff" fill-opacity="1"><g transform="translate(320.00312, 60.745021)"><g><path d="M 33.234375 -32.09375 L 33.234375 0 L 25.8125 0 L 25.8125 -13.15625 L 11.234375 -13.15625 L 11.234375 0 L 3.8125 0 L 3.8125 -32.09375 L 11.234375 -32.09375 L 11.234375 -19.4375 L 25.8125 -19.4375 L 25.8125 -32.09375 Z M 33.234375 -32.09375 "/></g></g></g><g fill="#ffffff" fill-opacity="1"><g transform="translate(357.03653, 60.745021)"><g/></g></g><g fill="#ffffff" fill-opacity="1"><g transform="translate(161.12661, 105.711793)"><g><path d="M 33.234375 -32.09375 L 33.234375 0 L 25.8125 0 L 25.8125 -13.15625 L 11.234375 -13.15625 L 11.234375 0 L 3.8125 0 L 3.8125 -32.09375 L 11.234375 -32.09375 L 11.234375 -19.4375 L 25.8125 -19.4375 L 25.8125 -32.09375 Z M 33.234375 -32.09375 "/></g></g></g><g fill="#ffffff" fill-opacity="1"><g transform="translate(198.153501, 105.711793)"><g><path d="M 18.0625 0.546875 C 13.476562 0.546875 9.910156 -0.71875 7.359375 -3.25 C 4.804688 -5.789062 3.53125 -9.414062 3.53125 -14.125 L 3.53125 -32.09375 L 10.953125 -32.09375 L 10.953125 -14.390625 C 10.953125 -8.648438 13.335938 -5.78125 18.109375 -5.78125 C 20.429688 -5.78125 22.203125 -6.472656 23.421875 -7.859375 C 24.648438 -9.253906 25.265625 -11.429688 25.265625 -14.390625 L 25.265625 -32.09375 L 32.59375 -32.09375 L 32.59375 -14.125 C 32.59375 -9.414062 31.316406 -5.789062 28.765625 -3.25 C 26.210938 -0.71875 22.644531 0.546875 18.0625 0.546875 Z M 18.0625 0.546875 "/></g></g></g><g fill="#ffffff" fill-opacity="1"><g transform="translate(234.263864, 105.711793)"><g><path d="M 27.375 -16.6875 C 29.207031 -16.101562 30.640625 -15.128906 31.671875 -13.765625 C 32.710938 -12.410156 33.234375 -10.738281 33.234375 -8.75 C 33.234375 -5.9375 32.140625 -3.773438 29.953125 -2.265625 C 27.773438 -0.753906 24.59375 0 20.40625 0 L 3.8125 0 L 3.8125 -32.09375 L 19.484375 -32.09375 C 23.398438 -32.09375 26.398438 -31.34375 28.484375 -29.84375 C 30.578125 -28.34375 31.625 -26.3125 31.625 -23.75 C 31.625 -22.1875 31.25 -20.789062 30.5 -19.5625 C 29.757812 -18.34375 28.71875 -17.382812 27.375 -16.6875 Z M 11.1875 -26.5 L 11.1875 -18.9375 L 18.5625 -18.9375 C 20.394531 -18.9375 21.785156 -19.253906 22.734375 -19.890625 C 23.679688 -20.535156 24.15625 -21.484375 24.15625 -22.734375 C 24.15625 -23.992188 23.679688 -24.9375 22.734375 -25.5625 C 21.785156 -26.1875 20.394531 -26.5 18.5625 -26.5 Z M 19.84375 -5.59375 C 21.800781 -5.59375 23.273438 -5.910156 24.265625 -6.546875 C 25.265625 -7.191406 25.765625 -8.1875 25.765625 -9.53125 C 25.765625 -12.195312 23.789062 -13.53125 19.84375 -13.53125 L 11.1875 -13.53125 L 11.1875 -5.59375 Z M 19.84375 -5.59375 "/></g></g></g><g fill="#ffffff" fill-opacity="1"><g transform="translate(162.073705, 137.211436)"><g><path d="M 23.484375 -14.71875 L 18.609375 0 L 15.703125 0 L 12.078125 -10.890625 L 8.375 0 L 5.453125 0 L 0.5625 -14.71875 L 3.40625 -14.71875 L 7.0625 -3.53125 L 10.875 -14.71875 L 13.390625 -14.71875 L 17.125 -3.46875 L 20.890625 -14.71875 Z M 23.484375 -14.71875 "/></g></g></g><g fill="#ffffff" fill-opacity="1"><g transform="translate(188.028523, 137.211436)"><g><path d="M 13.015625 -2.296875 L 13.015625 0 L 1.984375 0 L 1.984375 -14.71875 L 12.71875 -14.71875 L 12.71875 -12.421875 L 4.71875 -12.421875 L 4.71875 -8.609375 L 11.8125 -8.609375 L 11.8125 -6.34375 L 4.71875 -6.34375 L 4.71875 -2.296875 Z M 13.015625 -2.296875 "/></g></g></g><g fill="#ffffff" fill-opacity="1"><g transform="translate(204.014167, 137.211436)"><g/></g></g><g fill="#ffffff" fill-opacity="1"><g transform="translate(211.713195, 137.211436)"><g><path d="M 8.796875 0.203125 C 7.304688 0.203125 5.960938 -0.117188 4.765625 -0.765625 C 3.566406 -1.421875 2.625 -2.320312 1.9375 -3.46875 C 1.257812 -4.613281 0.921875 -5.910156 0.921875 -7.359375 C 0.921875 -8.804688 1.265625 -10.101562 1.953125 -11.25 C 2.640625 -12.394531 3.582031 -13.296875 4.78125 -13.953125 C 5.976562 -14.609375 7.320312 -14.9375 8.8125 -14.9375 C 10.019531 -14.9375 11.117188 -14.722656 12.109375 -14.296875 C 13.109375 -13.878906 13.953125 -13.269531 14.640625 -12.46875 L 12.875 -10.8125 C 11.800781 -11.957031 10.488281 -12.53125 8.9375 -12.53125 C 7.925781 -12.53125 7.019531 -12.304688 6.21875 -11.859375 C 5.425781 -11.421875 4.804688 -10.8125 4.359375 -10.03125 C 3.910156 -9.25 3.6875 -8.359375 3.6875 -7.359375 C 3.6875 -6.367188 3.910156 -5.476562 4.359375 -4.6875 C 4.804688 -3.90625 5.425781 -3.289062 6.21875 -2.84375 C 7.019531 -2.40625 7.925781 -2.1875 8.9375 -2.1875 C 10.488281 -2.1875 11.800781 -2.769531 12.875 -3.9375 L 14.640625 -2.25 C 13.953125 -1.445312 13.101562 -0.835938 12.09375 -0.421875 C 11.09375 -0.00390625 9.992188 0.203125 8.796875 0.203125 Z M 8.796875 0.203125 "/></g></g></g><g fill="#ffffff" fill-opacity="1"><g transform="translate(228.897668, 137.211436)"><g><path d="M 11.53125 -3.40625 L 4.171875 -3.40625 L 2.71875 0 L -0.109375 0 L 6.515625 -14.71875 L 9.21875 -14.71875 L 15.859375 0 L 13 0 Z M 10.625 -5.546875 L 7.84375 -11.984375 L 5.09375 -5.546875 Z M 10.625 -5.546875 "/></g></g></g><g fill="#ffffff" fill-opacity="1"><g transform="translate(246.544834, 137.211436)"><g><path d="M 11.609375 0 L 8.609375 -4.3125 C 8.472656 -4.300781 8.28125 -4.296875 8.03125 -4.296875 L 4.71875 -4.296875 L 4.71875 0 L 1.984375 0 L 1.984375 -14.71875 L 8.03125 -14.71875 C 9.3125 -14.71875 10.421875 -14.503906 11.359375 -14.078125 C 12.304688 -13.660156 13.03125 -13.0625 13.53125 -12.28125 C 14.039062 -11.5 14.296875 -10.566406 14.296875 -9.484375 C 14.296875 -8.378906 14.023438 -7.425781 13.484375 -6.625 C 12.953125 -5.820312 12.179688 -5.226562 11.171875 -4.84375 L 14.546875 0 Z M 11.546875 -9.484375 C 11.546875 -10.421875 11.238281 -11.140625 10.625 -11.640625 C 10.007812 -12.148438 9.101562 -12.40625 7.90625 -12.40625 L 4.71875 -12.40625 L 4.71875 -6.546875 L 7.90625 -6.546875 C 9.101562 -6.546875 10.007812 -6.800781 10.625 -7.3125 C 11.238281 -7.820312 11.546875 -8.546875 11.546875 -9.484375 Z M 11.546875 -9.484375 "/></g></g></g><g fill="#ffffff" fill-opacity="1"><g transform="translate(263.813439, 137.211436)"><g><path d="M 13.015625 -2.296875 L 13.015625 0 L 1.984375 0 L 1.984375 -14.71875 L 12.71875 -14.71875 L 12.71875 -12.421875 L 4.71875 -12.421875 L 4.71875 -8.609375 L 11.8125 -8.609375 L 11.8125 -6.34375 L 4.71875 -6.34375 L 4.71875 -2.296875 Z M 13.015625 -2.296875 "/></g></g></g><path fill="#ffffff" d="M 144.007812 110.425781 C 135.699219 124.207031 122.710938 133.429688 108.304688 137.296875 C 119.765625 132.59375 129.867188 124.300781 136.753906 112.878906 C 153.804688 84.597656 144.699219 47.832031 116.417969 30.78125 C 101.917969 22.035156 85.183594 20.171875 70.023438 24.242188 C 86.9375 17.296875 106.8125 18.164062 123.671875 28.328125 C 151.953125 45.382812 161.058594 82.144531 144.007812 110.425781 " fill-opacity="1" fill-rule="evenodd"/><path fill="#ffffff" d="M 21.996094 38.777344 C 30.304688 25 43.292969 15.773438 57.695312 11.90625 C 46.238281 16.613281 36.136719 24.90625 29.25 36.328125 C 12.195312 64.609375 21.300781 101.371094 49.582031 118.425781 C 64.085938 127.167969 80.816406 129.03125 95.976562 124.960938 C 79.0625 131.910156 59.1875 131.042969 42.328125 120.878906 C 14.046875 103.824219 4.941406 67.058594 21.996094 38.777344 " fill-opacity="1" fill-rule="evenodd"/><path fill="#ffffff" d="M 122.046875 117.996094 C 130.355469 104.214844 132.453125 88.425781 129.148438 73.878906 C 130.335938 86.210938 127.71875 99.015625 120.832031 110.433594 C 103.777344 138.714844 67.015625 147.824219 38.734375 130.769531 C 24.230469 122.027344 14.773438 108.097656 11.296875 92.789062 C 13.046875 110.992188 23.089844 128.164062 39.949219 138.332031 C 68.230469 155.382812 104.996094 146.277344 122.046875 117.996094 " fill-opacity="1" fill-rule="evenodd"/><g clip-path="url(#fd9dae2691)"><path fill="#ffffff" d="M 43.953125 31.210938 C 35.644531 44.988281 33.546875 60.78125 36.851562 75.328125 C 35.667969 62.996094 38.285156 50.191406 45.171875 38.769531 C 62.222656 10.488281 98.988281 1.382812 127.269531 18.4375 C 141.769531 27.179688 151.230469 41.109375 154.703125 56.417969 C 152.953125 38.214844 142.910156 21.042969 126.050781 10.875 C 97.769531 -6.175781 61.007812 2.929688 43.953125 31.210938 " fill-opacity="1" fill-rule="evenodd"/></g><path fill="#ffffff" d="M 54.324219 87.207031 L 54.324219 66.289062 L 70.757812 66.289062 L 70.757812 49.851562 L 91.675781 49.851562 L 91.675781 66.289062 L 108.113281 66.289062 L 108.113281 87.207031 L 91.675781 87.207031 L 91.675781 103.644531 L 70.757812 103.644531 L 70.757812 87.207031 L 54.324219 87.207031 " fill-opacity="1" fill-rule="evenodd"/><g clip-path="url(#7db092968a)"><g clip-path="url(#4cb801c5ac)"><path fill="#ffffff" d="M 41.996094 33.988281 L 124.019531 33.988281 L 124.019531 116.011719 L 41.996094 116.011719 Z M 41.996094 33.988281 " fill-opacity="1" fill-rule="nonzero"/></g></g><g clip-path="url(#ecf2512d5f)"><path fill="#37c2cc" d="M 84.972656 106.558594 L 81.027344 106.558594 C 80.382812 106.558594 79.738281 106.496094 79.105469 106.367188 C 78.46875 106.242188 77.855469 106.054688 77.253906 105.804688 C 76.65625 105.558594 76.089844 105.253906 75.550781 104.894531 C 75.011719 104.53125 74.515625 104.125 74.058594 103.667969 C 73.597656 103.207031 73.191406 102.710938 72.832031 102.171875 C 72.472656 101.632812 72.167969 101.066406 71.917969 100.46875 C 71.671875 99.871094 71.484375 99.253906 71.355469 98.617188 C 71.230469 97.984375 71.164062 97.34375 71.164062 96.695312 L 71.164062 86.832031 L 61.300781 86.832031 C 60.652344 86.832031 60.011719 86.765625 59.378906 86.640625 C 58.742188 86.511719 58.125 86.324219 57.527344 86.078125 C 56.929688 85.828125 56.363281 85.523438 55.824219 85.164062 C 55.285156 84.804688 54.789062 84.394531 54.328125 83.9375 C 53.871094 83.480469 53.460938 82.984375 53.101562 82.445312 C 52.742188 81.90625 52.4375 81.339844 52.191406 80.738281 C 51.941406 80.140625 51.753906 79.527344 51.628906 78.890625 C 51.5 78.253906 51.4375 77.613281 51.4375 76.96875 L 51.4375 73.023438 C 51.4375 72.375 51.5 71.734375 51.628906 71.097656 C 51.753906 70.464844 51.941406 69.847656 52.191406 69.25 C 52.4375 68.652344 52.742188 68.082031 53.101562 67.542969 C 53.460938 67.007812 53.871094 66.507812 54.328125 66.050781 C 54.789062 65.59375 55.285156 65.183594 55.824219 64.824219 C 56.363281 64.464844 56.929688 64.160156 57.527344 63.910156 C 58.125 63.664062 58.742188 63.476562 59.378906 63.347656 C 60.011719 63.222656 60.652344 63.160156 61.300781 63.15625 L 71.164062 63.15625 L 71.164062 53.292969 C 71.164062 52.644531 71.230469 52.003906 71.355469 51.371094 C 71.484375 50.734375 71.671875 50.117188 71.917969 49.519531 C 72.167969 48.921875 72.472656 48.355469 72.832031 47.816406 C 73.191406 47.277344 73.597656 46.78125 74.058594 46.324219 C 74.515625 45.863281 75.011719 45.457031 75.550781 45.097656 C 76.089844 44.734375 76.65625 44.433594 77.253906 44.183594 C 77.855469 43.9375 78.46875 43.75 79.105469 43.621094 C 79.738281 43.496094 80.382812 43.429688 81.027344 43.429688 L 84.972656 43.429688 C 86.738281 43.429688 88.378906 43.871094 89.90625 44.75 C 90.121094 44.886719 90.300781 45.058594 90.449219 45.265625 C 90.597656 45.472656 90.703125 45.699219 90.765625 45.945312 C 90.824219 46.195312 90.835938 46.445312 90.800781 46.695312 C 90.765625 46.949219 90.683594 47.183594 90.554688 47.402344 C 90.429688 47.625 90.265625 47.8125 90.0625 47.96875 C 89.863281 48.125 89.640625 48.242188 89.398438 48.3125 C 89.152344 48.382812 88.902344 48.40625 88.652344 48.378906 C 88.398438 48.355469 88.160156 48.28125 87.933594 48.164062 C 87.015625 47.636719 86.03125 47.375 84.972656 47.375 L 81.027344 47.375 C 80.640625 47.375 80.253906 47.414062 79.875 47.488281 C 79.492188 47.566406 79.121094 47.675781 78.765625 47.824219 C 78.40625 47.976562 78.0625 48.15625 77.742188 48.371094 C 77.417969 48.589844 77.117188 48.835938 76.84375 49.109375 C 76.570312 49.382812 76.324219 49.683594 76.109375 50.003906 C 75.890625 50.328125 75.710938 50.671875 75.5625 51.027344 C 75.410156 51.386719 75.300781 51.757812 75.222656 52.140625 C 75.148438 52.519531 75.109375 52.90625 75.109375 53.292969 L 75.109375 65.128906 C 75.109375 65.390625 75.058594 65.644531 74.960938 65.886719 C 74.859375 66.128906 74.71875 66.339844 74.53125 66.527344 C 74.347656 66.710938 74.132812 66.851562 73.890625 66.953125 C 73.652344 67.054688 73.398438 67.101562 73.136719 67.101562 L 61.300781 67.101562 C 60.914062 67.101562 60.527344 67.140625 60.144531 67.21875 C 59.765625 67.292969 59.394531 67.40625 59.035156 67.554688 C 58.675781 67.703125 58.335938 67.886719 58.011719 68.101562 C 57.691406 68.316406 57.390625 68.5625 57.117188 68.835938 C 56.839844 69.113281 56.597656 69.410156 56.378906 69.734375 C 56.164062 70.058594 55.980469 70.398438 55.832031 70.757812 C 55.683594 71.117188 55.570312 71.484375 55.496094 71.867188 C 55.421875 72.25 55.382812 72.632812 55.382812 73.023438 L 55.382812 76.96875 C 55.382812 77.355469 55.421875 77.742188 55.496094 78.121094 C 55.570312 78.503906 55.683594 78.871094 55.832031 79.230469 C 55.980469 79.589844 56.164062 79.933594 56.378906 80.253906 C 56.597656 80.578125 56.839844 80.878906 57.117188 81.152344 C 57.390625 81.425781 57.691406 81.671875 58.011719 81.886719 C 58.335938 82.105469 58.675781 82.285156 59.035156 82.433594 C 59.394531 82.582031 59.765625 82.695312 60.144531 82.773438 C 60.527344 82.847656 60.914062 82.886719 61.300781 82.886719 L 73.136719 82.886719 C 73.398438 82.886719 73.652344 82.9375 73.890625 83.035156 C 74.132812 83.136719 74.347656 83.277344 74.53125 83.464844 C 74.71875 83.648438 74.859375 83.863281 74.960938 84.101562 C 75.058594 84.34375 75.109375 84.597656 75.109375 84.859375 L 75.109375 96.695312 C 75.109375 97.082031 75.148438 97.46875 75.222656 97.847656 C 75.300781 98.230469 75.410156 98.601562 75.5625 98.960938 C 75.710938 99.320312 75.890625 99.660156 76.109375 99.984375 C 76.324219 100.304688 76.570312 100.605469 76.84375 100.878906 C 77.117188 101.15625 77.417969 101.398438 77.742188 101.617188 C 78.0625 101.832031 78.40625 102.015625 78.765625 102.164062 C 79.121094 102.3125 79.492188 102.421875 79.875 102.5 C 80.253906 102.574219 80.640625 102.613281 81.027344 102.613281 L 84.972656 102.613281 C 85.363281 102.613281 85.746094 102.574219 86.128906 102.5 C 86.511719 102.421875 86.878906 102.3125 87.238281 102.164062 C 87.597656 102.015625 87.9375 101.832031 88.261719 101.617188 C 88.585938 101.398438 88.882812 101.15625 89.160156 100.878906 C 89.433594 100.605469 89.679688 100.304688 89.894531 99.984375 C 90.109375 99.660156 90.292969 99.320312 90.441406 98.960938 C 90.589844 98.601562 90.703125 98.230469 90.777344 97.847656 C 90.855469 97.46875 90.890625 97.082031 90.890625 96.695312 L 90.890625 84.859375 C 90.890625 84.597656 90.941406 84.34375 91.042969 84.101562 C 91.144531 83.863281 91.285156 83.648438 91.46875 83.464844 C 91.65625 83.277344 91.867188 83.136719 92.109375 83.035156 C 92.351562 82.9375 92.605469 82.886719 92.863281 82.886719 L 104.703125 82.886719 C 105.089844 82.886719 105.476562 82.847656 105.855469 82.773438 C 106.238281 82.695312 106.609375 82.582031 106.964844 82.433594 C 107.324219 82.285156 107.667969 82.105469 107.988281 81.886719 C 108.3125 81.671875 108.613281 81.425781 108.886719 81.152344 C 109.160156 80.878906 109.40625 80.578125 109.621094 80.253906 C 109.839844 79.933594 110.019531 79.589844 110.167969 79.230469 C 110.320312 78.871094 110.429688 78.503906 110.507812 78.121094 C 110.582031 77.742188 110.621094 77.355469 110.621094 76.96875 L 110.621094 73.023438 C 110.621094 71.964844 110.359375 70.980469 109.832031 70.0625 C 109.714844 69.835938 109.640625 69.597656 109.617188 69.34375 C 109.589844 69.089844 109.613281 68.84375 109.683594 68.597656 C 109.753906 68.355469 109.871094 68.132812 110.027344 67.929688 C 110.183594 67.730469 110.371094 67.566406 110.59375 67.441406 C 110.8125 67.3125 111.046875 67.230469 111.300781 67.195312 C 111.550781 67.160156 111.800781 67.171875 112.046875 67.230469 C 112.296875 67.292969 112.523438 67.398438 112.730469 67.546875 C 112.9375 67.695312 113.109375 67.875 113.242188 68.089844 C 114.125 69.617188 114.566406 71.257812 114.566406 73.023438 L 114.566406 76.96875 C 114.566406 77.613281 114.5 78.253906 114.375 78.890625 C 114.246094 79.527344 114.058594 80.140625 113.8125 80.738281 C 113.5625 81.339844 113.257812 81.90625 112.898438 82.445312 C 112.539062 82.984375 112.132812 83.480469 111.671875 83.9375 C 111.214844 84.394531 110.71875 84.804688 110.179688 85.164062 C 109.640625 85.523438 109.074219 85.828125 108.476562 86.078125 C 107.875 86.324219 107.261719 86.511719 106.625 86.640625 C 105.992188 86.765625 105.347656 86.832031 104.703125 86.832031 L 94.839844 86.832031 L 94.839844 96.695312 C 94.835938 97.34375 94.773438 97.984375 94.648438 98.617188 C 94.519531 99.253906 94.332031 99.871094 94.082031 100.46875 C 93.835938 101.066406 93.53125 101.632812 93.171875 102.171875 C 92.8125 102.710938 92.402344 103.207031 91.945312 103.667969 C 91.488281 104.125 90.988281 104.53125 90.453125 104.894531 C 89.914062 105.253906 89.34375 105.558594 88.746094 105.804688 C 88.148438 106.054688 87.53125 106.242188 86.898438 106.367188 C 86.261719 106.496094 85.621094 106.558594 84.972656 106.558594 Z M 84.972656 106.558594 " fill-opacity="1" fill-rule="nonzero"/></g><path fill="#37c2cc" d="M 94.839844 74.996094 C 94.441406 74.996094 94.074219 74.882812 93.742188 74.664062 C 92.441406 73.796875 81.027344 65.992188 81.027344 59.210938 C 81.027344 58.410156 81.148438 57.628906 81.386719 56.863281 C 81.625 56.097656 81.972656 55.386719 82.429688 54.726562 C 82.886719 54.070312 83.429688 53.492188 84.0625 53 C 84.691406 52.507812 85.382812 52.117188 86.132812 51.835938 C 86.882812 51.550781 87.65625 51.386719 88.457031 51.339844 C 89.257812 51.292969 90.042969 51.367188 90.824219 51.558594 C 91.601562 51.753906 92.332031 52.058594 93.015625 52.472656 C 93.699219 52.890625 94.308594 53.398438 94.839844 54 C 95.367188 53.398438 95.976562 52.890625 96.660156 52.472656 C 97.34375 52.058594 98.074219 51.753906 98.855469 51.558594 C 99.632812 51.367188 100.417969 51.292969 101.21875 51.339844 C 102.019531 51.386719 102.792969 51.550781 103.542969 51.835938 C 104.292969 52.117188 104.984375 52.507812 105.613281 53 C 106.246094 53.492188 106.789062 54.070312 107.246094 54.726562 C 107.703125 55.386719 108.050781 56.097656 108.289062 56.863281 C 108.527344 57.628906 108.648438 58.410156 108.648438 59.210938 C 108.648438 65.992188 97.234375 73.796875 95.933594 74.664062 C 95.601562 74.882812 95.238281 74.996094 94.839844 74.996094 Z M 88.917969 55.265625 C 88.394531 55.265625 87.894531 55.367188 87.410156 55.566406 C 86.925781 55.765625 86.5 56.050781 86.128906 56.421875 C 85.757812 56.792969 85.476562 57.21875 85.273438 57.703125 C 85.074219 58.1875 84.972656 58.6875 84.972656 59.210938 C 84.972656 62.304688 90.421875 67.460938 94.839844 70.621094 C 99.042969 67.609375 104.703125 62.457031 104.703125 59.210938 C 104.703125 58.6875 104.601562 58.1875 104.402344 57.703125 C 104.203125 57.21875 103.917969 56.792969 103.546875 56.421875 C 103.175781 56.050781 102.75 55.765625 102.265625 55.566406 C 101.78125 55.367188 101.28125 55.265625 100.757812 55.265625 C 100.234375 55.265625 99.730469 55.367188 99.246094 55.566406 C 98.761719 55.765625 98.335938 56.050781 97.964844 56.421875 C 97.597656 56.792969 97.3125 57.21875 97.109375 57.703125 C 96.910156 58.1875 96.8125 58.6875 96.8125 59.210938 C 96.8125 59.472656 96.761719 59.726562 96.660156 59.96875 C 96.558594 60.207031 96.417969 60.421875 96.234375 60.605469 C 96.046875 60.792969 95.835938 60.933594 95.59375 61.035156 C 95.351562 61.136719 95.097656 61.183594 94.839844 61.183594 C 94.578125 61.183594 94.324219 61.136719 94.082031 61.035156 C 93.839844 60.933594 93.628906 60.792969 93.441406 60.605469 C 93.257812 60.421875 93.117188 60.207031 93.015625 59.96875 C 92.914062 59.726562 92.863281 59.472656 92.863281 59.210938 C 92.863281 58.6875 92.765625 58.1875 92.566406 57.703125 C 92.363281 57.21875 92.078125 56.792969 91.710938 56.421875 C 91.339844 56.050781 90.914062 55.765625 90.429688 55.566406 C 89.945312 55.367188 89.441406 55.265625 88.917969 55.265625 Z M 88.917969 55.265625 " fill-opacity="1" fill-rule="nonzero"/></svg>